<?xml version="1.0" standalone="no"?>
<!DOCTYPE svg PUBLIC "-//W3C//DTD SVG 1.1//EN" "http://www.w3.org/Graphics/SVG/1.1/DTD/svg11.dtd" >
<svg>
<metadata>
Created by FontForge 20090622 at Fri Jul 25 10:48:10 2014
 By ffonts
Created by User's name with Font.My (http://font.my)
</metadata>
<defs>
<font id="scribbled" horiz-adv-x="569" >
  <font-face 
    font-family="scribbled"
    font-weight="500"
    font-stretch="normal"
    units-per-em="1000"
    panose-1="2 0 6 3 0 0 0 0 0 0"
    ascent="800"
    descent="-200"
    x-height="489"
    cap-height="655"
    bbox="33 -255.286 859.333 752.727"
    underline-thickness="50"
    underline-position="-100"
    unicode-range="U+0020-U+201D"
  />
<missing-glyph horiz-adv-x="364" 
d="M33 0v666h265v-666h-265zM66 33h199v600h-199v-600z" />
    <glyph glyph-name=".notdef" horiz-adv-x="364" 
d="M33 0v666h265v-666h-265zM66 33h199v600h-199v-600z" />
    <glyph glyph-name=".null" horiz-adv-x="0" 
 />
    <glyph glyph-name="nonmarkingreturn" horiz-adv-x="333" 
 />
    <glyph glyph-name="space" unicode=" " horiz-adv-x="450" 
 />
    <glyph glyph-name="exclam" unicode="!" horiz-adv-x="232" 
d="M67.5 81.5q17.5 17.5 42.5 17.5t42 -18l3 -3q18 -17 18 -42t-17.5 -42.5t-42.5 -17.5t-43 18l-3 3q-17 17 -17 42t17.5 42.5zM118.5 678.5q24.5 1.5 43 -15.5t20.5 -41v-11q1 -16 0 -28v-11q0 -11 -3 -29q-1 -8 -1 -12v-14q0 -9 -1 -20q0 -2 -2 -18q0 -8 -1 -17
q0 -10 -1 -21v-11q1 -10 1 -20v-52v-18q1 -13 1 -25v-89q0 -24 -17.5 -42t-42 -18t-42.5 18t-18 42v89v17q-1 13 -1 26v52q0 5 -1 10q-1 11 0 27q1 14 1.5 23t1.5 19q0 3 0.5 9.5t0.5 7.5q1 6 1 11v14q0 11 2 29q2 9 2 12v20q1 4 0 12v11q-2 24 15 43t41.5 20.5z" />
    <glyph glyph-name="quotedbl" unicode="&#x22;" horiz-adv-x="406" 
d="M282.5 700q24.5 4 44.5 -11t24 -39l3 -16q4 -23 3 -42q-1 -17 -4 -37q-4 -22 -11 -43q-4 -13 -6 -22l-5 -23l-5 -21q-3 -15 -9 -27l-3 -8q-10 -22 -33.5 -31t-46 1.5t-31.5 34t1 45.5l4 7q1 2 1 5l5 20l5 24q3 14 10 33q3 11 5 23q2 14 3 25q0 6 -2 17l-2 16
q-4 24 10.5 44.5t39 24.5zM144.5 677q24.5 -2 41 -21t14.5 -43l-1 -10q0 -11 -5 -40q-4 -28 -8 -45q-3 -17 -8 -35q-5 -19 -9 -29l-2 -8q-8 -23 -30.5 -34t-45.5 -3.5t-34.5 30t-3.5 45.5l3 8q2 6 6 22l7 29q3 14 7 38q3 24 4 31v9q2 25 21 41.5t43.5 14.5z" />
    <glyph glyph-name="numbersign" unicode="#" horiz-adv-x="640" 
d="M50 188.5q0 12.5 9 22.5t22 10l47 1q29 1 54 3q6 29 13 59l25 107q-20 -1 -38 -3l-40 -3q-13 -1 -23 7.5t-11 21.5t7.5 23t21.5 11l40 3q25 2 57 4l19 89q12 52 24 81l10 26q5 12 17 17t24 0.5t17 -16.5t1 -24l-11 -27q-10 -24 -20 -71l-16 -70q37 2 48 2q12 0 57 -1
q12 0 22 -1q1 3 1 4q21 76 30 114q9 42 17 64l8 21q5 12 17 17t24 0.5t17.5 -16.5t0.5 -24l-8 -21q-7 -18 -15 -54q-8 -38 -28 -111h5q4 -1 7 0q6 0 28 3l21 3q13 1 23.5 -7t12 -21t-6.5 -23t-21 -12l-22 -3q-22 -2 -29 -3q-9 -1 -19 0q-5 1 -15 2l-29 -118q-3 -16 -7 -32
q15 -3 26 -5q13 -3 42 -6q31 -3 45 -5l13 -2q13 -2 20.5 -13t5.5 -23.5t-12.5 -20.5t-22.5 -6l-14 2q-12 2 -42 5q-32 4 -49 7q-10 3 -24 6q-8 -38 -12 -70q-11 -67 -11 -74l-1 -8q-1 -13 -11 -21.5t-23 -7.5t-21.5 11t-7.5 23l1 8q1 9 11 79q5 30 12 66q-29 -1 -64 -10
q-32 -8 -63 -12q-4 -20 -7 -39l-9 -69q-2 -12 -12.5 -20t-23.5 -6.5t-21 12t-6 23.5l10 69l4 25l-41 -2l-48 -1q-12 0 -22 9t-10 21.5zM410 398h-8q-44 1 -55 1q-10 0 -62 -3l-28 -126q-5 -20 -9 -39q18 3 35 8q42 11 79 12h14q4 18 8 38q13 58 26 109z" />
    <glyph glyph-name="ampersand" unicode="&#x26;" horiz-adv-x="612" 
d="M547.5 311.5q11.5 -6.5 14.5 -19t-3 -24.5l-7 -11q-6 -10 -19 -35q-14 -27 -29 -52q-14 -25 -30 -51q-1 0 -3 -4l4 -4q9 -10 19 -23q12 -14 20 -27q7 -12 16 -30l7 -17q6 -11 1.5 -23.5t-16 -18t-24 -1.5t-17.5 16l-8 17q-8 15 -14 25q-5 9 -13 19q-5 6 -10 11
q-7 -10 -14 -19q-14 -18 -29 -30q-14 -12 -29.5 -19.5t-36.5 -12.5t-49 -3q-27 1 -55 8q-30 8 -62 28q-29 18 -47 33q-19 16 -34 39q-14 22 -22 48.5t-8 53.5q0 26 5 51q6 28 24 52q16 20 44 45q21 19 31 26l-21 44q-14 30 -20 58q-5 28 -2 53t18 53q14 29 38 49
q24 21 57 28q27 6 56 6q26 1 52 0q35 0 54 -12q20 -12 29 -33q9 -18 11 -39q1 -18 1 -37q0 -22 -3 -39q-4 -20 -14 -37q-8 -14 -19 -30q-11 -14 -22 -30l-23 -32q-15 -20 -40 -35q-8 -4 -18 -8l6 -6l27 -27q18 -19 33 -38q14 -17 26 -30q14 -15 28 -32q10 -13 18 -22
q13 20 24 39q14 24 27 49q14 26 21 38l6 11q7 12 19.5 15t24 -3.5zM236 367q23 5 38 14q14 8 22 18l22 30l22 31l16 24q4 8 6 17q2 12 2 28q0 17 -1 31q-1 10 -4 18q-2 4 -6 6q-5 3 -22 3q-25 1 -50 0q-22 0 -44 -5q-17 -3 -29 -14q-14 -12 -23 -29q-10 -19 -12 -33
q-2 -15 2 -33q4 -20 15 -43l20 -42q6 -11 11 -14q5 -4 8 -5q5 -2 7 -2zM193 309q-11 -7 -28 -23q-23 -20 -35 -36q-10 -13 -13 -28q-4 -18 -4 -37q0 -17 5.5 -35.5t14.5 -32.5q9 -15 21 -25q15 -12 40 -28q24 -14 45 -20q22 -5 42 -7q19 -1 32 2q14 3 22.5 7.5t17.5 12.5
q9 7 19 20t20 28q-5 5 -10 11q-11 12 -24 28q-11 15 -23 28q-15 14 -30 33q-14 17 -30 34l-26 26l-19 21q-4 5 -8 12q-17 -4 -29 9z" />
    <glyph glyph-name="quotesingle" unicode="'" horiz-adv-x="249" 
d="M146.5 695q24.5 -3 40 -23t12.5 -44l-2 -15l-5 -30q-2 -6 -3 -15q-1 -14 -4 -27q-1 -7 -1 -10q-1 -9 -3 -19q-1 -5 -1 -12q-1 -13 -3 -24q-1 -6 -2 -16q-1 -9 -2 -15q-1 -8 -1 -15l-2 -20q-3 -24 -22.5 -40t-43.5 -13.5t-40 22t-14 43.5l2 20q1 7 2 13q0 9 1.5 20.5
t3.5 20.5q1 5 1 12q1 13 3 24q1 6 1 10q1 10 4 23q1 7 2 16q2 15 4 27q2 7 4 20l2 15q3 25 22.5 40t44 12z" />
    <glyph glyph-name="parenleft" unicode="(" horiz-adv-x="379" 
d="M324 700q7 -11 4.5 -24t-13.5 -20l-9 -5q-9 -6 -17 -12q-8 -5 -18 -13q-11 -10 -22 -18q-9 -7 -14 -14q-7 -7 -14 -15q-7 -9 -14 -16l-9 -13l-15 -20q-9 -11 -13.5 -18t-12.5 -21q-7 -12 -11 -25q-6 -15 -10 -27l-5 -17q-2 -9 -6 -20q-2 -9 -4 -17q-2 -7 -3 -13
q-1 -9 -2.5 -20t-1.5 -25q-1 -16 -1 -26v-42q0 -8 1 -16q2 -12 2 -25q0 -9 0.5 -23.5t2.5 -35.5q2 -22 4 -50q3 -26 6.5 -44t9.5 -36q5 -18 11 -31q5 -12 14 -29t16 -27q7 -11 14 -19l20.5 -22l25.5 -26q14 -13 25 -22q8 -8 14 -12l20 -11l11 -7q11 -6 14.5 -19t-3 -24
t-19.5 -14.5t-24 3.5l-11 7q-12 6 -21 12q-10 6 -23 17l-26 24.5l-28 28t-22 24.5q-10 11 -19 25q-9 13 -19 32q-11 19 -18 35q-6 16 -13 37q-6 20 -10.5 41.5t-6.5 50.5q-3 28 -5 50t-2.5 38t-0.5 27q0 9 -1 17q-2 12 -2 24v42q0 12 1 28q0 17 2 30q1 13 3 22q1 10 4 19
q2 9 5 21q3 9 5 16q2 9 7 22l9 28q6 18 16 35q9 16 15 25t16 22q9 11 13 17q5 8 13 17q7 8 14 17l15 17q9 10 21 20q11 8 22 17q12 10 22 17l19 13l9 5q11 7 23.5 4.5t19.5 -13.5z" />
    <glyph glyph-name="parenright" unicode=")" horiz-adv-x="375" 
d="M64 734q11 7 24 4.5t20 -13.5l10 -15q8 -12 19 -23l30 -31q17 -18 25 -30q7 -10 14 -19q10 -12 19 -28q9 -15 16 -28q6 -12 14 -25q9 -14 16 -31q9 -18 14 -36q3 -14 7 -25q4 -12 9 -28.5t8 -33.5q4 -16 6 -27l4 -26q1 -12 3 -25q2 -15 2 -28q0 -10 1 -23v-33
q-1 -18 -5 -46q-5 -29 -12 -53q-7 -23 -21 -50l-28 -54q-15 -28 -28 -57l-27 -56q-13 -27 -29 -50l-23 -33l-7 -10q-8 -10 -21 -12t-23 5.5t-12 20.5t5 24l8 9q6 10 20 31q14 20 26 43l26 54q14 31 29 60l28 54q11 22 17 40q6 19 9 43q4 25 4.5 39.5t0.5 26.5q-1 16 -1 27
q0 8 -2 19q-2 14 -3 27q-1 12 -3 22l-5 25q-3 14 -7 29l-9 26q-4 13 -8 29q-3 13 -9 25q-7 14 -14 26l-16 27q-6 12 -14 26q-7 12 -14 21q-9 10 -16 22q-6 9 -20 23l-28 29q-16 15 -28 34l-10 15q-7 11 -4.5 23.5t13.5 19.5z" />
    <glyph glyph-name="plus" unicode="+" horiz-adv-x="591" 
d="M50 288q0 13 10 22t23 9l19 -1q20 -1 66 -2q40 -1 74 0q2 28 3 49l4 54q1 26 -1 53q-3 30 -4 46l-2 16q-2 13 6 23.5t21 12t23.5 -7t11.5 -20.5l2 -17q2 -17 5 -47q3 -32 1 -63q-2 -28 -4 -53q-1 -18 -2 -40l10 2q34 6 59 9t53 3q27 1 47 2.5t26 1.5l6 1q13 1 23 -7.5
t11.5 -21t-7 -23t-20.5 -11.5h-7q-7 -1 -28 -2.5t-49 -2.5q-26 0 -48 -3q-23 -2 -55 -8l-25 -4l-2 -27q-1 -39 -2 -86l-2 -48q0 -12 -9.5 -21t-22.5 -9t-22 9.5t-9 22.5l2 48q1 48 2 86q1 10 1 20q-33 -1 -72 0q-46 1 -66 2l-20 1q-12 0 -21 9.5t-9 22.5z" />
    <glyph glyph-name="comma" unicode="," horiz-adv-x="296" 
d="M134 -113q-1 -2 0 -1q2 0 -5 -6l-1.5 -3t-2.5 -4.5t-4.5 -4t-8.5 -5.5l-3 -6q-1 -3 -3 -5zM81 -151q-19 -6 -23 7t1 28l5 16q8 22 17 40q-1 12 7 55q11 61 16 74q1 2 3 4q-2 14 3 20t10.5 4.5t6.5 -0.5zM137 108q7 3 10.5 3.5t10.5 -0.5t14 -1h10l18 2q13 2 19 -11
q8 -5 10 -19q4 -6 5 -11.5t-0.5 -12.5t-3 -11t-6 -13t-5.5 -12q-4 -15 -12 -30q-6 -12 -11 -18q-8 -12 -14 -19q-7 -7 -13 -10q-1 -2 -3 -4q-5 -14 -10 -24q-5 -16 -6 -17zM83 10q-1 4 0 7v7q1 6 1 22q1 16 1 22q0 7 1 17q0 8 1 15q2 22 34 24q16 2 28.5 2.5t28 -0.5
t22.5 -2t17 -3q21 -4 27 -21q4 -12 2 -25l-2.5 -19.5t-1.5 -19.5q-1 -11 -3 -20q-3 -8 -6 -15q-3 -9 -11 -20l-14 -21q-7 -12 -12 -24t-12 -27q-7 -16 -14 -26q-6 -9 -13 -17q-9 -11 -23 -17q-13 -5 -30 -5q-15 0 -27 2q-28 3 -27 51q1 35 5 52q5 16 12 31l14 27zM119 22
q6 -10 1 -19l-7 -14l-14 -25q-5 -12 -9 -25q-3 -12 -4 -42q0 -10 1 -16q8 -1 17 -1q10 0 17 3q5 2 8 6q6 6 11 14t11 21q7 14 12 26q6 14 14 28l16 24q5 7 7 12l4 12l2 12q1 9 2 21.5t3 21.5v4q-11 2 -18 4q-5 1 -17 1q-14 1 -24 0q-12 0 -30 -2v-6q-1 -8 -1 -14
q0 -7 -1 -24q0 -15 -1 -22z" />
    <glyph glyph-name="hyphen" unicode="-" horiz-adv-x="404" 
d="M50 244q0 13 9 22.5t21 9.5l21 1q21 1 71 1h90q42 1 52 1h9q13 0 22 -9.5t9 -22t-9 -22t-22 -9.5h-9q-9 0 -51 -1h-91q-49 0 -69 -1l-20 -1q-13 0 -23 9t-10 22z" />
    <glyph glyph-name="period" unicode="." horiz-adv-x="252" 
d="M55 62q-4 5 -5 8q-3 14 10 21q5 4 11 4h4l8 2q20 5 50 9q29 5 37 6q9 1 17 -4t11 -13q4 -11 4 -30t-4 -40q-2 -9 -3.5 -13.5t-6.5 -11.5t-13 -9l-21 -6q-15 -5 -39 -7q-23 -3 -34 -4q-16 -1 -22.5 11.5t-4.5 25.5q2 14 1 39v12z" />
    <glyph glyph-name="slash" unicode="/" horiz-adv-x="500" 
d="M68 -118.5q-12 5.5 -16.5 17.5t1.5 24l18 40q18 38 43 99q24 62 56 131q32 67 53 123q22 59 50 116t60 105l46 67l14 22q8 10 21 12.5t23.5 -5t13 -20t-5.5 -23.5l-14 -21l-46 -67q-29 -45 -56 -98q-26 -54 -47 -110q-22 -59 -55 -128q-31 -67 -55 -127q-25 -63 -44 -103
l-18 -40q-5 -11 -17.5 -15.5t-24.5 1z" />
    <glyph glyph-name="zero" unicode="0" horiz-adv-x="689" 
d="M50.5 583.5q-1.5 7.5 2 14t10.5 7.5l6 2q1 13 14 16q11 2 18 -8q31 7 91 15q72 10 151 16q79 5 150.5 8t101.5 3q21 0 33.5 -14t10.5 -35q-3 -31 -12 -103q-11 -77 -22 -171q-11 -95 -16 -160q-4 -66 -6 -94.5t-3 -40.5q-1 -25 -36 -33q-24 -6 -81 -7q-55 0 -128.5 5
t-119 13t-58.5 12q-24 7 -26 33q-2 14 -12 69q-11 57 -21 124q-11 67 -16 142q-6 75 -7 130q-1 27 -2 44q-7 -2 -14 1.5t-8.5 11zM591 510q9 71 12 101q1 8 0 9t-8 1q-29 0 -100 -3t-149 -8q-78 -6 -149 -15q-60 -9 -88 -15q1 -18 2 -52q1 -54 7 -128q5 -74 15 -140l21 -122
q11 -57 12 -72l1 -2q11 -4 55 -11q44 -8 115.5 -13t125.5 -5q53 1 73 6q5 1 8 3q1 12 3 38q2 28 6 94q5 67 16 162z" />
    <glyph glyph-name="one" unicode="1" horiz-adv-x="537" 
d="M281 264q-2 -4 -4 -7l-12 -14q-11 -11 -17 -23q-5 -11 -6 -26t5 -31q0 -2 1 -3q13 5 21 18q18 25 41 25q7 0 15 8q23 24 43 11q8 -5 23 -13q4 -3 7 -4q2 3 3 6q4 14 -5 29q-10 16 -28 21q-20 6 -44 2l-27 -4q-10 -2 -16 5zM361 667l-9 3q-7 1 -17 3l-21 2q-23 2 -63 -6
q-39 -7 -64 -21q-26 -15 -46 -34q-18 -18 -29 -41q-11 -25 -17 -42t-8 -31q-2 -12 0 -36q3 -25 7 -47q5 -22 10 -36l12 -27q7 -12 15.5 -22.5t21.5 -20.5q12 -8 22 -10q12 -2 35.5 -1t60.5 13q38 12 77 33q38 21 65.5 56t34.5 59q7 23 -1 58q-8 39 -15 59q-6 18 -15 33
q-11 16 -28 34q-15 14 -28 22zM302 711q7 7 15 6l18 -3q21 -3 40 -13h1v-1q6 -1 10 -6q13 -9 28 -24q20 -20 33 -39q12 -19 20 -42q6 -21 15 -62q10 -44 1 -76q-9 -31 -41 -71.5t-76 -64.5q-14 -8 -28 -14q21 0 41 -5q31 -9 48 -37q17 -29 8 -58q0 -1 -1.5 -6t-2 -6.5
t-2.5 -6t-4 -6.5l-5 -5t-7 -4t-8 -1q-12 0 -31 11q-13 6 -21 12l2 -1q34 -21 25 -70q-7 -38 -20 -66q-5 -12 -8 -20q4 -1 8 -3q23 -7 40 -11q25 -5 40 -30t9 -59q-4 -21 -7 -32q2 -1 3 -2q13 -8 22 -12l10 -5q6 -3 9 -10t-0.5 -13.5t-10.5 -9t-13 0.5l-10 4q-11 6 -26 15
q-25 15 -20 36q2 7 7 34q4 21 -3 34q-8 12 -18 14q-19 4 -42 12q-1 0 -5.5 1.5l-6 2t-5.5 2t-6 3t-5 4t-4.5 5t-2.5 6t-1 7.5q0 12 14 41q10 24 17 58q4 24 -9 32l-18 11q-4 -1 -8 -1t-11 -9q-15 -23 -38 -32q-13 -5 -25 -1q-16 6 -23 25q-9 24 -7.5 47t10.5 40q9 15 22 30
q-14 -3 -26 -3q-28 -2 -44 1q-18 4 -36 18q-17 12 -28 25.5t-20 28.5l-14 31q-6 17 -11 42q-5 24 -8 51q-2 29 1 46q3 15 9 35t18 46q14 29 37 52q23 22 53 39t75 26q33 6 58 6z" />
    <glyph glyph-name="two" unicode="2" horiz-adv-x="746" 
d="M229 264q5 5 12.5 5t12.5 -5l3 -3q6 -5 6 -12.5t-5.5 -13t-13 -5.5t-12.5 6l-3 3q-5 5 -5 12.5t5 12.5zM182.5 147q5.5 5 13 5t12.5 -5l3 -3q5 -6 5 -13.5t-5 -12.5t-12.5 -5t-12.5 5l-3 3q-6 5 -6 13t5.5 13zM428 165q5 5 12.5 5t13.5 -5l3 -3q5 -5 5 -12.5t-5.5 -13
t-13 -5.5t-12.5 6l-3 3q-5 5 -5 12.5t5 12.5zM351.5 337q5.5 5 13 5t12.5 -5l3 -3q5 -5 5 -13t-5 -13t-12.5 -5t-12.5 5l-3 3q-6 6 -6 13.5t5.5 12.5zM287 278.5q5 5.5 12.5 5.5t12.5 -5l3 -3q6 -6 6 -13.5t-5.5 -12.5t-13 -5t-12.5 5l-3 3q-5 5 -5 12.5t5 13zM231.5 178.5
q5.5 5.5 13 5.5t12.5 -6l3 -3q5 -5 5 -12.5t-5 -12.5t-12.5 -5t-12.5 5l-4 3q-5 5 -5 12.5t5.5 13zM295 152q5 5 12.5 5t12.5 -5l3 -3q6 -5 6 -12.5t-5.5 -13t-13 -5.5t-12.5 6l-3 3q-5 5 -5 12.5t5 12.5zM405.5 249.5q5.5 5.5 13 5.5t12.5 -5l3 -3q5 -6 5 -13.5t-5 -12.5
t-12.5 -5t-12.5 5l-3 3q-6 5 -6 12.5t5.5 13zM271 358q5 5 12.5 5t13.5 -5l3 -3q5 -5 5 -12.5t-5.5 -13t-13 -5.5t-12.5 5l-3 3q-5 6 -5 13.5t5 12.5zM338 490l-11 -15l-31 -43q-5 -6 -31 -48t-44 -80q-18 -37 -29 -76q-11 -40 -13 -52q-3 -14 -12 -40t-16 -50q-1 -3 -1 -6
q19 -3 59 -4q43 -1 86 -1q44 -1 91 0q47 2 53 2q7 1 40.5 2.5t44.5 1.5q9 0 23 2q15 3 22 4q3 1 9 1h7l-11 15q-22 29 -54 66q-34 39 -55 71q-20 31 -39.5 66t-37.5 73q-12 23 -21 44q-11 -4 -19 4l-3 3q-5 5 -5 12.5t5 13.5q3 3 7 4q-7 19 -13 29q-1 0 -1 1zM357 651
q-3 -4 -6 -6l-37 -27q-27 -20 -22 -40q5 -21 29 -27q9 -2 16 -2l2 4q8 10 21 6l9 7q26 24 28 41q1 16 -9 33q-7 13 -15 12q-9 0 -16 -1zM313 662q0 15 13 18l11 4q14 4 35 4q29 1 47 -29q17 -27 13 -57q-3 -29 -38 -62q-15 -14 -32 -21l7 -11q10 -16 22 -48q11 -29 29 -65
q18 -38 37 -71.5t39 -64.5q19 -30 51 -66q33 -38 55 -68l29 -37l11 1q21 1 39 -10q24 -15 13 -51q-11 -33 -35 -37q-8 -1 -11 -3q-9 -8 -32 -18q-26 -11 -45 -5q-3 1 -5 0q-11 -8 -34 -17q-27 -10 -43 -3l-5 1l-23 -8q-28 -10 -49 14q-3 4 -5 5q-10 -3 -28 -9q-32 -11 -56 5
q-9 7 -14 8q-7 -2 -26 -13q-32 -18 -73 -9q-35 7 -47 16q-6 -2 -14 -7q-33 -21 -65 -10q-35 13 -34 55q1 40 47 63l19 10q-4 13 1 30q7 25 16 51q8 25 10 36q3 13 15 54q11 42 30 82t46 84t34 52l30 41l14 20q-44 11 -55 53q-11 43 36 78zM151 44q-1 -1 -2 -1l-36 -19
q-27 -13 -27 -32q0 -16 11 -20q14 -5 33 6q10 7 17 10.5t18.5 3.5t19.5 -8q7 -5 32 -10q28 -6 48 5q28 16 42 18q16 0 36 -14q9 -6 24 -1l32 11q20 6 40 -17q5 -6 10 -4q18 6 26 8q13 4 28 -2q5 -1 16 4q19 7 26 12q17 12 37 5q6 -2 20 4q18 8 22 12q10 9 29 12q3 3 6 12
q2 7 2 10q-7 4 -16 4l-15 -2q-3 0 -5 1q-6 -3 -17 -3q-16 1 -25 3h-8q-7 -2 -22 -4q-17 -3 -29 -3q-10 0 -43 -2q-32 -1 -38 -1q-8 -1 -56 -3q-48 -1 -92 0q-43 0 -87 1q-37 1 -57 4z" />
    <glyph glyph-name="three" unicode="3" horiz-adv-x="640" 
d="M50 128q-1 7 4 13t12 7l8 1q1 23 3 46q3 45 4 84q1 40 1 65q1 25 1 35v11q0 7 5.5 12.5t12.5 5.5q4 0 9 -2q3 1 6 1l45 -2q43 -2 109 1q12 1 23 1q-12 6 -21 13q-9 8 -20 26q-10 16 -16 29q-6 14 -10 35q-6 30 15 43q17 11 46 2q27 -8 45 -32q13 -18 22 -34q5 9 11 21
q16 31 30 51q16 22 29 30q19 9 39 -1q18 -9 26 -34q5 -17 1 -37q16 7 30 7q22 1 39 -5q23 -7 29 -22q7 -16 -7 -42q-12 -21 -35 -39l-24 -18h8q29 0 38 -15q7 -12 4 -34q-2 -14 -4 -44q-3 -29 -6 -62q-1 -13 -2 -30q2 -4 1 -9q-1 -3 -2 -5q-1 -18 -3 -37q-3 -48 -3 -60
q0 -13 -1 -33q0 -21 -2 -36q-1 -10 1 -14q0 -6 1.5 -10t-1.5 -7.5t-4.5 -6t-6.5 -4.5l-7.5 -3t-8 -1.5t-7.5 -1t-6.5 -0.5h-4.5q-32 -3 -81 -6l-87 -4v-1q-1 -7 -7 -12t-13 -4q-13 2 -16 15q-33 0 -64 3q-42 5 -71 11t-46 9q-28 5 -40 37q-9 25 -8 71v7l-3 -1q-7 -1 -13 4
t-7 12zM119 371q0 -11 -1 -28q0 -25 -1 -64q0 -12 -1 -24h6q17 -1 45 -1q30 0 54 -3q23 -3 38 -3q17 -1 27 -2q8 -2 15 -2q3 -1 6 -1q3 30 7 58q7 41 12 64l2 7q-26 0 -56 -2q-68 -3 -113 -1zM247 117q-9 1 -22 2q-20 2 -41 3q-20 1 -49 -3q-16 -1 -26 -2v-12q-1 -39 6 -58
q5 -12 12 -13l47 -10q27 -5 68 -10q31 -3 64 -3q1 17 1 41q0 27 -1 58q-3 -2 -7 -2h-37q-10 0 -15 9zM289 144h10q3 0 6 -1q-1 31 0 64q-4 0 -8 1q-7 1 -16 2t-24 2q-16 0 -40 3q-22 3 -50 3q-30 0 -48 1h-4l-2 -26l-2 -40q9 1 20 2q31 4 54 3t43.5 -3t29.5 -3t16 -3l7 -1
q5 -1 8 -4zM440 127q-3 -48 0 -84l1 -25l62 5q7 0 11 1q0 7 1 15q1 13 2 33v32q0 5 1 14q-8 1 -17 3t-18 2q-9 1 -21 1h-13q-5 0 -9 3zM445 204q-1 -19 -3 -46q3 2 7 2h13q13 0 24 -1t22 -3l12 -2v13l2 28q-4 1 -9 2q-11 2 -27 4q-17 2 -30 3h-11zM447 240h11q14 -1 32 -3
t31 -5q2 0 4 -1q1 9 1 17q3 33 6 62q2 31 4 46q1 4 1 8h-7q-19 0 -59 3q-13 1 -27 1q1 -8 1 -24q0 -21 1 -56q1 -24 1 -48zM365 372l-4 -15q-5 -22 -11 -62q-7 -39 -9 -83t0 -83q2 -41 2 -77q0 -23 -1 -39q31 2 63 3l-1 24q-3 41 0 95q4 53 6 86q2 32 0 66q-1 35 -1 57
q0 17 -1 26q-11 1 -23 1q-9 1 -20 1zM486 402q-3 6 -0.5 13.5t8.5 10.5l7 3q5 3 23 17q17 14 25 29l5 10l-6 2q-11 4 -27 3q-13 0 -35 -15l-10 -2.5t-21 -3t-16.5 4.5t3.5 19q6 9 11 27q5 14 2 26q-3 10 -8 12q-4 2 -6 1q-6 -3 -16 -19q-13 -18 -28.5 -47t-20.5 -41
q-1 -2 -3 -4.5t-7.5 -7.5t-10.5 -7t-10.5 0.5t-9.5 11.5q-2 6 -11 23q-7 15 -21 33q-11 15 -27 20q-10 3 -16 2q0 -3 1 -6q4 -17 8 -27q5 -11 14 -25q7 -13 12 -17q6 -5 15 -9q11 -5 22 -12l10 -5q8 -5 9 -14q19 0 36 -1q48 -2 87 -4q6 -1 12 -1z" />
    <glyph glyph-name="four" unicode="4" horiz-adv-x="593" 
d="M167 493q1 -4 0 -8q4 -3 6 -8l4 -10q4 -10 12 -34q7 -19 15 -43q5 2 11 3q34 10 61 14q3 12 7 25q8 31 13 47q5 14 6 20l1 4l-4 2q-15 9 -22 28q-8 20 0 43q8 22 25 33q16 11 47 7q29 -4 47 -20q22 -18 14 -55q-7 -34 -33 -46q-23 -10 -40 -5q-2 -8 -7 -23t-12 -44
l-4 -14q17 0 31 -2q8 -1 15 -3q5 5 10 11l30 31q13 15 20 24l6 8q-11 11 -1 23l9 12q13 18 46 23q34 6 51 -8q22 -18 7 -51q-13 -30 -48 -34q-26 -2 -38 10l-3 -4q-8 -11 -23 -27l-30 -32l-2 -2q24 -15 32 -36q10 -24 0 -42q-3 -7 -9 -15q3 -7 6 -24q4 -18 8 -42l6.5 -53.5
t5.5 -61.5q1 -1 1.5 -7.5t1 -11t-0.5 -11t-3 -11t-6.5 -8t-12.5 -4.5q-5 0 -24 -4l-47 -10t-71.5 -14.5t-89.5 -16.5q-3 -1 -12.5 -2.5t-14 -2.5t-12.5 -1t-12.5 1.5t-9.5 5t-8 9.5q-4 8 -10 19q-5 13 -9 22q-2 9 -9 29l-15 43q-8 24 -10 45t-0.5 38t5.5 30l1 5v9q0 11 4 31
q5 24 22 41q16 15 45 30q11 5 24 10l-15 44l-11 32l-4 10q-1 2 -1 4q-16 -4 -39 -2q-31 3 -44 24q-15 22 7 59q19 33 54 43q37 11 60 -9q25 -22 5 -63q-7 -17 -15 -27zM116 502q4 5 10 7l10 3q5 5 14 23q8 17 3 21q-8 7 -26 1q-21 -5 -33 -26q-9 -16 -8 -22q4 -6 17 -7h13z
M471 497q3 -4 4 -8l2 -10h9q14 2 19 13q3 5 3 8q-5 4 -22 1q-9 -2 -15 -4zM329 529q4 1 8 -1l10 -4q4 -1 15 4q9 4 13 21q3 15 -3 20q-10 8 -28 11q-17 2 -23 -1q-6 -4 -10 -15q-4 -10 -1 -18t7 -10l9 -5q1 0 3 -2zM336 339q-6 4 -7.5 11.5t2.5 13.5l5 8q-12 2 -30 1v-2
l-4 -24q-1 -7 -7 -11.5t-13.5 -3t-12 7.5t-2.5 13l2 16q-20 -3 -44 -10q-5 -2 -10 -3q4 -10 6 -18l6 -16q3 -6 0 -13t-10 -9.5t-14 0.5t-9 10l-6 16q-3 7 -7 18q-10 -4 -19 -8q-24 -12 -35 -23q-10 -10 -12 -23q-4 -17 -4 -24v-1q1 -3 1 -6q6 -1 16 1q13 2 18 5l9 6
q6 4 13.5 2t11 -8.5t2.5 -13.5q24 -1 49 1q34 1 66 9q31 7 47 15q14 7 29 24q17 17 21 27q2 3 -1 11q-4 11 -19 20l-2 2l-11 -16q-4 -6 -11.5 -7.5t-13.5 2.5zM120 223q-9 -1 -15 1q0 -3 -1 -5q-1 -14 1 -31t8 -38l15 -42l10 -30q2 -7 7 -17q3 -7 6 -13q11 0 34 3
q46 8 88.5 16.5l71.5 14.5l47 10q9 2 16 3v16q-3 32 -6.5 60.5l-6.5 52.5q-3 23 -7 39v1q-14 -13 -28 -20q-19 -9 -55 -18q-36 -8 -72.5 -10t-70.5 0l-32 3q-5 0 -10 4z" />
    <glyph glyph-name="five" unicode="5" horiz-adv-x="608" 
d="M87 655h11q24 2 80 6q54 4 106 5l104 2q53 1 92 1h50q9 -1 17.5 -7t9.5 -17q1 -7 1 -37v-64q0 -37 -3 -78q-2 -40 -6 -79l-5 -65t-2 -62q-1 -35 -1.5 -71.5t-1.5 -70.5t-1.5 -68t-1.5 -49q-1 -28 -22 -35q-12 -3 -36 0q-19 2 -44 4t-61 7q-35 4 -76 8q-41 3 -84.5 5.5
t-70.5 4.5q-26 2 -41 2t-24 11.5t-10 26.5q0 22 4 66q4 42 3 84t-5 102q-4 61 -7 112q-3 52 -7 96q-4 46 -4.5 85.5t0.5 67.5l1 27q1 7 6.5 12t12.5 4.5t12.5 -6t4.5 -12.5zM86 618v-37q1 -38 5 -83t7 -96l7 -112t5 -105q1 -44 -3 -88q-4 -41 -4 -61q0 -1 1 -3q16 0 41 -2
q27 -2 70 -4l85 -6q41 -4 77 -8q36 -5 60 -7q26 -2 46 -5q10 -1 17 -1v2q1 15 2 49q0 37 1 68q1 32 1 70q1 39 2 72q0 36 2 64l5 65q4 38 6 78q3 40 3 76v64v25h-42q-39 0 -91 -1l-104 -2t-105 -5t-79 -5z" />
    <glyph glyph-name="six" unicode="6" horiz-adv-x="585" 
d="M92 606v-14q1 -28 2.5 -60t7.5 -81l12 -96q5 -46 11 -108q7 -62 8 -104q2 -43 0 -62q10 -1 28 -3q29 -3 71.5 -6t84.5 -5q43 -2 82 -7q39 -4 67 -8h6v15q-1 15 -0.5 46t4.5 69l9 80q5 43 8 91q4 47 5 78q1 33 1 60q1 28 0 56v40q-7 1 -18 2q-20 2 -64 5q-44 4 -93 9
q-47 5 -99 6q-51 1 -91 -1q-28 -2 -42 -2zM55 635v8q0 8 5.5 13t13 5t12.5 -5t5 -13v-1q15 0 41 2q41 2 94 1t102 -6q48 -5 92 -9q44 -3 65 -5t29 -3q23 -5 21 -34v-41q1 -28 0.5 -56.5t-1.5 -59.5q-1 -33 -5 -81t-8 -91q-5 -49 -9 -81q-4 -36 -4.5 -65.5t0 -44.5t1.5 -25
q2 -32 -47 -27q-28 4 -67 8q-38 5 -80 7t-85 5.5t-73 5.5q-29 3 -38 4q-26 4 -22 39q2 17 1 57q-2 41 -8 102l-12 107t-11 96t-8 82.5t-3 62.5v17q-6 6 -6 12q0 8 5 14z" />
    <glyph glyph-name="seven" unicode="7" horiz-adv-x="627" 
d="M50.5 627.5q0.5 7.5 6 12.5t12.5 4l54 -4q54 -4 118 -3l130 2q66 1 114 -4q47 -5 64 -8q12 -2 21.5 -10.5t6.5 -23.5q-2 -9 -17 -58q-14 -48 -29.5 -120.5t-27.5 -151.5q-11 -78 -17 -141q-6 -64 -10 -100q-2 -15 -4.5 -24t-9.5 -18.5t-18 -12.5q-17 -3 -53 2
q-31 4 -62 6q-37 1 -79 5t-78 10l-41 7q-5 0 -9 1.5t-6.5 5t-4.5 6t-3 7t-1.5 6.5t-1 7t-0.5 6q-4 24 -4 33q0 6 -5 55q-5 50 -5 60q0 7 -8 66q-9 66 -16 125q-8 61 -10 109q-3 48 -2 77l2 28q0 7 5.5 12t13 5t12.5 -6t5 -13l-2 -28q-1 -26 2 -73q2 -47 9 -106l16 -123
q9 -65 9 -74q0 -6 5 -55q5 -51 5 -59q0 -6 4 -28q0 -5 1 -10q12 -1 36 -5q35 -6 76 -10q40 -4 76 -5q33 -2 66 -6q26 -4 38 -3q4 7 6 24q5 36 11 99q6 64 17 143q11 80 27 154t31 123q9 32 14 47q-18 2 -59 7q-46 5 -109 4l-130 -2q-66 -1 -121 3l-54 4q-8 1 -12.5 6.5
t-4 13z" />
    <glyph glyph-name="eight" unicode="8" horiz-adv-x="663" 
d="M121 584q3 -13 6 -34q6 -45 10 -129t2 -163q-3 -79 -9 -156q-4 -59 -3 -78q14 0 49 -2q34 -2 80 -4q47 -2 96 -5q49 -4 82 -9q24 -4 36 -4q2 5 2 14q3 29 4 66q2 39 3 48q1 7 7 61q6 57 10 69q3 10 22 88q18 79 33 133q15 55 25 81q1 3 1 5q-20 3 -62 6q-47 4 -136 6
q-91 1 -158 4q-59 3 -100 3zM50 602.5q0 7.5 5.5 12.5t12.5 5h9q4 6 9 8q14 6 23 -8h3q44 0 111 -3q66 -3 156 -4q91 -2 138.5 -6t68.5 -7q13 -2 21 -12q13 -15 2 -41q-9 -24 -23 -77q-15 -54 -33 -132l-22 -91q-3 -8 -9 -61q-6 -56 -7 -64q-1 -7 -3 -43q-1 -39 -4 -68
q-4 -44 -30 -47q-15 -1 -49 4q-32 6 -80 9t-94 5q-47 2 -81 4t-47 2q-25 0 -33 21q-2 3 -2.5 6t-1 7t-0.5 7.5v9v9.5t0.5 12t1 13l1.5 15t1 16q6 77 9 155q2 78 -2 161q-3 82 -10 124q-4 27 -7 40h-16q-7 0 -12.5 5.5t-5.5 13z" />
    <glyph glyph-name="nine" unicode="9" horiz-adv-x="611" 
d="M120 572v-3q4 -40 7 -106q3 -67 -5 -153l-13 -157q-6 -71 -9 -112q-1 -25 7 -27q22 -5 72 -13t103 -11.5t96 -4.5q36 0 46 1q2 2 4 7q6 15 22 67q16 51 33 132q16 82 20 153q4 73 12 133q9 58 11 93q0 13 -1.5 15.5t-8.5 2.5q-28 1 -115.5 -1t-165.5 -7q-72 -5 -115 -9z
M50.5 585.5q-0.5 7.5 4 13t12.5 6.5l13 1q-1 7 -2 12l-3 14q-1 7 3.5 13.5t11.5 8t13 -3t8 -11.5l2 -15q1 -6 3 -16q44 4 117 8q78 6 166.5 8t117.5 1q23 0 34.5 -16t10.5 -40q-2 -37 -11 -96q-8 -58 -12 -130q-4 -74 -21 -158q-17 -83 -34 -136q-16 -53 -22 -69
q-10 -23 -27 -28q-12 -4 -57 -3t-99 5t-105.5 12t-74.5 13q-38 9 -34 64q2 41 8 113l13 157q8 84 5 148q-3 65 -7 104v5l-15 -1q-7 -1 -12.5 4t-6 12.5z" />
    <glyph glyph-name="colon" unicode=":" horiz-adv-x="167" 
d="M60.5 77q9.5 9 22.5 9t22 -9l3 -3q9 -9 9 -22t-9 -22.5t-22 -9.5t-23 9l-3 4q-9 9 -9 22t9.5 22zM59 440q9 9 22.5 9t22.5 -9l3 -3q9 -9 9 -22t-9 -22.5t-22.5 -9.5t-22.5 9l-3 3q-9 10 -9 23t9 22z" />
    <glyph glyph-name="semicolon" unicode=";" horiz-adv-x="206" 
d="M118 121.5q13 1.5 23.5 -6.5t12.5 -20l1 -10q1 -13 1 -45q-1 -35 -12 -68q-4 -15 -6.5 -20.5t-9.5 -15.5t-16 -15l-10 -6q-11 -6 -23.5 -2.5t-19 14.5t-3 24t14.5 19l6 4q3 5 7 17q8 24 9 50q0 28 -1 35l-1 10q-2 13 6 23.5t21 12zM59 429.5q9 9.5 22.5 9.5t22.5 -10
l3 -3q9 -9 9 -22t-9 -22t-22.5 -9t-22.5 9l-3 3q-9 9 -9 22t9 22.5z" />
    <glyph glyph-name="equal" unicode="=" horiz-adv-x="511" 
d="M73 227.5q2 12.5 13 20.5t23 5l39 -6q36 -6 79 -9t78 -4t47 -2l12 -1q13 0 22 -10t8 -23t-10.5 -21.5t-22.5 -7.5h-12q-12 1 -46 2q-36 1 -80 4q-46 3 -86 10l-38 6q-13 3 -20.5 13.5t-5.5 23zM50 377.5q-1 12.5 7 23t21 11.5l33 3l65 8q33 3 77 11q46 8 79 11q30 2 55 2
q23 1 31 1l10 1q12 1 22 -7.5t11 -21.5t-7.5 -23t-21.5 -11h-9q-10 -1 -34 -2q-24 0 -53 -2t-70 -9q-48 -9 -83 -13q-33 -4 -66 -7l-32 -4q-13 -1 -23.5 7.5t-11.5 21z" />
    <glyph glyph-name="question" unicode="?" horiz-adv-x="453" 
d="M218.5 150q-12.5 -1 -22.5 7.5t-11 21.5l-1 9q-1 9 -1 17t1 17t3 23t7 26q6 18 20 29q7 6 14 11q8 5 15 10q9 5 17 10q8 4 17 9q5 2 12 8q8 8 14 15q5 7 13 22q8 16 12 27q5 13 9 25q2 8 3 20q1 11 0 18q-1 8 -5 18q-4 12 -11 26q-5 13 -9 19q-4 5 -10 11q-7 6 -18 14
q-9 6 -21 11t-27 8q-13 3 -29 2q-19 -1 -32 -4q-12 -2 -23 -9q-12 -6 -20 -15q-7 -7 -9 -12q-3 -10 -8 -36l-6 -29q-2 -12 -13 -19.5t-23.5 -5.5t-20 13t-4.5 24l5 28q5 31 10 45q6 18 23 36q15 16 36 27q19 11 40 15q18 4 40 5q25 2 48 -3q20 -5 37 -12q18 -7 33 -17
q14 -10 25 -20t19 -21q7 -12 15 -30q7 -16 12 -29q6 -15 8 -29q3 -15 1 -35q-1 -19 -7 -34q-4 -12 -8 -26q-6 -15 -16 -35q-11 -20 -20 -32q-8 -11 -20 -22q-13 -12 -27 -19q-8 -4 -15 -8q-6 -3 -13 -7q-6 -4 -12 -9q-6 -3 -12 -8v-1q-2 -6 -4 -16t-2.5 -16.5t-0.5 -12.5
q0 -5 1 -12l1 -9q0 -13 -8.5 -23t-21 -11zM186 77q9 9 22 9t22 -9l3 -3q10 -9 10 -22t-9.5 -22.5t-22.5 -9.5t-22 9l-3 4q-9 9 -9 22t9 22z" />
    <glyph glyph-name="at" unicode="@" horiz-adv-x="815" 
d="M492 339q-8 8 -13 11q-6 3 -20 1q-20 -3 -38 -11q-19 -9 -39 -24q-21 -16 -35 -29q-12 -11 -22 -29q-13 -21 -22 -44q-9 -22 -11 -41t3 -47q6 -30 15 -48q6 -12 11.5 -15t21.5 -1q19 2 48 19q27 15 41 40q6 10 11 20q9 18 17 37q1 10 1 20q3 52 16 101q9 29 15 40z
M523 165q0 -25 2 -43q3 -31 4 -53q1 -16 6 -29q4 -11 10 -18q4 -4 7 -5q5 -1 18 4q15 5 33 20q21 18 36 36q14 15 25 46q12 33 22 75t15 87q4 43 -2 73q-6 32 -18 60q-11 27 -26 46q-17 21 -33 37q-15 15 -36 30q-20 15 -51 28t-56 16q-25 4 -55 1t-63 -14t-61 -30
q-30 -20 -59 -50q-30 -32 -57 -70.5t-43 -74.5q-17 -35 -22 -62q-5 -29 -6 -70t3 -84q4 -41 16 -79t34 -78q21 -39 52 -69q31 -31 60 -48q28 -16 59 -21q29 -6 62 3q37 10 44 13l10 4q11 5 23.5 0.5t17.5 -16.5t0 -24.5t-17 -17.5l-9 -4q-12 -5 -53 -16q-46 -12 -90 -4
q-41 7 -78 29q-36 20 -73 57q-38 37 -63 84q-25 45 -39 89t-18 92q-5 47 -4 91q1 46 7 80q7 36 26 78q19 40 49 83.5t63 77.5q34 36 70 59q36 25 76 38t77 16q37 4 70 0q33 -5 71 -21t63 -34q26 -18 45 -37q18 -19 37 -43q21 -25 35 -60q15 -35 22 -73q8 -39 3 -91
q-5 -50 -16 -96q-11 -45 -25 -82q-15 -41 -36 -65q-19 -22 -43 -43q-27 -23 -53 -32q-29 -10 -51 -6q-24 5 -42 25q-15 16 -23 39q-6 20 -8 43q-19 -21 -44 -36q-40 -23 -72 -27q-36 -4 -59.5 8.5t-38.5 43.5q-12 25 -20 62q-7 38 -4 67q3 28 15 58q12 27 26 52q16 26 34 43
q17 15 40 33q25 19 51 31t54 16q35 6 60 -8q22 -12 44 -40l17 -23q8 -10 6.5 -23t-11.5 -21q-3 -3 -7 -4q0 -8 -2 -18q-2 -17 -11 -46q-8 -28 -22 -65z" />
    <glyph glyph-name="A" unicode="A" horiz-adv-x="703" 
d="M348 332q3 -6 1 -13.5t-9 -10.5l-4 -2q-7 -15 -9 -21l-6 -14q-2 -5 -9 -9l22 -3q29 -3 41 0q6 1 8 3q2 8 3 29q0 30 -4 55q-5 23 -10 37q-12 -19 -24 -49q0 -1 -1 -1q1 0 1 -1zM249 531q0 12 11 17q1 11 -1 20q-3 9 -2 25t14 23q7 3 31 18q26 15 49 23q23 7 39 7
q24 0 33 -18l9 -16q4 -9 10 -21q7 -12 11.5 -23t8.5 -22l9 -26l11 -32l10 -32l11 -29.5l12 -34.5q7 -18 13.5 -39l15 -47.5t19.5 -57.5l19 -54l18 -56q10 -28 21 -55q10 -29 15 -56h3q7 -1 11 -7.5t3 -13.5q-2 -11 -13 -14q1 -8 0 -15q-2 -33 -28 -36q-11 -1 -31 -5t-30 -5
q-20 -3 -33 14q-7 10 -16 26l-17 35q-8 19 -15 33l-22 43q-9 18 -14 24q-3 1 -8 1h-25q-13 0 -52 -3t-59 -9q-15 -5 -25 -24q-13 -26 -21 -44q-8 -19 -21 -42q-14 -22 -21 -30q-10 -11 -23 -14q-7 -1 -15 -3q-9 -2 -29 -5q-20 -4 -44 -5h-22q-8 0 -13.5 5t-5.5 12
q0 12 10 17q-2 8 2 15l6 9q5 8 13 28q8 21 19 58q12 39 24 73.5t29 77.5l38 93t36 92t26 82q1 5 3 10q-7 5 -7 13zM296 262q-12 5 -10 18q-21 -11 -41 -20q-13 -6 -23 -12l1 -1q21 -14 52 -18q35 -5 66 -7l54 -5l43 -4q21 -3 35 -4q15 -2 28 -3t23 -4q9 -1 17 -3q4 0 8 -1
q-1 2 -1 3l-19 53q-11 31 -20 59q-8 27 -15 47q-1 4 -2 7l-8 -7q-19 -19 -26 -25l-6 -7q-6 -5 -13.5 -5t-12.5 5.5t-5 13t5 12.5l7 7q7 6 27 25v1h-38h-14q5 -14 9 -34q6 -29 5 -63q-1 -38 -9 -49q-8 -12 -30 -17q-18 -4 -52 0l-31 3q-8 1 -12.5 6.5t-3.5 13.5q1 11 12 15z
M97 -17q18 1 32 3q19 3 27 5q9 2 16 4q2 0 3 2q5 5 17 25q2 4 5 8q-6 0 -10 2l-7 3q-6 4 -23 12q-15 7 -27 19q-8 -29 -16 -47q-9 -24 -16 -35zM157 90q7 -7 16 -11q16 -8 23 -11l7 -4q5 -2 7 -7q1 1 1 2q8 19 22 46q3 6 6 11q-4 -1 -7 -2q-28 -8 -55 -17q-12 -5 -20 -7z
M392 423h30h43q4 0 8 -2q-2 5 -4 11l-11 31l-11 32q-6 18 -10 32l-8.5 24t-8 20.5t-10.5 22l-10 19.5q-4 7 -8 15h-2q-10 0 -28 -6q-19 -6 -41 -19l-28 -16q1 -6 2 -13q2 -11 1 -24h13q42 1 78 -2q24 -2 33 -11q7 -6 7.5 -14t-3 -14t-6.5 -9q-17 -16 -70 -47l-44 -26
q30 -2 54 -3q20 19 34 -1zM334 389q-20 1 -45 3q-27 1 -34 5l-30 -77q-9 -19 -16 -38q9 6 21 11q20 9 42 21q21 11 36 18q3 8 7 16q10 24 19 41zM149 125q7 2 16 5q28 11 57 19q30 8 63 13q33 6 68 9l72 6h5q-19 3 -38 4l-54 5t-68 7q-40 6 -67 25q-9 5 -15 14l-2 -4
q-17 -42 -28 -76q-5 -13 -9 -27zM274 451q21 13 56 33q28 17 46 29q-31 1 -67 1h-17q-2 -7 -4 -15q-6 -24 -14 -48zM557 171q-7 -5 -18 -10t-17.5 -7.5l-6.5 -2.5q-27 -4 -50 -6q4 -6 16 -29l18 -38q8 3 15 0l7 -3q6 -3 24 -9t32 -10l21 -4q-4 18 -11 36q-11 28 -21 57z
M604 14q-1 0 -2 1q-18 2 -34 6.5t-34 10.5l-15 5q8 -18 15 -31.5t13 -20.5q0 -1 28 4q17 4 29 5v3q1 8 0 17z" />
    <glyph glyph-name="B" unicode="B" horiz-adv-x="636" 
d="M206 529q-1 -9 -3 -31q-2 -21 0 -40q2 -17 13 -36q9 -16 29 -22q24 -8 48.5 -8.5t50.5 6.5q23 7 35 18q10 10 10 15q1 7 -3 17q-4 12 -10 21t-15 19q-9 9 -21 17q-13 7 -30 14q-17 6 -42 10q-27 3 -46 2q-8 0 -16 -2zM168 512q-14 -2 -20 10q-3 6 -0.5 13t8.5 11l12 6
l-62 15l-15 4v-18l-2 -74q0 -30 -1 -70q2 3 5 6q8 7 27 25q20 19 32 29l11 10q1 1 3 2q0 10 1 20q0 6 1 11zM85 645q7 2 16 4q15 3 29 4q12 0 28 1q15 1 29.5 1.5t30.5 1.5q15 0 28 2q14 1 31 3l43 5q27 2 44 2q19 0 30 -4l24 -11q15 -8 34.5 -20.5t27.5 -19.5q10 -8 18 -24
l15 -30q11 -21 16 -41q2 -6 3 -13q8 -3 14 -6q10 -6 11.5 -18.5t-5.5 -20.5q-5 -5 -12 -10q1 -1 1 -3q0 -23 -6.5 -46t-18.5 -39t-27 -27l-8 -6h1q22 -5 12 -17q2 -1 2 -2q16 -15 30 -30q15 -16 27 -33q13 -19 21 -41t11 -42.5t2 -35.5q-1 -17 -9 -40q-8 -22 -18 -37
q-9 -15 -18 -24q-9 -11 -26 -18q-15 -7 -40 -12q-23 -4 -59 -12q-37 -8 -74.5 -14t-69.5 -9t-67.5 -5t-67.5 -2q-10 -1 -18 -1l-23 -2q-8 -1 -14 4q-33 4 -32 59q0 40 4 82q3 42 2 88q-2 45 -4 101q-2 55 -1 105q1 49 1 88q1 40 2 73v30q-7 8 -4 18q1 4 4 8v15l-1 7
q-1 7 4 13t12 7q9 1 15 -6zM164 355l-46 15t-30 19q-1 -35 0 -74l24 14q22 13 52 26zM101 251q-5 2 -11 5q1 -8 1 -16q0 1 1 1q4 5 9 10zM141 236q-11 -8 -18 -14l2 -2l24 -18q10 -6 22 -16l10 -8q1 24 2 45q-22 6 -42 13zM137 275q23 13 57 23q42 12 76 11q30 -1 67 0
q8 0 18 1q-21 3 -48 9q-38 9 -67 15q-11 2 -21 5l-15 -6q-45 -19 -74 -35q-11 -6 -19 -12q12 -6 26 -11zM442 499l-2 -2l-12 -10q-9 -7 -19 -2q6 -11 11 -25q5 -12 5 -24l9 4q2 1 5 2l17 8q18 7 34 15q7 3 13 6l-2 8v1l-40 13q-9 3 -19 6zM400 509q-6 1 -12 3q6 -7 10 -13
q0 6 2 10zM462 413q-2 -2 -4 -3l-23 -9q-10 -4 -19 4q-4 -7 -12 -15q-18 -17 -51 -27q-23 -6 -45 -7q3 -1 7 -2q37 -8 62 -10q27 -2 46 -3l16 -2q2 7 8 11l21 15q11 8 19 19t13 28q3 10 4 20q-17 -9 -34 -16zM426 540l17 47q1 4 4 7l-14 9q-18 12 -31 18q-14 7 -22 10
q-4 2 -16 2q-15 0 -40 -2l-43 -5t-31 -3q-14 -2 -31 -2q-16 -1 -30.5 -1.5t-29.5 -1.5t-27 -1q-12 -1 -24 -3q-11 -2 -17 -4v-2l24 -6q42 -11 94 -21.5t99 -17.5t88 -16q15 -3 30 -7zM471 528v-1h1q11 -3 19 -6q-3 10 -8 20l-9 -10zM184 103q-4 -4 -20 -19l-24 -22
q15 -1 32 -2q28 -1 45 -2q-10 6 -17 14q-11 13 -16 31zM258 44q1 -3 1 -6q0 -7 -5.5 -12t-13.5 -5l-17 1q-17 0 -53 2q-35 2 -57 3q-17 -1 -26 7v-19q-1 -16 3 -23q11 0 27 -1l1 1q25 3 66 12l86 19t74.5 19t59.5 20l53 22l46 19q17 6 34 16q-5 3 -11 7q-16 11 -35 27
q-17 14 -28 22q-2 -7 -5 -15q-7 -21 -22 -42q-17 -23 -35 -33q-16 -9 -45 -23q-31 -14 -55 -18q-6 -1 -13 -1t-16 0.5t-14 0.5zM467 216q2 -1 5 -3l12 -8q12 -9 30 -25q17 -14 32 -24q2 -2 4 -3q-1 3 -1 6q-2 17 -9 36q-7 18 -16 32l-10 14q-1 -6 -5 -11q-6 -5 -13.5 -5
t-12.5 5l-3 3q-5 6 -5 13.5t5 12.5t13 5l-22 21q-4 5 -9 9q-21 -10 -28 -11q-58 -9 -96 -10q-25 -1 -48 -1h44h44q18 0 26 -1q9 0 18 -2.5t18 -7.5q15 -7 22 -29q3 -8 5 -16zM286 273h-18h-15h21h12zM263 237q5 -7 3 -15q-1 -7 -7.5 -11t-13.5 -2l-12 2q-6 2 -14 4l-2 -42
q-2 -28 0 -50q2 -17 10.5 -27.5t27.5 -14.5q21 -5 39 -2q21 4 47 16q28 13 42 21q12 7 23 23q13 17 18 33q6 17 7 28q1 8 -3 20q-2 7 -4 9q-7 3 -12 4q-5 2 -11 3h-23h-44q-27 0 -61 1h-10zM171 438q-10 -10 -26 -24q-7 -7 -12 -11l54 -18q10 -3 19 -5q-13 10 -21 24
q-10 17 -14 34zM533 76q-8 -4 -17 -7q-22 -8 -45.5 -18l-53.5 -22q-19 -8 -39 -14l31 6l60 13q21 4 32 9q10 4 15 9q6 7 14 19q2 3 3 5zM89 65l5 5q13 9 45 40q22 21 31 31l-23 18q-9 8 -17 12q-9 6 -27 21q-6 5 -11 11q0 -8 1 -16q1 -48 -2 -91q-2 -16 -2 -31z" />
    <glyph glyph-name="C" unicode="C" horiz-adv-x="700" 
d="M490 405q1 -3 2 -5l3 -10q2 -7 -1 -13.5t-10 -9t-14 1t-9 10.5l-3 10q-2 4 -4 10l-7 22q-7 21 -18 39q-10 17 -28.5 31.5t-35.5 20.5q-15 4 -29 1q-15 -4 -27 -14q-14 -11 -29 -35q-15 -25 -26 -55q-10 -29 -11 -63q-2 -34 1 -61q3 -26 14 -54q12 -28 26 -54
q14 -23 32 -38q19 -15 42 -21t45 -1q24 5 37.5 14t18.5 17q7 10 19 40q6 14 9.5 21t12 14.5t18.5 8.5q11 0 33 4q25 4 39 6q17 1 29 -1q22 -5 28 -32q3 -18 3 -33q0 -16 -7.5 -39.5t-21.5 -45.5q-5 -7 -10 -13q-2 -6 -7 -11q-4 -4 -11 -9l-2 -2q-15 -15 -29 -27
q-16 -13 -31 -21l-30 -18l-32 -16q-13 -6 -29 -12t-33 -11q-18 -5 -35 -6q-16 -2 -33 -2q-18 0 -38 3t-42 10t-37 16q-16 9 -32 22.5t-33 32t-31 41t-25 48.5q-11 24 -21 53q-11 30 -18 66q-7 35 -10 66.5t-2 59.5t5 53q4 26 16.5 52t32.5 48q17 19 43 40q1 19 29 22
q15 12 28 20q24 14 49 27t46 19.5t55 11.5t55 5q20 0 36 -3q15 -3 26 -7q13 -4 28 -13q14 -8 26 -16q12 -9 25 -23l21 -24t18 -24q9 -12 13 -20q5 -9 11 -29q6 -21 4 -50q-1 -18 -9.5 -31t-25.5 -13q-17 -1 -46 -4l-30 -3q-9 -2 -16 6zM484 423q1 -2 2 -6q0 3 1 5q-1 0 -3 1
zM474 451l25 33q18 24 30 38l-33 -6q-26 -6 -40 -10q-8 -1 -14 -3q11 -12 18 -25q8 -13 14 -27zM403 533q0 6 1 18q1 21 1 37l-18 -26q-6 -10 -11 -16h1q13 -5 26 -13zM295 534q-12 2 -26 4q-37 5 -70 4l-8 -1l9 -11q18 -24 30 -35q11 -10 17 -17q1 3 3 5q18 29 36 44z
M216 407l-6 -3t-5 -2l-61 -33h-2q17 -5 32 -9q19 -6 33 -12q1 31 9 59zM210 272l-20 -26l-33 -40q5 0 10 -1l46 -4q12 -2 20 -3l-8 20q-11 27 -15 54zM265 141q-6 -25 -23 -53q-3 -6 -7 -11q17 6 36 12l36 12q-7 5 -13 10q-16 12 -29 30zM377 79q9 -20 15 -42q1 3 3 6
q9 23 17 39l-1 -1q-17 -3 -34 -2zM470 108q4 -5 8 -11q15 -21 29 -33q7 -7 12 -9q8 3 28 16l23 15l2 2q-10 11 -31 18q-24 8 -35 10q-14 2 -18 10q-7 -9 -18 -18zM505 159l9 2q25 8 55 21l30 12q7 3 14 0l-2 8q0 2 -1 4q-7 1 -16 0q-13 -1 -41 -6q-18 -3 -30 -4
q-5 -6 -11 -21zM612 161l-30 -13l-25 -10q23 -8 37 -21q10 14 15 30q2 7 3 14zM494 28q-4 3 -11 9q-17 14 -34 39q-9 -18 -21 -47q-13 -30 -18 -39q9 2 17 6q15 5 28 11q12 6 28 15q6 3 11 6zM371 -19q-2 2 -3 6q-3 9 -9 35q-6 25 -17 45q-2 5 -5 7q-18 -7 -55 -19
q-36 -12 -58 -20q-13 -6 -19 -6q4 -4 8 -7q14 -12 26 -19q13 -7 31 -13q19 -6 36 -8q17 -3 33 -3q15 0 30 1q1 0 2 1zM182 52q1 5 4 12q7 13 25 42q16 27 20 47q1 5 1 8q-9 2 -23 4q-23 3 -45 5q-23 2 -35 5q-9 2 -13.5 11t-2.5 18q3 9 12 21q16 18 37 44q20 24 30 42
q1 1 2 3q-13 6 -31 11q-21 7 -47 13q-18 5 -30 18q0 -25 2 -52q3 -29 9 -62t16 -60l21 -52q10 -23 23 -43q11 -19 25 -35zM87 379l6 4q9 6 34 18l61 33q24 12 33 20l-15 15q-15 13 -35 39q-1 1 -3 3.5l-3.5 4.5t-2.5 4q-19 -16 -32 -30q-16 -18 -26 -39.5t-13 -42.5
q-3 -14 -4 -29zM243 577q15 -1 32 -4q41 -6 60 -11q4 -2 7 -2q6 7 15 22q11 17 27 39q-11 -1 -25 -3q-32 -4 -49.5 -9.5t-40.5 -17.5zM438 620q1 -2 1 -6.5t1 -6.5q2 -21 0 -58q0 -5 -1 -10q5 1 9 2q14 4 40 10q24 5 48 8q-6 6 -13 14q-10 11 -19 17q-10 8 -24 16
q-11 6 -19 9q-9 3 -23 5zM570 513q-3 -3 -6 -7q-12 -12 -36 -44l-21 -27l25 3q30 3 48 4q1 3 1 10q1 23 -3 38q-5 16 -8 21v2z" />
    <glyph glyph-name="D" unicode="D" horiz-adv-x="672" 
d="M69 -2q-1 8 -1 21v34q0 18 2 34q1 16 3 32q2 14 2 22v8q-8 5 -14 10q-29 23 15 45q-1 20 -3 43q-2 27 -3 62q-2 34 -3 64t-3 60l-2 59q0 28 -3 52q-3 27 0 51q4 34 28 42q14 5 40 11l57 14q33 7 72 11q40 4 72.5 1.5t62.5 -11.5q29 -8 57 -17q30 -10 49 -26t33 -40
l24 -44q12 -24 22 -49q11 -26 18 -59q1 -4 1 -9l15 -9q27 -18 -5 -41q5 -27 7 -46q3 -21 2 -40q0 -18 -2 -37q-2 -20 -4.5 -29.5t-7.5 -23t-16 -32.5q-11 -18 -23 -34.5t-23 -29.5t-26.5 -29.5t-29.5 -28.5q-14 -13 -28.5 -23.5t-27.5 -17.5q-14 -8 -26 -13q-12 -4 -33 -7
q-18 -3 -57 -8q-40 -4 -84 -6q-43 -1 -81 -2h-55l-16 1q-8 0 -13 5.5t-4 13.5q0 11 12 16zM231 524q1 -3 1 -6q3 -17 5 -41.5t3 -51.5v-58t-1 -61l-3 -61l-2 -60q0 -31 -4 -63q-1 -17 -2 -27h5q7 -1 12 0q6 1 17 4q9 2 22 7q16 5 33 9t34 12q15 7 24 16q10 10 21 27
q11 16 20 35t15 40q7 22 13 45q3 16 5 29q-5 9 1 19q1 16 0 31q0 17 -2 33q-2 17 -4 32q-2 12 -6 22.5t-11 19.5q-6 8 -14 13q-9 6 -18 10l-25 8q-14 4 -42 8t-46 5q-19 1 -31 2q-9 0 -20 2zM191 539l-1 1l-8 7q-3 3 -5 8q-9 3 -19 7q-6 2 -13 3q20 -16 44 -31q2 -1 4 -3
q-1 3 -1 5zM104 52l2 2q7 6 14 11q22 17 43 31l10 6q-8 5 -18 9l-44 21q-1 -8 -2 -18q-2 -15 -3 -30q-2 -14 -2 -31v-1zM113 180v-9v-1q24 -10 58 -26q2 -2 11 -6t13 -6q3 28 3 54l2 44q-6 -20 -36 -32q-24 -9 -51 -18zM111 217l39 15q11 4 15 8q-3 10 -16 23q-19 17 -33 28
q-6 4 -10 8q1 -27 3 -49zM104 361q3 2 6 3q23 13 39 21q15 8 29 17l-30 18q-20 10 -38 24q-6 4 -10 8v-18q2 -28 3 -60q0 -7 1 -13zM98 500q11 2 38 3q19 1 32 1q-28 19 -51 38q-14 12 -23 19q0 -6 1 -13q2 -23 3 -48zM113 608q26 -3 56 -12t54 -18q10 -4 13 -1q8 14 12 24
q5 13 9 27q2 5 4 9h-1q-37 -3 -68 -10l-57 -14q-12 -3 -22 -5zM315 639q1 -1 1 -2l23 -45q8 -16 15 -27q17 18 37 35q15 11 27 18q-18 6 -36 11q-27 7 -56 10h-11zM470 595q-3 -8 -7 -21q-4 -15 -5 -27q-1 -6 -1 -11q10 -1 30 -2q16 -1 28 -2q-8 15 -17 30q-10 18 -24 30
q-2 1 -4 3zM544 471q-5 -4 -12 -7q-2 -1 -5 -3l25 -15zM565 387l-2 10l-10 6l-49 29q-3 3 -8 6.5t-12.5 11.5t-7 16.5t12.5 14.5q8 5 26 14q-13 2 -31 3q-22 2 -31 3q1 -2 3 -4q9 -12 15 -26.5t9 -31.5q2 -15 4 -32q2 -18 2 -37q1 -7 1 -15q22 8 59 24q11 4 19 8zM572 351
q-2 -1 -11 -5q-29 -13 -49 -20q2 -2 4 -2q22 -11 36 -22l21 -17l5 -5v4q1 17 -1 34q-2 14 -5 33zM574 236l-12 -4l-48 -4h-14l23 -44l15 -28l15 23q9 17 13.5 27.5t5.5 17.5q1 4 2 12zM505 113q-8 3 -18 8l-29 13l-3 1q1 -23 3 -40l5 -25l23 22zM434 46l-17 7l-38 26l-4 3
q-1 -9 -1 -16q-3 -30 -3 -36q0 -7 -1 -16q11 2 18 5q9 4 20 10q12 7 25 16zM324 8q-8 10 -18 21q-11 14 -21 20q-6 5 -10 5q-3 -2 -6 -7q-11 -15 -28 -36q-6 -7 -10 -11q39 2 74 6q10 1 19 2zM199 -1q-8 7 -10 18q-1 6 -2 11q-2 -1 -4 -3l-28 -21q-4 -3 -7 -6q24 1 51 1z
M201 470q-3 -1 -12 -1q-20 -1 -49 -2q12 -9 25 -16q19 -10 38 -22h1q-1 22 -3 41zM204 376q-2 -1 -10 -6q-12 -8 -28 -16.5l-40 -20.5l-2 -2q6 -5 14 -11q16 -13 35 -31q23 -22 27 -43v1l3 61q1 30 1 59v9zM221 59q2 -4 1 -9v-5l10 14h-2h-9zM310 76q11 -9 24 -23q1 -2 2 -3
q1 8 2 19t1 15q-6 -2 -13 -4zM394 112q2 -1 5 -3q10 -6 23 -16q-3 20 -3 44v3q-9 -13 -18 -22q-3 -3 -7 -6zM443 178q3 0 8 -2q8 -3 22 -9q11 -5 25 -12l-6 12l-25 45q-2 5 -5 11q-6 -17 -14 -33q-2 -6 -5 -12zM474 263q3 1 7 0q9 0 31 1q12 1 26 2q-4 4 -9 8q-10 8 -29 17
q-9 5 -18 9q-1 -9 -3 -17q-2 -10 -5 -20zM421 526v3q0 7 1 21q2 15 6 32l-15 -11q-18 -14 -32 -30q16 -5 27 -9q6 -2 13 -6zM319 552l-12 23l-18 35q-3 -11 -7 -21q-6 -15 -16 -31q0 -1 -1 -1q9 0 19 -1q15 -1 35 -4z" />
    <glyph glyph-name="E" unicode="E" horiz-adv-x="570" 
d="M218 254v-2q1 -13 1.5 -37t1.5 -51q0 -25 7 -52q1 -8 3 -14q9 1 23 2q24 3 48 3q22 -1 46 -1h58q34 0 55 -2q31 -2 38 -19q2 -7 6 -16q4 -13 3 -38q-3 -39 -29 -39q-10 0 -27 -1q-18 -2 -36 -2q-18 -1 -41 0h-44q-23 -1 -50 -2h-56t-58.5 2.5t-62.5 8.5q-1 0 -10.5 1
t-13.5 2t-11 4t-10 8.5t-3 13.5q0 7 1 21q0 15 3 32q1 15 3 36q2 20 3 44q1 23 -1 43q-1 21 -2 38q-2 17 -3 36t-1 43q1 23 0 54q0 31 -2 61q-1 30 -2.5 57.5t-2.5 51.5q-3 26 -2 52q1 38 34 45q13 3 27 5q5 21 24 15q6 -2 24 -9q24 2 54 3l86 4q43 1 73.5 1t74.5 -1h13
t13 -0.5l11.5 -1.5t11.5 -3t8.5 -6.5t6.5 -10.5q2 -8 6 -19q4 -13 3 -28q0 -14 -10 -21.5t-23 -8.5l-37.5 -2.5t-59.5 -6.5t-71 -8q-33 -3 -63 -5q-16 -1 -26 -2q11 -20 -14 -33q1 -5 2 -11q5 -20 4 -42v-19q5 -10 0 -22q1 -3 1 -7q0 -9 2 -14q13 -1 33 0q24 0 59 2
q36 2 74 0q41 -3 52 -10q13 -8 18 -22q4 -11 8 -30q4 -22 1 -33q-6 -21 -30 -23q-11 0 -30 -1.5t-42.5 -4t-54 -5t-65.5 -3.5h-30zM182 251q-14 0 -39 -6q-1 0 -3 -1q7 -7 19 -17l25 -20q0 4 -1 7q0 24 -1 36v1zM186 142q-4 -2 -9 -4l-32 -14q8 -4 15 -6q18 -5 30 -10
q1 -1 2 -1q-4 18 -6 35zM198 82q-5 -5 -12.5 -9.5t-12.5 -6.5l-5 -2q-20 -4 -34 -9q19 -3 41 -3q32 1 58 7q10 2 18 5q-18 -2 -25 -3q-20 -1 -28 21zM311 66q2 -10 4 -17q8 0 23 9l13 8h-3h-37zM398 66q5 -9 5 -16q-1 -9 2 -21q12 4 32 22l15 14q-18 1 -46 1h-8zM472 35
l-11 -10q0 -1 -1 -2q6 1 11 1q1 3 1 5v6zM370 21q-2 6 -2 13q-6 -3 -12 -7q-6 -3 -11 -6h25zM292 20q-9 6 -12 19q-13 -10 -40 -16l-27 -4h12h55q6 1 12 1zM96 77q6 4 15 7q8 4 18 7q-9 4 -16 9q-9 5 -13 12q-1 -2 -1 -3q-1 -18 -3 -32zM101 140q4 5 12 8q16 8 49 23
q3 1 6 3q-14 10 -32 25q-28 23 -35 39q-5 12 1.5 22.5t16.5 14.5q7 3 17 5q10 3 18 4q2 7 8 10.5t13 2.5l21 -4q18 -4 51 -3q14 0 27 1q-3 4 -4 11q-1 5 -2 12q-5 -2 -10 -3q-10 -1 -36 -4q-26 -4 -52 -4q-26 -1 -50 0q-15 0 -25 1q0 -16 1 -29q1 -18 2.5 -35.5t2.5 -38.5
q2 -22 1 -46q0 -8 -1 -15zM96 358q1 1 3 2.5t3 1.5q23 17 47 31l33 21q-10 7 -24 16l-42 28q-30 19 -16 39q5 8 17 11q19 5 41 12q11 3 19 5q-1 7 -2 13v2q-7 7 -14 15q-18 19 -32 40q-4 7 -8 12q-16 -3 -29 -5h-1q-5 -1 -5 -11q0 -24 1 -48q2 -25 3.5 -53l3 -57.5
t1.5 -61.5q1 -7 1 -13zM219 616q6 -5 13 -9q25 -17 37 -23q7 5 20 19q10 12 15 16h-4q-41 -1 -81 -3zM348 620v-1q6 -10 12 -24q3 -6 6 -10q5 3 11 9q17 15 31 26h-36h-24zM467 618l4 -12l2 -15q6 1 11 1q0 6 -1 12q-3 6 -4 12q-5 1 -12 2zM437 589l-1 6q-5 -4 -11 -8z
M330 576q-1 2 -2 5q-2 3 -4 7q-3 -3 -8 -9l-4 -5q1 1 4 1q7 1 14 1zM226 568q-6 3 -14 9q-25 17 -45 27q9 -13 20 -24q7 -8 13 -14h7q8 1 19 2zM181 489q-6 -2 -14 -4q-9 -3 -19 -5l31 -20q4 -3 7 -5q0 13 -3 25q-1 5 -2 9zM190 376l-23 -14l-36 -23q18 -1 38 0q24 0 49 4
q25 3 36 4q1 0 1 1q-22 -1 -36 0q-22 2 -29 28zM302 349q2 -8 1 -11q0 -10 1 -19q4 2 7 3q28 17 44 29q-18 0 -36 -1q-10 0 -17 -1zM406 348q5 -9 7 -17q7 7 16 6l-2 4l-2 4q-5 1 -19 3zM382 300q-1 7 -2 15l-2 8q-16 -12 -42 -27q14 1 30 3q8 0 16 1z" />
    <glyph glyph-name="F" unicode="F" horiz-adv-x="581" 
d="M95 6l1 11q0 11 -2 35q-3 26 -7 67q-5 42 -8 90q-3 40 -4 86q-27 4 -25 26q1 10 12 19q5 5 12 10q1 37 2 78q2 66 3 107q2 43 8 70q0 1 1.5 6.5t2 8.5t3 8t5.5 7.5t7.5 5t10.5 2.5q4 0 10 2q9 3 30.5 7t53 6t65.5 0q32 -2 63 -3h52q24 20 37 -1q18 0 36 -2q34 -3 47 -9
q22 -9 21 -34q-1 -13 -6 -30q-5 -19 -16 -30q-15 -15 -31 -12q-5 1 -12 1q-9 0 -38 -2q-30 -2 -62 -6l-18 -2h-1q-24 -4 -49 -10q-36 -9 -54 -16q-1 0 -3 -1q2 -7 3 -16q2 -16 1 -44q-1 -25 -2 -56q-1 -21 1 -31q6 1 16 3q17 3 40 5t37 2q14 -1 34 -3q21 -2 40 -6l37 -8
q13 -3 21 -7q9 3 17 -3q6 -5 7 -12.5t-4 -13.5q1 -6 0 -12q-2 -7 -8 -30q-9 -35 -30 -38q-10 -1 -20 -3q-11 -2 -25 -4q-16 -3 -41 0q-24 2 -65 7q-38 5 -59 4q-5 0 -8 -1q-2 -10 -4 -18q-2 -11 -6 -26q-3 -13 -5 -34q-1 -23 -1 -44q0 -23 -1 -56q0 -37 -7 -52
q-9 -19 -31 -23q-12 -2 -44 -6q-11 -1 -20 -3q-14 -2 -19 -3l-10 -2q-7 -1 -13 3t-7.5 11t2.5 13.5t11 7.5l9 2q3 1 7 2zM229 293l-7 -2q-21 -12 -53 -37l-21 -15q3 0 5 -1q22 -2 31 -2q7 -1 13 -4q1 5 2 11q2 14 15 21v1l11 21q2 4 4 7zM243 315l3 3h-3v-3zM130 53l39 36
q2 1 3 3q-20 7 -42 18q-4 1 -6 3q3 -34 6 -57v-3zM118 166q1 0 2 1q18 12 38 29l5 5q-6 1 -13 1q-22 2 -35 4q1 -21 3 -40zM112 256l35 27l14 10h-8q-22 -1 -42 -1q0 -18 1 -36zM110 332v-3q20 -1 42 0q33 1 57 4l4 1q-2 3 -2 6q-4 12 -3 46v17q-4 -5 -8 -8l-62 -44z
M111 377l6 4l58 40q-8 3 -15 7q-19 8 -46 21l-1 1q-1 -11 -1 -23q-1 -26 -1 -50zM114 505q17 6 48 16q37 12 74 22q8 2 14 4q-4 8 -6 14q-11 20 -20 40q-8 14 -9 21h-2q-29 -2 -48.5 -5.5t-27.5 -6.5q-5 -1 -12 -2q-1 -5 -3 -11q-6 -24 -7 -63q0 -13 -1 -29zM295 621
q16 -14 29 -31l11 -15q4 11 10 23q4 9 13 21h-20zM441 618q3 -14 8 -30l3 -14h15q8 0 16 -1l1 1q5 5 8 15q3 12 4 22q-10 3 -35 5zM416 571l-2 8q-6 20 -10 36q0 1 -5.5 -4.5t-12 -14t-8.5 -13.5q-4 -8 -7 -16q24 3 45 4zM305 556l-10 12q-12 15 -27 28q-2 2 -4 3l12 -22
q9 -18 12 -25q1 0 2 1q7 1 15 3zM206 497q-16 -5 -33 -11q-18 -5 -32 -10q19 -9 33 -15q18 -8 31 -12q3 -1 5 -2q1 21 -1 34q-1 10 -3 16zM318 328l2 -6t2 -5l1 -2q6 -18 11 -27q4 4 9 10q16 18 26 27q-20 2 -32 3h-19zM424 315l2 -6q1 -9 2 -16q8 8 16 18q-2 0 -3 1
q-8 2 -17 3zM401 259q-1 2 -2 3q-4 12 -8 35l-21 -23q-9 -11 -12 -14q6 0 11 -1q20 -1 32 0zM303 267q-5 10 -13 33q-2 5 -4 9l-7 -7q-12 -13 -21 -31q19 -1 45 -4zM185 172q-3 -2 -3 -3q-18 -16 -35 -27q20 -10 35 -15l2 31q0 7 1 14zM181 51q-18 -16 -28 -26l-14 -13
q25 3 34 4q3 1 4 4q3 6 4 31z" />
    <glyph glyph-name="G" unicode="G" horiz-adv-x="671" 
d="M467 439q-10 6 -8 18q-6 7 -12 13q-10 12 -23 20q-14 9 -27 15q-12 5 -27 7q-16 2 -30 2q-12 -1 -28.5 -8.5t-29.5 -22.5q-15 -16 -23 -34q-10 -20 -15 -36q-4 -10 -6 -21q10 -11 -6 -35q-1 -10 -1 -21q-2 -22 1 -44q2 -23 6 -39q2 -8 3 -15q6 -8 6 -18v-9q2 -12 5 -22
q3 -11 8 -23q4 -12 10 -20l13 -20q3 -4 5 -7q17 3 26 3q15 1 23 -9.5t8 -24.5q0 -4 -1 -8q3 -1 4 -2q8 -1 14.5 -1t14.5 1q6 2 12 5l15 11t15 12.5l15 14.5q6 7 10 15t7 18q3 9 4 18.5t0 16.5q0 5 -3 10t-6 6q-4 2 -15 3q-13 2 -39 0q-28 -2 -43 -2h-15q-7 0 -12.5 5
t-5.5 13q0 12 13 17v2l-6 23q-7 25 -7 42q0 15 12 23t27 8h1q9 27 30 10q6 -5 12 -13h2q21 -3 42 -3h39q18 1 34 2q15 0 30 2q17 1 25 1q10 0 20 -1q16 -3 25 -17q8 -13 4 -41q-3 -20 -4 -41q0 -22 -2 -43q-2 -20 -3 -40q-1 -21 -3 -37q-2 -15 -7 -33q-5 -16 -12 -34
q-7 -19 -14 -31l-15 -20q-8 -10 -26 -21t-32 -14q-11 -2 -22 -3.5t-25 -1.5q-14 -1 -36 -1t-43 0.5t-36 3.5t-26 7l-23 8q-14 4 -26 7q-13 4 -26 9q-15 5 -27 13q-11 7 -20 15l-20 20q-13 13 -24 28q-9 14 -20 28q-12 15 -23.5 35t-19.5 41l-14 37q-5 16 -10.5 42t-7.5 47
q-1 19 -2 41q0 23 1 44t5 47q3 27 12 52q8 26 24 52q15 25 36 48q13 14 27 25q1 11 13 17q7 3 13 2q26 17 49 26q24 9 48 15q24 5 46 9q24 4 49.5 5.5t51.5 -0.5q27 -2 52 -10q24 -8 44 -18.5t33 -21.5q14 -10 24 -20q13 -12 18 -25q4 -11 4 -28v-108v-27q-1 -10 -2 -17
q-2 -21 -35 -24q-20 -1 -32 -3q-24 -2 -35 21l-12 21q-3 6 -9 14q-4 0 -8 2zM363 242q12 1 27 2q13 1 23 1q-8 4 -12 13q-4 11 -13 25q-3 -12 -16 -13q-9 0 -15 7q0 -1 1 -2l5 -23q2 -5 0 -10zM505 593q23 6 38 3l-11 9q-11 9 -28 18t-38 16q-14 4 -30 7q-1 -17 -4 -35
q-2 -16 2 -43q0 -1 0.5 -1t0.5 -1q3 7 10 9l11 4q6 1 14 4q3 2 6 3l11 7q9 5 18 0zM484 550q-7 -4 -15 -8q-11 -6 -24 -14q-4 -2 -8 -3q3 -2 7 -4q17 -12 30 -27l4 -4q6 7 13 17q19 25 32 40q7 7 12 14q-10 0 -26 -4zM504 464q-1 -1 -2 -3q8 -11 13 -20q7 -11 13 -23v-1
q12 2 31 3h4q0 4 1 8v24v88q-5 -7 -14 -17l-29 -36q8 0 13 -5l3 -3q6 -5 6 -12.5t-5.5 -13t-13 -5.5t-12.5 5l-3 3q-3 4 -5 8zM352 303zM422 297q6 -10 10 -20q6 3 12 8q10 6 19 12h-21h-20zM542 300q0 -7 -8 -18q-12 -16 -30 -37q14 -3 35 -8q29 -8 40 -12v14q1 23 5 46
q1 11 0 16q-7 1 -14 1t-22 -1q-3 0 -6 -1zM575 173q-4 -1 -10 -2q-17 -3 -43 -9l18 -45q11 -30 16 -51q6 15 10 29q4 15 6 28q2 14 2 33q0 9 1 17zM522 15q-4 3 -10 7q-11 7 -27 27q-14 16 -20 30q-12 -9 -34 -24q-38 -28 -70 -42q-22 -11 -38 -9h2q8 -3 21 -5q12 -3 31 -3
q19 -1 41 -1q21 0 34 1q13 0 22.5 1.5t19.5 3.5q8 1 20 8q5 3 8 6zM315 7q-9 6 -10 20t1 31q-12 7 -19 14q-5 4 -10 9h-3q-34 -6 -56 -1q-13 4 -20 12q-11 14 -6 35q5 20 12 53q5 18 7 29q-1 1 -1 2v3q-6 0 -13 -1q-19 -2 -50 -7q-21 -4 -35 -6q3 -6 5 -13q8 -19 18 -36.5
t20 -30.5l22 -29q8 -12 19 -23q12 -12 20 -19q7 -6 15 -12t19 -9q12 -5 23 -8q13 -3 28 -8q2 -1 6.5 -2.5zM96 255l41 47l56 64h-11q-28 1 -70 3h-5h-10t-11 1v-28q1 -21 2 -40q1 -18 6 -42q1 -2 2 -5zM90 417q17 7 46 22l75 36q19 10 27 16q-1 3 -2 5q-8 11 -27 32
q-19 22 -37 48q-9 -7 -17 -16q-19 -20 -32 -43q-14 -22 -21 -44q-8 -22 -11 -46q0 -5 -1 -10zM222 610q3 -1 7 -3q30 -12 66 -28q33 -14 50 -16h6v1l30 62q0 1 3 9l5 13h-14q-23 -1 -44 -5q-22 -4 -45 -9q-22 -5 -42 -13q-11 -4 -22 -11zM407 540q-6 10 -8 22l-2 14
q-9 -20 -13 -27q0 -1 -1 -3q12 -2 24 -6zM298 539q-8 3 -17 7q-33 15 -62 26l17 -20q20 -22 29 -35q14 13 31 21q1 1 2 1zM214 437l-63 -31q-1 0 -4 -2h-1q21 -2 37 -2q12 0 20 -1q3 13 7 24zM194 313q-13 -16 -30 -35l-34 -38q6 1 11 1q32 6 52 8q5 0 9 1q-3 16 -6 38z
M232 140q-3 -12 -5 -21q0 -2 -1 -4q10 -2 22 -1l-8 12q-4 6 -8 14zM341 43zM476 119q14 -5 20 -21q3 -10 16 -26l7 -7q-5 17 -13 39q-12 33 -18 47q-1 -4 -3 -8q-3 -12 -9 -23v-1zM492 186q9 8 24 12q9 2 16 3q-33 8 -46 10q5 -9 5 -19q1 -3 1 -6zM461 238q2 12 7 19
q-2 -1 -3 -2q-9 -7 -17 -10l-4 -2q8 -1 17 -5z" />
    <glyph glyph-name="H" unicode="H" horiz-adv-x="672" 
d="M541 313l-14 14l-14 17q-5 -7 -12 -11q-2 -1 -3 -1q4 -13 9 -32q1 -3 2 -7q6 4 12 9q10 6 20 11zM122 276q-1 -36 -3 -87q0 -17 -1 -30q18 15 44 42q19 20 37 37l2 4q6 11 20 17l4 4q29 26 53 54q3 3 5 6q-22 -7 -53 -16l-78 -23q-17 -4 -30 -8zM122 346l28 24l47 41h-15
q-35 -1 -58 1q-2 0 -5 1q1 -12 1 -23q2 -22 2 -44zM114 468l18 22q23 29 37 50q10 15 12 24l-4 2q-16 6 -48 15q-21 6 -35 9v-1q12 -44 18 -99zM95 626q16 -3 43 -10q35 -10 52 -17q7 -2 13 -7q-5 28 -10 49q-3 18 -5 29h-6q-18 -3 -42 -16q-26 -14 -45 -27v-1zM211 542
q-4 -10 -13 -23q-14 -21 -38 -51l-17 -21h39q23 0 35 1q0 30 -3 61q-1 17 -3 33zM215 379l-42 -36l-26 -23q33 9 73 21q8 3 15 5q-18 6 -19 24q-1 3 -1 9zM334 333q-4 -11 -29 -40l-16 -18q10 1 22 2q0 1 1 3l11 20q9 18 19 32q-4 1 -8 1zM413 328q5 -11 10 -20q0 -1 1 -2
q9 7 21 21h-2q-15 0 -30 1zM524 396q9 5 23 12q1 1 3 2q-14 6 -24 12h-1v-2q-1 -13 -1 -24zM526 497l8 8q22 21 27 32q-10 5 -28 12l-5 2q-2 -28 -2 -54zM533 588l13 -6q25 -9 35 -14q-2 24 -4 38q-1 10 -2 18q-9 1 -24 0q-9 -1 -11 -5q-4 -6 -7 -31zM583 504l-23 -25
q-15 -13 -23 -22q2 -2 6 -3q28 -15 36 -19q1 -1 2 -1q1 35 1 67q1 1 1 3zM581 386q-4 -3 -18 -10q-12 -6 -21 -11l12 -14q14 -15 25 -25zM578 252q-9 -6 -20 -12q-25 -13 -46 -26q9 -3 20 -5q27 -6 39 -7q5 0 8 -2v27q-1 12 -1 25zM581 160q-6 -10 -11 -15q-26 -28 -53 -44
q16 -11 34 -16q23 -7 30 -10l5 -2q0 33 -3 72q-1 7 -2 15zM586 39q-6 -2 -11 0l-7 3l-27 9q-25 7 -47 22q-8 5 -12 12q-3 -23 -3 -39v-28q2 -1 5 -2q12 -5 42 -5q32 1 52 2q5 1 5.5 1.5t1.5 5.5q1 8 1 19zM486 122q5 5 13 9q22 14 45 39q-9 2 -19 4q-18 4 -30 8
q-2 -15 -4 -28q-3 -17 -5 -32zM475 282q-1 4 -3 9l-2 10q-9 -10 -16 -16q10 -2 16 -3h5zM396 284q-2 2 -4 5q-8 15 -14 31l-3 -3q-11 -14 -20 -34l-2 -3q13 1 24 2t19 2zM192 180l-4 -4l-31 -30q9 1 18.5 3t16.5 3v6v22zM198 71q-22 -23 -44 -42l-22 -19l2 -1q21 -6 43 -4
q19 1 29 2q-1 10 -3 24q-2 19 -5 40zM117 45l13 11q30 25 60 59q-4 -1 -8 -1q-30 -6 -54 -7q-8 -1 -10 0v-38q0 -13 -1 -24zM80 10q-1 8 0 25q2 15 2 34v50q0 32 1 72q2 46 3 76q-20 -2 -23 19q-1 5 0 9.5t3.5 7t5 4.5t5 3.5t3.5 1.5q3 2 6 5q0 36 -2 71q-2 45 -8 98
q-6 52 -17 94q-2 10 -4 19q-6 6 -5 15q1 6 6 11q3 20 19 31q20 15 48 30q29 16 54 19q38 6 44 -20q3 -11 8 -37q4 -25 11 -58q7 -34 10 -79q4 -44 2 -87q-1 -31 -1 -45q13 -1 40 -5l73 -8h9q11 5 21 -2q24 -1 49 -1q30 0 40 2q2 7 3 21q2 15 3 35v61q0 42 5 89q0 2 1 5v4
q5 41 13 56q12 22 40 24q21 2 34 -1q24 -4 28 -25l3 -23q2 -16 4 -43t1 -68q0 -40 -1 -85t-2 -96q-1 -50 0 -91q0 -40 3 -80q4 -41 4 -75q1 -35 -2 -57q-2 -16 -12.5 -26.5t-26.5 -12.5q-21 -1 -55 -2q-36 0 -56 8q-27 11 -27 33v30q0 20 4 51q3 30 8 63q6 32 11 67
q2 11 2 19q-3 1 -4 1q-6 1 -20 2q-13 2 -25 0l-38.5 -3l-63.5 -5q-36 -2 -63 -10q-8 -2 -15 -4l-8 -8q-1 -6 -2 -14q-2 -19 -1 -46v-5q28 -5 3 -44q0 -6 1 -12q3 -33 7 -62q4 -31 3 -40q-2 -20 -26 -24q-10 -1 -36 -3q-28 -2 -55 5l-24 7l-3 -4q-5 -5 -12.5 -5t-13 5.5
t-5.5 13t5 12.5z" />
    <glyph glyph-name="I" unicode="I" horiz-adv-x="269" 
d="M105 617q20 -20 37 -35l14 -12q0 22 -1 36q0 7 -1 13h-13q-14 0 -36 -2zM160 514q-4 -4 -12 -11l-30 -23q2 -3 3 -5q13 -17 30 -32l12 -10v42q-1 20 -3 39zM163 352q-8 -4 -23 -10q-3 -1 -6 -3q11 -14 25 -29q2 -3 5 -6q-1 9 -1 19v29zM165 237v15l-3 3q-14 13 -30 31
q-16 17 -29 34q-1 1 -1 2v-39q0 -35 -1 -74q2 1 5 3q18 10 37 17q11 5 22 8zM165 199q-4 -2 -9 -3q-17 -7 -33 -16q-3 -1 -5 -3l10 -10l32 -29q5 -4 9 -8q-2 18 -3 40q-1 14 -1 29zM175 59q-14 -10 -28 -17q-10 -5 -18 -10q17 -11 24 -14l9 -3q1 0 2 -1q9 3 17 5q-1 4 -1 7
q-2 9 -4 25q0 4 -1 8zM107 3q-4 3 -8 7q1 -2 1 -3.5t1 -3.5h6zM97 52q1 1 2 1q13 12 31 21q14 7 29 18q-10 8 -22 19q-18 15 -34 30l-4 4v-23l-2 -69v-1zM102 359q3 4 9 8q7 5 16 9q20 7 29 14q-11 11 -28 26q-15 12 -27 26v-7q1 -39 1 -76zM99 511q10 7 27 21q5 4 9 8
l-17 15t-22 21q2 -23 3 -62v-3zM57 613q-3 4 -4 9q-3 4 -3 8q-1 7 4 13t12 6l28 3q29 3 47 3t25 -1q10 -1 16.5 -8t7.5 -16q0 -8 1 -23q1 -14 1 -38q1 -21 3 -44q3 -25 4 -49v-50q-1 -25 0 -50v-53t1 -51v-4q7 -6 12 -13q10 -14 6 -25.5t-17 -18.5q0 -20 1 -39
q1 -24 2.5 -42t3.5 -39t4 -36l3 -23q2 -9 2 -16q2 -21 -23 -30q-14 -5 -31 -9q-18 -4 -34 -7q-17 -3 -30.5 -3t-22 9t-11.5 22q-4 19 -4 56l2 68q0 35 2 79q1 44 1 82v75q0 37 -0.5 76t-2.5 79q-1 40 -3 61t-3 28v7q-1 2 0 4z" />
    <glyph glyph-name="J" unicode="J" horiz-adv-x="534" 
d="M54 177q0 7 5 12t12 5l17 1q17 1 39 2q35 2 44 -21q4 -11 9 -33q5 -18 13 -33q8 -13 17 -20q9 -6 23 -9q17 -3 41 -3q22 0 44 7q5 1 9 3q0 3 -1 7q0 29 13 37q0 20 -1 40q0 25 -2 54q-2 30 -4 56q-1 26 0 51q0 24 1 57t1 60q1 26 3 60.5t6 61.5q1 5 2 9l-1 1
q-5 5 -5 12.5t6 13.5l2 2q1 2 1 4q0 18 14 27.5t32 8.5q29 -1 49 -6q28 -7 34 -34q4 -18 3 -43q-1 -23 -1.5 -43t-1.5 -43q0 -23 1 -46t3 -52t3 -55q1 -25 -0.5 -51t-5.5 -53l-7 -45q-3 -21 -6 -40q-3 -20 -9 -39q-5 -20 -11 -37.5t-13 -32.5q-6 -16 -17 -34
q-12 -18 -24.5 -27.5t-32.5 -14.5q-19 -5 -35 -6q-15 -1 -37.5 1t-44.5 7q-23 5 -43 16q-20 10 -39 26q-18 15 -32 32l-29 37q-15 22 -25 42q-10 19 -16 35l-6 15q-4 10 3 18zM122 160l2 -2q3 -6 1 -14q9 -1 19 -3q-3 12 -6 20h-9q-3 0 -7 -1zM245 43q3 -4 6 -11q2 5 6 10
q-6 1 -12 1zM299 44q7 -6 18 -17q6 -6 11 -10v3v30q-14 -4 -29 -6zM370 83q-3 -7 -7 -12q1 -12 1 -18v-33q0 -14 -3 -26v-1q5 2 8 4q8 6 16 19q9 14 14 27q4 9 7 18l-10 3zM376 122l6 -4t7 -5q-8 22 -14 44q0 -15 1 -30v-5zM372 220q6 5 18 3q4 -1 18 -2l-23 39
q-13 23 -16 35q-1 3 -1 5v-17q2 -25 4 -55v-8zM368 302q0 12 10 18.5t20 6.5t17 1l-24 30q-12 14 -22 29q-1 -31 -1 -55q-1 -14 0 -30zM370 451q4 2 7 5q22 13 50 27q4 1 7 3l-6 8q-10 12 -29 31l-23 24q-2 -18 -3 -40q-2 -33 -3 -58zM382 594l6 -5l37 -39q10 -10 18 -19
q0 18 1 37q1 21 -2 35q-1 5 -8 6q-16 5 -41 5q-6 0 -9 -1q-1 -9 -2 -19zM441 449q-25 -12 -45 -24q-4 -3 -5 -5q0 -1 1 -3q11 -18 26 -36q17 -20 29 -37q0 17 -2 37q-2 29 -3 52q0 8 -1 16zM448 304q-5 -6 -13 -8q-12 -4 -26 -5q3 -6 7 -13l22 -37q4 -5 5 -7q3 23 4 45
q1 12 1 25zM436 186l-19 -1h-13q1 -3 2 -7q8 -29 19 -57q3 12 5 24q3 18 5 38q1 2 1 3zM313 -16q-9 5 -21 17l-10 10q-6 -18 -7 -23l-1 -1q8 -1 15 -2q13 -1 24 -1zM229 -3q-4 9 -9 18q-9 15 -15 22q-1 2 -6 2q-11 -1 -18 -3q-4 -2 -9 -2l11 -9q15 -13 31 -22q7 -3 15 -6z
M141 70q0 7 2 18q1 9 2 16q-2 0 -4 1q-14 3 -28 5q7 -11 15 -22q7 -9 13 -18z" />
    <glyph glyph-name="K" unicode="K" horiz-adv-x="687" 
d="M58 626q-1 15 13 19q2 14 15 16q15 3 20 -12h2q35 3 56 4q31 1 40 -19q6 -12 7 -42q0 -26 2 -54l4 -56q1 -26 3 -43q2 -18 3 -31v-3q6 9 13 18q2 4 4 6l4 4q16 22 33 41l33 37q17 17 34 32l31 27l27 24q13 13 27 23l24 18q13 9 26 16l24 14l22 12q17 9 35 -1
q11 -6 23 -15q21 -16 6 -47q-10 -20 -31 -45l-47 -50l-50 -54q-25 -26 -45 -50l-35 -43t-22 -29q0 -1 -1 -2q5 -7 18 -20q4 -5 9 -10q4 -4 7 -8l22 -27q17 -23 33 -47l6 -10q4 -4 5 -8l20 -26q16 -21 31 -37q15 -17 29 -30l26.5 -27l25.5 -27l19 -21q6 -7 17 -16
q11 -8 11 -19t-6 -19t-15 -14q-22 -13 -51 -24q-29 -10 -55 -17q-37 -9 -51 8q-10 12 -16 33q-5 17 -17 42.5t-27 47.5q-1 1 -2 3q-23 0 -20 28q-7 8 -14 17q-19 25 -39 45l-40 38q-18 18 -34 32l-21 16q-1 -14 -2 -36q-1 -24 -1 -50q0 -25 -1 -50q0 -23 0.5 -43t1.5 -34
q2 -17 1 -29q-1 -10 0 -17q1 -9 -5 -17.5t-15 -11.5q-10 -3 -28 -1l-27 2t-22 1q-20 0 -30 20q-6 13 -9 41l-4 52q-1 5 -1 11l-2 2q-12 15 0 29v9q-1 24 1 55v12q-3 8 1 17q1 19 1 40l2 56q-6 9 0 19v1q1 38 0 79q-1 11 -1 23q-17 14 -4 32l2 4q0 14 -1 28q-2 46 -5 80
q-1 9 -2 17l-17 6q-7 2 -10 9t-1 14q2 6 7 9v3zM228 289v-2q4 -3 6 -6q5 -1 10 -4q11 -7 29 -22q17 -14 36 -33q20 -18 40 -39q21 -21 43 -48q1 -1 1 -2l13 25q13 24 17 36q-1 1 -2 1q-19 1 -53 1q-42 0 -41 29q0 12 11 26q15 19 21 33q-6 1 -14 2q-37 0 -77 2zM238 325
l31 -1l58 -2q-1 2 -2 5q-9 -4 -18.5 -2.5t-14.5 7.5q-10 10 -25 33q-5 8 -10 14q-2 -5 -4 -11q-8 -19 -15 -43zM189 266q-12 5 -29 10t-35 8q0 -20 -1 -39v-14q9 4 22 9q25 11 43 25v1zM195 302l3 12q4 18 9 33q-18 2 -20 20v3q-15 -20 -36 -40q-7 -6 -13 -12q17 -3 32 -8
q14 -4 25 -8zM175 583v8q-1 17 -2 26h-8q-19 -1 -53 -4v-2q36 -12 57 -25q3 -1 6 -3zM179 516q-14 -23 -34 -45q-13 -13 -21 -23v-1q28 -5 42 -8q10 -2 18 -5v1q-2 18 -3 45q-1 17 -2 36zM277 417q6 -11 19 -31q-4 21 -6 37q-1 5 -1 9q-6 -7 -12 -15zM312 459q8 2 15 0
q20 -4 37 -10q5 -1 8 -2q0 19 -3 38l-4 28q-14 -12 -29 -27zM391 536l27 -10q19 -9 30 -13q1 2 1 3q5 18 5 38q0 21 -1 32q-1 2 -1 4l-2 -2q-12 -9 -23 -20q-13 -12 -29 -25q-4 -5 -7 -7zM478 609q9 -1 14 -6q4 -3 7 -6q2 2 3 4q8 17 16 31l-22 -12q-9 -5 -18 -11zM497 556
q-4 1 -7 3v-5v-6q4 5 7 8zM428 482l-24 11v-1v-2q3 -15 4 -30q9 11 20 22zM366 411q-5 2 -13 4q-12 4 -27 7q3 -18 7 -39q1 -8 2 -12l18 23zM384 255q-6 -10 -15 -23h32l-16 23h-1zM449 163l-11 -21l-18 -35q13 1 32 4q22 3 38 4l-8 8q-16 18 -33 40zM552 52q-6 -12 -18 -31
q-1 -2 -3 -4q28 1 43 4q0 1 5 2l-16 16zM541 -19h-11q-14 -1 -26 6.5t-11 23.5q0 12 10 29q17 27 20 40h-2q-18 2 -64 -5q-11 -1 -20 -3q12 -18 21 -39q14 -29 19 -48q4 -12 8 -18q5 0 16 2q20 5 40 12zM192 223q-15 -9 -33 -16q-15 -6 -26 -11l42 -22q11 -6 13 -14.5
t-4 -17t-11 -13.5t-10 -8q-19 -14 -36 -23q4 -2 9 -4q26 -11 39 -18q8 -3 14 -7v40q1 24 1 49q0 27 1 52q1 7 1 13zM192 18l-3 -3q-16 -11 -29 -22h-1l25 -2q4 0 8 -1q-1 7 0 14v14zM129 15l8 6q12 10 27 21l-4 2l-35 16q1 -19 3 -37q1 -4 1 -8zM121 136l21 14l-21 11v-25z
M126 356q23 22 37 42q1 2 2 5q-3 0 -6 1q-12 2 -34 6q0 -4 1 -8v-46zM122 499q19 22 30 43q4 9 4 10t-4 3q-14 8 -35 16q3 -31 5 -72z" />
    <glyph glyph-name="L" unicode="L" horiz-adv-x="581" 
d="M88 655l30 -1q47 -1 59 -3q11 -2 18.5 -10t9.5 -19q1 -14 -7 -53q-8 -36 -12 -67q-4 -32 -7 -77q-3 -44 -2 -73t5 -59q3 -31 4 -56v-44t1 -43q1 -25 1 -47q1 -14 1 -26q3 -4 5 -10q15 -1 42 4q35 6 58 9q24 3 53 6q28 3 61 5q34 3 63 4h38q14 -1 19.5 -13t0.5 -22
l-14 -42q-5 -15 -8 -21.5t-9 -15t-15 -12.5q-13 -5 -59 -3q-41 2 -88 2q-48 -1 -90 1q-41 2 -75 2h-50q-18 0 -27 1q-21 4 -22 33q-1 16 1 57q1 11 1 23q-1 5 1 11q0 21 1 40v61q0 25 -2 63l-2 42q-4 2 -7 3q-14 6 -14 21t8 20q4 5 10 9l-6 65q-3 25 -5 53q-1 5 0 9
q-1 13 -1 26q0 45 -2 80q0 19 -1 34q-8 10 -1 20l-2 20q0 7 5 13t12 6.5t13 -4.5t6 -13zM118 618l25 -18q16 -11 21 -17q5 23 5 33q-13 2 -51 2zM152 520q-13 -12 -30 -26l-24 -19q1 -2 3 -3q21 -17 33 -24q6 -4 10 -7q3 38 6 65zM141 373q-7 -6 -13 -12l-22 -20q0 -7 1 -13
q21 -8 32 -15q3 -2 5 -3q-2 20 -3 40v23zM150 227q-9 -11 -17 -22q9 -5 17 -9v31zM152 125q-16 -17 -31 -30q6 -2 13 -3q10 -1 18 -3v13v23zM182 32q-3 -2 -5 -4q11 0 21 3q-7 0 -14 1h-2zM291 43q7 -6 11 -14q6 3 11 7q10 6 18 12q-17 -2 -32 -4q-4 0 -8 -1zM415 56l9 -26
q2 -9 5 -15q2 1 4 4q22 19 38 36l3 4h-2q-27 -1 -57 -3zM394 3q-2 7 -5 16q-3 12 -7 22q-19 -15 -49 -35q-3 -2 -4 -3q4 0 7 1q30 0 58 -1zM273 4q0 2 -1 4l-2 6q-4 -1 -10 -3q-9 -3 -17 -6h5q12 -1 25 -1zM126 7q-5 7 -3 16q2 10 14 19q8 5 14 11l-23 4q-11 2 -19 3
q-2 -39 -1 -53h13h5zM112 135q11 11 21 23q1 2 3 5q-11 5 -23 12h-1v-39v-1zM111 236l12 16q8 12 10 19v2q-6 4 -14 10q-3 2 -10 5q1 -13 1 -26q1 -14 1 -26zM102 387q1 0 2 1q11 10 22 22q-5 3 -11 7q-7 4 -17 12v-5zM93 517q3 2 7 5q18 15 31 28q5 4 7 7q-5 6 -16 14
l-31 22v-4q1 -32 2 -72z" />
    <glyph glyph-name="M" unicode="M" horiz-adv-x="835" 
d="M52 159q-3 6 -1 13.5t9 10.5l8 4q-2 37 0 77q2 58 3 113t0 108q-1 52 -3 92q0 2 -0.5 12t-0.5 15t1.5 13t6.5 12.5t13 6.5q6 1 36 11q33 12 71 14q16 3 33 1t25 -16q7 -11 14 -27q8 -17 15 -42q7 -23 18 -48q10 -25 24 -55l29 -62q15 -32 30 -68q15 -35 30 -66
q14 -28 32 -53q4 11 10 26q12 27 24 60l23 69.5t24 69.5l27 75t25 74l14 47q6 22 43 35q31 10 45 12q13 1 23 -7t12 -20q2 -13 6.5 -39l10.5 -59q7 -32 13 -63q2 -13 5 -26q1 -2 3 -4q11 -21 5 -30l2 -6q7 -29 13 -61q11 -12 4 -27q6 -36 8 -65q2 -33 -1 -71q-2 -33 -5 -76
q0 -3 -1 -5v-3q-3 -48 -3 -81q1 -38 -4 -50q-7 -19 -31 -19q-10 0 -26.5 -1t-40.5 -4q-28 -4 -42 -1q-20 6 -24 25q-2 8 -4 14q-2 7 -5 22q-3 14 -5 28q-2 15 -1 31q2 14 4 38t6 65l8 85q-16 -27 -29 -53q-15 -32 -27 -64q-13 -34 -27 -65q-13 -30 -21 -61q-9 -32 -11 -40
q-4 -17 -27 -25l-35 -12l-38 -13q-10 -4 -22.5 -0.5t-18.5 15.5q-4 9 -12 24l-11 23l-10 23q-1 3 -2 5q-8 4 -7 16q-4 7 -10 15q-8 12 -19 31q-12 20 -25 55q-13 34 -26 75q0 2 -1 4h-6l2 -24q3 -47 -1 -84q-3 -35 -6 -64q-3 -28 -4 -58q-1 -50 -30 -50q-11 0 -36 1
q-11 0 -22 2q-1 -7 -5.5 -12t-11.5 -5q-7 -1 -12.5 4t-6.5 13v7l-10 3q-7 2 -11 8t-2 13q4 15 19 14q0 6 -1 11q-2 14 -4 31q-2 0 -4 1q-5 2 -9.5 5.5t-9 11.5t0.5 17t15 14q-2 20 -4 45h-3q-13 2 -15 16q-1 1 -2 3zM125 -5q13 -2 26 -2q17 0 28 -1q1 6 1 14v8
q-6 -9 -14 -13l-7 -3q-6 -3 -13.5 -1t-10.5 9q-6 12 5 22l-17 5h-2l2 -14q1 -15 2 -24zM639 417q4 -29 5 -55v-5q2 -3 3 -7t2 -7v-2q0 -9 -1 -28q6 6 17 11l61 29q7 3 12 7q-17 11 -50 29zM631 464l9 -6l65 -37l26 -14l-6 23l-2 8q-15 7 -41 21l-54 32q-1 1 -5 3l2 -6
q3 -11 6 -24zM598 441q-13 10 -4 24q-2 7 -4 13q-3 13 -7 24q-12 -35 -23 -64q-1 -2 -2 -5l13 -8q15 -21 32 -41l4 -4q-2 20 -5 42q-2 10 -4 19zM443 160l-25 -26l-44 -48q-1 -1 -3 -4l-2 -1q35 5 61 8q26 2 38 2h16l0.5 0.5l0.5 0.5q-5 3 -9 9q-5 7 -15 24q-11 16 -18 35z
M111 169l4 -1q41 -7 58 -11q10 -3 15 -11q2 -4 3 -7q2 30 0 68q-1 -1 -3 -2l-32 -15q-25 -11 -45 -21zM353 238l-7 1q-3 0 -6 2q-11 0 -33 -2q-17 -1 -39 -2l23 -67q1 -2 1 -3q1 1 1 2l20 26q14 17 40 43zM172 237q-16 1 -32 3q-20 4 -37 11v-46q18 9 38 18zM368 272l9 -1
v-1l-27 60l-29 66l-29 62l-15 33q-5 -6 -13 -12.5t-15 -11l-16 -10t-11 -6.5l-91 -61q-2 -1 -3 -2q13 -4 28 -6q-2 10 8 18q5 4 10 5t8.5 -0.5t7 -4t6.5 -6t4.5 -6.5t3 -5.5l1.5 -2.5q0 -1 1 -2q33 -1 66 -4q42 -5 53 -8q14 -5 12.5 -20t-11.5 -20q-10 -4 -58 -20l-21 -8
q5 -12 9 -25q28 1 49 2q32 2 41 2h10q7 0 12 -5zM116 73q7 -3 17 -5q26 -8 36 -12q8 -3 13 -11l2 23q3 26 6 57q-2 -5 -7.5 -10t-9.5 -7.5t-11 -6t-8 -4.5q-22 -13 -39 -22v-2h1zM110 114l25 14q-11 2 -26 5h-1q1 -10 2 -19zM105 287l20 9q19 8 46 17l-6 27q-1 2 -2 5
q-28 3 -51 10q-3 1 -5 2zM108 418q1 1 3 2l92 61q20 13 32 22l-16 9l-78 39l-36 17q1 -36 2 -83q1 -33 1 -67zM111 605q11 -5 45 -22l79 -39l26 -13q-8 18 -13 36q-7 22 -14 37q-5 13 -10 21q-8 2 -26 0q-34 -2 -63 -12q-14 -5 -24 -8zM398 231l-16 -15q-17 -16 -29 -29
q37 12 61 19zM470 190l5 -13q6 -16 14 -30q11 36 6 65l-5 28l-2 -4q-11 -27 -16 -41q-1 -2 -2 -5zM502 271q6 -1 13.5 -4t11.5 -5l4 -2q6 -7 12 -12q-1 27 -5 64q-3 25 -6 45q-9 -30 -19 -58zM602 555l10 -8q12 -11 36 -26t51 -30l2 -1q-6 10 -13 20l-39 55q-16 22 -21 28
q-10 18 -0.5 25t26.5 6h17l14 -3q-3 22 -5 35q-12 -2 -33 -9q-17 -6 -21 -12l-14 -46q-4 -16 -10 -34zM692 584l-14 2q9 -11 19 -26v1q-2 12 -5 23zM745 322q-2 -1 -3 -2l-57 -26q19 -13 43 -23l22 -10q-1 11 -1 22q-1 18 -4 39zM747 199q-16 -11 -39 -22q11 -6 24 -10
q7 -2 12 -4q2 20 3 36zM740 94q-30 -21 -42 -27l-3 -1q14 -8 26 -12l19 -7l-1 2q0 20 1 45zM719 17l-10 3q-22 8 -46 23l-2.5 1t-4.5 2.5t-5 3.5t-5 4.5t-4 6t-2.5 6.5t0.5 7.5t4 8.5q6 7 16 9q12 2 21 7q11 6 42 27l6 4q-4 1 -8 3q-24 7 -43 21q-9 6 -12 16.5t4 22.5
q7 9 22 17q22 10 37 21l-16 7q-31 14 -54 30q-8 6 -13 15q0 -2 -1 -3q-3 -43 -8 -86l-5 -64q-2 -24 -4 -38q-1 -12 1 -23q2 -12 4 -26q3 -13 4 -19q2 -6 4 -14q8 -1 27 1q25 4 43 5q4 0 8 1zM599 336l-23 24l-9 11q3 -24 6 -55q2 -10 2 -19q3 4 5 7zM533 210q-1 0 -2 1
q1 -2 1 -4q0 1 1 3zM463 21q-9 -8 -21 -17q8 3 15 5l4 2q1 4 2 10zM378 -3q2 4 6 7l34 27q17 13 28 23q-5 -1 -13 -1q-25 -3 -59 -8q-10 -2 -17 -3q3 -8 6 -15q5 -9 11 -22zM331 93l17 17q22 26 44 49l4 4q-19 -6 -40 -14q-27 -9 -54 -6q6 -13 12 -22zM233 332q10 3 22 7
l-27 2q3 -4 5 -9zM181 278l-14 -4q8 -1 16 -1q-1 2 -2 5z" />
    <glyph glyph-name="N" unicode="N" horiz-adv-x="674" 
d="M64 -5v6q-1 9 1 35l1 12q-7 6 -12 12q-6 12 -2 22.5t12 15.5l6 3q2 17 3 37q1 14 1 30q-7 9 -13 16q-7 7 -7 21t12 22q4 3 8 4q0 23 -2 41l-2 28q-6 10 -1 20q0 7 -1 14q-1 32 0 74q0 43 1 85t-3 72q-4 29 -7 43q-5 29 33 42q24 8 53 14q30 6 54 3q31 -4 41 -27l13 -30
q8 -17 19 -37q3 -7 7 -13q0 -1 1 -1q16 -10 13 -24q9 -16 22 -32t26 -35h3q31 3 19 -32q4 -5 7 -10l21 -32.5t20 -35.5q9 -15 19 -30q11 -2 19.5 -9.5t4.5 -20.5q0 -1 -1 -2l14 -18l9 -11q-1 22 -1 50q1 31 2 77q2 45 2 81q0 37 3 81q3 46 9 66q8 28 25 35q8 3 21 9
q15 7 35 10q14 3 26.5 -3.5t15 -21t5.5 -39.5q2 -22 2 -55q5 -9 3 -19q-1 -5 -3 -9q-1 -27 -1 -60q0 -44 -1 -89q-1 -44 -0.5 -82.5t2.5 -81.5q2 -44 -2 -84q-3 -40 -7 -70q-4 -31 -11 -56q-9 -33 -29 -39q-10 -2 -30 -8q-27 -8 -43 0q-14 7 -24 23q-6 11 -16 24l-23 31
q-15 18 -29 39l-31 46l-37 55l-37 54l-9 13q-16 0 -21 17q-3 8 -3 20q-1 3 -3 4q-18 29 -36 52q-3 5 -6 8q-2 -1 -4 -1q0 -15 1 -28q2 -33 0 -73q-2 -39 -9 -90q-6 -48 -6 -76q0 -31 -4 -63q-6 -44 -41 -49q-23 -3 -47 -3h-32l-8 1q-7 1 -12 6.5t-4.5 13t6.5 12.5zM515 170
q-3 -19 -7 -37q-3 -19 -5 -30q31 17 58 34l24 14q1 25 0 51q-12 -10 -25 -19l-21 -15q-13 -9 -24 2zM521 199l18 13q20 14 37 31l6 6q-12 12 -28 26l-36 33q-4 4 -7 9v-1q0 -30 1 -52v-2q11 -3 13 -16q2 -10 -4 -47zM245 391l1 -1q21 -10 8 -25q2 -3 5 -6l18 -25q3 7 6 16
q12 32 32 70q-29 -13 -63 -26zM100 28q-1 -19 0 -24v-6h1q-1 7 3 12.5t11 7.5l3 1q-8 4 -17 9h-1zM104 73v-6q5 -3 14 -7q33 -18 44 -23q5 -2 6 -3q2 22 2 43v13q-8 -6 -29 -9q-20 -4 -37 -8zM107 111q10 2 22 4q-8 8 -20 19zM111 203v-21q7 -7 17 -16q27 -26 40 -37
q3 -2 5 -4q1 15 4 33q4 30 6 56q-9 -1 -32 -5q-23 -3 -40 -6zM110 239q16 3 36 6h4q-6 4 -13 8l-28 17q1 -14 1 -31zM104 341q26 8 75 25q4 1 7 2v6q-31 10 -59 20q-19 7 -23 10q-1 -36 0 -63zM104 441q2 2 7 4q14 6 53 31q40 27 47 31q6 5 35 24q2 1 4 3q-14 6 -38 14
q-38 13 -77 20l-34 5v-4q5 -31 4 -76q0 -20 -1 -52zM96 610h4l41 -7q42 -7 82 -20l4 -2q-4 7 -7 14q-8 18 -13 31q-2 3 -12 5q-18 2 -43 -3q-27 -5 -49 -12q-5 -2 -8 -4q0 -1 1 -2zM269 504q-1 -2 -3 -3q-28 -19 -35 -23l-47 -32l-35 -22l40 -13h-1q-1 11 3 14t10 0.5
t14 -7.5l24 9l64 26q2 1 3 2l-19 25q-10 12 -18 24zM345 399q-18 -33 -28 -61q-11 -29 -12 -46v-1q2 -2 3 -4q24 9 61 25l23 9q-7 10 -12 20l-19 34zM414 289l-1 1q-12 -4 -30 -12q-33 -13 -54 -22q1 -2 3 -5l37 -54q9 -14 18 -26v4q1 20 16 74zM441 253q-3 -10 -4 -14
q-7 -27 -11 -45q8 8 17 19q10 12 15 19q-8 9 -17 21zM512 355q3 3 8 5q13 6 30 16q3 2 5 4q-7 8 -12 13q-7 6 -21 17l-8 8q0 -13 -1 -25q0 -21 -1 -38zM515 501l39 25l28 18q-14 10 -39 22l-23 11l-2 -23q-2 -28 -3 -53zM526 612q3 0 6 -1l26 -13l27 -13q-1 13 -2 23
q-2 20 -4 33q-17 -3 -27 -8q-13 -6 -22 -9q-2 -4 -4 -11v-1zM584 502q-7 -4 -11 -7q-38 -23 -51 -33q10 -13 23 -24l22 -18q7 -7 15 -16q1 -1 1 -2q1 34 1 67v33zM582 354q-3 -3 -14 -9l-23 -13q16 -16 33 -30l4 -4v56zM574 52q-3 -4 -6 -9q-21 -30 -30 -44l-3 -4q17 4 26 7
q3 4 5 14q5 17 8 36zM501 8l7 10q9 15 30 45q10 14 20 30l-40 -23q-5 -2 -12 -4.5t-21 -6t-21 2t-1 21.5q3 7 3 13q1 13 7 44q6 30 12 68l-14 -18q-32 -38 -48 -45q-8 -4 -19 -1q1 0 1.5 -1l0.5 -1l31 -46l27 -37q14 -18 24 -32zM184 330l-67 -23l38 -23l31 -17q0 25 -1 47
q0 8 -1 16z" />
    <glyph glyph-name="O" unicode="O" horiz-adv-x="706" 
d="M286 566q-21 9 -42 14q1 -1 2 -3q14 -16 21 -27l3 3q9 7 18 13h-2zM60 428q-12 8 -7 21l8 20q-3 9 3 16q2 3 5 5q9 22 21 41q14 24 29 42q15 19 36 33q20 14 47 25q25 11 49 19q26 10 53 13l27 2q3 22 24 21q12 0 21 -14q3 -3 6 -7q14 -1 28 -3q26 -3 50 -8q12 -2 23 -5
l7.5 5.5t12 3.5t17 -3.5t8.5 -17.5v-3l22 -10q22 -11 44 -34q23 -23 37 -57q13 -33 20 -67q6 -35 6 -71q0 -34 -4 -67q-3 -33 -7 -58.5t-9 -49.5q-5 -26 -12 -45q-7 -17 -16 -35q-11 -19 -25 -36l-1 -1q-3 -6 -8 -10l-21 -24l-32 -35q-16 -17 -37 -32q-23 -16 -47 -24
q-22 -7 -47 -10q-25 -2 -52.5 -1.5t-64.5 5.5q-40 6 -67 22q-28 17 -52 53q-23 33 -40 67q-18 33 -32 64q-14 32 -23 69q-9 36 -10 71t3 72q3 21 7 38zM215 212q11 -5 12 -16v-11q1 -8 11 -28q5 -9 11 -17q15 -1 27 -3q8 -1 15.5 -3.5t14 -10t5.5 -18.5l-2 -8h1
q24 -11 45 -12q22 0 40.5 5t28.5 12q12 8 22.5 17.5t18.5 20.5t14 21q6 11 10 23q4 13 5 25q0 15 1 29t5 38q3 21 4 42q1 22 1 40q0 16 -2 33q-2 15 -5 27q-5 15 -10 32t-7 22q-3 5 -9.5 13.5t-17.5 17.5q-12 10 -24.5 17.5t-30.5 15.5q-17 7 -32.5 9t-24.5 1t-23 -5
q-13 -5 -25 -15q-15 -13 -27 -26q-11 -12 -21 -26q-10 -15 -17 -30q-7 -14 -9 -24q-3 -12 -6 -37t-4 -50t1 -48q1 -24 2 -44q2 -16 2 -29zM136 537q15 1 34 3q29 2 59 1l-11 13q-18 22 -25 33q-10 -5 -18 -11q-16 -11 -28 -26zM256 614q23 -6 50 -17l28 -10q-3 18 -3 42
l-23 -2q-23 -3 -44 -10q-4 -2 -8 -3zM403 627q1 -2 1 -4q11 -23 20 -37q12 15 28 33q-23 4 -46 7q-2 0 -3 1zM528 595v-36q1 -21 1 -39q19 10 44 16q9 1 16 1q-9 16 -20 28q-19 19 -35 27q-3 1 -6 3zM608 490l-33 -66q-3 -7 -6 -13q16 2 36 3q9 0 15 -1q-1 24 -5 46
q-3 17 -7 31zM618 340q-11 -13 -28 -29q13 0 21 -5l4 -2q1 12 3 27v9zM532 98q-7 4 -13 10q-8 -14 -23 -44q-4 -6 -5 -10l5 5l31 34zM410 8q-4 6 -10 14q-12 18 -20 27q-1 0 -2 -1l-41 -18l-53 -23q32 -4 56 -5q25 0 47 2q12 1 23 4zM233 21q0 2 1 4q3 7 23 44q3 7 6 12
q-10 7 -19 14q-7 5 -12 10q-6 1 -12 1q-31 2 -54 5q-5 0 -10 1q13 -23 29 -45q19 -29 40 -42zM136 151q5 7 16 19t19 35q2 4 3 7q-17 5 -47 13q-23 6 -29 23q-4 11 0 23q3 11 14 24q24 29 41 66q8 19 8 28l-33 26l-29 21q-6 -18 -10 -50q-4 -36 -3 -67t9 -64t21 -62z
M116 469l33 -26l34 -25q1 5 1 9q4 15 12 33q9 17 20 34q4 6 8 11q-25 1 -52 -1q-30 -2 -46 -6h-3q8 -12 -1 -22zM194 168q-6 -12 -16 -22q14 -2 27 -3q-7 15 -11 25zM295 64l-6 -12q-2 -3 -3 -5q13 6 25 11zM418 59l12 -17l8 -12l26 51q3 6 5 11q-11 -11 -25 -20
q-11 -7 -26 -13zM512 146q16 2 28 -9q7 -6 15 -10q3 8 5 20q7 42 16 75q8 31 12 49q1 2 1 4q-7 0 -17 -3q-25 -7 -34 -10l-4 -2q-3 -15 -3 -24q-1 -13 -2 -28q0 -18 -6 -35q-4 -14 -11 -27zM540 314l25 23q24 22 38 41q-28 -2 -44 -6q-8 -1 -16 2q-1 0 -3 1q1 -9 1 -17
q0 -18 -1 -41v-3zM534 421q0 1 9 18q17 36 29 59q-20 -5 -32 -13q-10 -5 -19 -6h-4q2 -6 6 -19q5 -18 9 -31zM493 515q0 19 -1 44v49l-8 -8q-19 -20 -33 -38q-4 -5 -8 -8q3 -1 5 -3q16 -9 29 -21q9 -7 16 -15zM387 578q-7 12 -15 29q-2 5 -5 10q1 -15 3 -28q0 -5 1 -8h1
q7 -1 15 -3zM174 323q-15 -28 -35 -51q-5 -6 -7 -11q2 -1 5 -1l40 -11q-1 15 -2 34t-1 40z" />
    <glyph glyph-name="P" unicode="P" horiz-adv-x="629" 
d="M378 319q-5 -29 -6 -36q-3 -14 -17 -19h22q15 0 27 0.5t24 2.5q12 1 22 3q9 1 19 5q11 5 19 9q6 4 13 13q6 7 10 13l-25 6q-26 6 -42 11q1 -11 3 -19q1 -11 -4 -18q-9 -11 -18 -10t-16 8l-6 7q-14 14 -25 24zM103 -1h3q21 1 38 1t35 1h18q1 15 0 30q-1 19 1 39q1 7 2 15
q-14 -11 -38 -32q-31 -28 -57 -48l-2 -1v-5zM79 -36q-12 5 -12 17q-8 1 -13 7t-4 13.5t7 12.5l10 8q1 13 2 29q2 18 4 46t3 51v20q-11 9 0 22v8q-1 26 -3 57.5t-5 58.5q-2 29 -3 66t-1 65q-1 29 4 70q4 37 1 65l-1.5 8.5t-1 12.5t1.5 11t6 11.5t13 6.5q9 1 29 4q21 2 45 6
q26 4 55 8l64 9q37 6 73 7q37 1 61 -3t45 -10q25 -7 37.5 -16t23.5 -26q8 -13 16 -24q7 -9 11 -17q6 -9 9 -18q4 -9 7 -18t5.5 -18.5t5.5 -19.5q2 -10 4 -17q1 -9 1 -21q0 -13 -3 -26l-2 -8q6 -12 -1 -24q-2 -4 -5 -6l-2 -12q-3 -16 -5 -29l-6 -25q-3 -15 -9 -27
q-6 -13 -17 -25q-11 -14 -23 -21q-11 -6 -24 -11t-25 -8q-12 -2 -25 -3l-26 -2t-29 -1h-33h-35q-19 -1 -39 -3q-17 -2 -37 -9q-5 -2 -8 -4q1 -14 3 -34q2 -22 4 -37q2 -16 3 -35q1 -20 -1 -40q-2 -17 -1 -34q1 -18 0 -35q0 -6 -2 -13t-8.5 -13.5t-17.5 -5.5q-7 1 -24 0
q-19 -1 -37 -1q-16 0 -35 -1l-20 -1q-6 -1 -10 2zM221 350q6 2 11 1l10 -3q9 -2 14 -3h23t31 2q15 1 37 6q1 0 3 1q7 9 20 9q6 0 11 -2q3 1 5 1q16 5 28 13q10 6 18.5 22t8.5 30q0 16 -4 29q-3 11 -7 17q-6 7 -17 15q-11 7 -21 11q-12 5 -23 8q-10 3 -27 6q-18 3 -40 6
q-22 4 -44 5q-21 1 -31 -2q-2 0 -3 -1q-2 -9 -4 -27t-3 -40q-2 -22 -1 -43t4 -53zM105 52l33 28q24 22 39 33l-54 30q-6 3 -11 6v-2q-1 -24 -3 -53q-2 -24 -4 -42zM111 212q29 11 54 17l-13 9q-28 21 -44 32q1 -6 1 -12zM105 312q5 2 13 2.5t14 -0.5t13 -2.5t8 -1.5
q15 -3 29 -5l-23 14l-47 29q-7 5 -10 10q1 -22 2 -40q1 -3 1 -6zM101 383q6 9 20 14q11 5 21 8q-14 7 -24 9l-18 5q1 -17 1 -36zM100 466l8 4q21 9 37 15q-13 4 -24 7q-14 4 -18 14q-2 -22 -3 -40zM105 529q4 4 10.5 7.5t11.5 5t12.5 3.5t9.5 2q14 4 26 8q-9 2 -17 2
q-26 3 -38 4q-9 1 -14 4q1 -17 -1 -36zM105 582q5 7 14 16q-9 -1 -15 -2q0 -6 1 -12v-2zM286 622q1 -4 1 -8v-8l14 14q3 2 5 4zM387 628q5 -13 6 -32q1 -5 1 -10q23 12 44 19q16 4 29 5q-7 3 -17 6q-21 6 -42 10q-9 1 -21 2zM498 577q-4 -12 -11 -20q-6 -8 -11 -14l37 -8
q8 -2 12 -5l-2 6q-3 7 -7 14t-10 16q-4 5 -8 11zM535 498q-4 -9 -17 -21q-3 -2 -5 -5q17 -9 30 -19v3v14q-2 6 -4 15q-2 6 -4 13zM529 379l-8 -2q3 -6 6 -11q1 6 2 13zM327 264q-12 2 -29 6l-15 4q0 -7 -2 -12q13 1 26 1q12 1 20 1zM246 257q-9 3 -22 5q-19 4 -55 9
q3 -2 5 -4l32 -24q7 4 15 7q13 5 25 7zM190 197q-8 -1 -16 -3q-21 -5 -45 -14q5 -3 11 -6l55 -29v-1q-2 13 -3 31q-1 13 -2 22zM236 312h1l22 -15q2 8 8 12h-14q-7 1 -17 3zM290 309l16 -4q20 -5 32 -6q1 6 3 16q-15 -3 -26.5 -4.5t-24.5 -1.5zM452 362q13 -5 42 -11
q-4 7 -7 13q-2 5 -3.5 10t-2.5 13.5t3.5 15t15.5 7.5q9 2 30 5q1 0 2 1q-16 14 -37 25q-16 9 -19 23q-3 13 4 25q4 6 12 14l-29 6q-3 1 -6.5 2t-10.5 4t-9.5 7t-5 10.5t3.5 14.5q4 7 17 24q-2 -1 -4 -1q-18 -5 -38 -16q-45 -24 -50 9l-3 31q0 14 -4 22q-10 -6 -27 -23
q-23 -21 -30 -30q-2 -3 -5 -6l16 -2q24 -3 41 -7q18 -3 30.5 -6.5t26.5 -8.5q15 -6 29 -16q15 -11 23 -21q10 -12 15 -31q5 -17 5 -38q0 -23 -13 -47q-6 -10 -12 -18zM259 560q-3 4 -5 14q-2 17 -3 39q-12 -3 -33 -9l-38 -13q19 -4 37 -11l2 -0.5t3.5 -1.5t4.5 -2t5.5 -2.5
t5 -3.5t4.5 -4.5t3 -5.5h14zM187 521q-9 -3 -19 -6q6 -1 11 -3q3 -1 6 -3zM181 460l-10 -4l-30 -11q16 -6 34 -16q2 -1 5 -3q0 15 1 30v4zM182 377l-15 -2.5t-20 -5.5l31 -19q4 -2 7 -4l-1 9q-1 12 -2 22z" />
    <glyph glyph-name="Q" unicode="Q" horiz-adv-x="731" 
d="M458 73q4 -8 9 -15q12 -22 21 -44q5 -10 9 -10q15 -1 41 0q23 0 50 7l-57 25q-31 14 -61 30zM172 86q-10 4 -13 14q-2 3 -2.5 7t-0.5 7t1 8.5t1.5 8t2.5 10t3 9.5q9 35 17 54q3 7 6 13q-20 1 -37 1q-20 0 -36 1q-8 1 -13 4q2 -8 5 -17l17 -49t17 -40l19 -31q2 -2 3 -4
q2 0 10 4zM447 92v4q1 6 4 10t6.5 6t8.5 3t8 1t7 -0.5t5 -0.5q25 0 46 1q-10 8 -24 21q-7 6 -9 8q-3 -2 -5 -5q-17 -16 -42 -30l-12 -6q1 -3 4 -8q2 -3 3 -4zM309 115q12 -1 28 -1q23 0 49 7q25 7 48 20q22 13 35 25q12 11 15 22q5 12 7 34q3 23 3.5 48t-1.5 48q-2 24 -4 45
q-3 20 -7 41q-4 20 -8 35q-5 15 -11 26q-7 11 -16 22q-10 12 -19 21q-8 7 -21 15q-11 6 -28 7q-17 2 -38 -5q-22 -6 -43 -19t-37 -27q-15 -14 -26 -30q-10 -16 -13 -32q-4 -17 -5 -39q-1 -20 3 -40q3 -20 12 -43q9 -25 18 -47l16 -40l12 -30l10 -25q4 -10 8 -18q3 -6 8 -14z
M265 116q-1 2 -1 3q-4 7 -7 15q-16 -9 -34 -25l-4 -4q1 0 8.5 4t11.5 5t13 3t13 -1zM587 -69l14 15q22 24 32 34q4 3 7 6q-2 1 -3 2q-11 -4 -39 -11q-31 -9 -59 -9q-8 -1 -16 -1q10 -6 20 -11q15 -6 25 -11l10 -5q6 -2 9 -9zM275 84l-1 -2q-8 -13 -17 -32l16 21q6 9 9 12z
M343 78q7 -14 16 -29l10 -16q6 22 10 47q1 1 1 2q-19 -4 -37 -4zM524 198q11 2 24 5q19 4 33 10l-10 12q-14 17 -25 34q-9 15 -4 29t24 20q12 3 22 9q-7 4 -14 10q-14 10 -31 20q-6 3 -10.5 8.5t-7 14t3.5 17.5q4 6 13 11q14 9 37 31q3 2 4 4q-2 3 -7 5l-48 23
q-12 6 -14.5 17.5t1 21t10.5 18.5q15 17 23 31q-7 1 -16 3q-17 3 -48 0q-32 -3 -39 -5q-4 -1 -9 0q10 -6 17 -14q10 -9 21 -23q12 -13 20 -27t14 -33q5 -17 9.5 -39.5t7.5 -43.5q2 -21 4 -46t2 -52q-1 -27 -4 -51q-1 -11 -3 -20zM420 557q-5 7 -4.5 15t4.5 27q1 6 1 11
q-2 -2 -3 -2q-15 -9 -29 -24q-9 -9 -19 -17q6 0 12 -1q21 -1 38 -9zM309 552l-4 6l-17 30l-19 -48l-4 -13l14 10q15 9 30 15zM221 489q-8 3 -23 10l-32 14q8 -19 21 -56q0 -1 2 -6t3 -9q5 14 13 26q7 11 16 21zM182 392q-2 -1 -5 -1q-7 0 -28 -4q-14 -2 -32 -7l33 -14
q20 -8 32 -16q-2 15 -1 31q1 5 1 11zM194 295q-3 -3 -7 -5q-13 -10 -43 -36h6q21 0 44 -2q9 0 17 -3q-7 16 -13 33q-2 7 -4 13zM225 213l-11 -24q-7 -16 -15 -48q-1 -4 -2 -7l2 2q21 18 39 29l5 3q-5 12 -10 27q-4 8 -8 18zM457 -3l-2 4q-8 19 -19 39q-8 12 -14 24
q-3 5 -7 11q-7 -37 -15 -65q-6 -22 -17 -28q-8 -6 -16 -2.5t-11.5 7t-5.5 7.5q-9 16 -22 36q-9 16 -17 32q-4 -5 -9 -12q-25 -34 -41 -51q14 -4 28 -9q17 -5 35 -8q17 -3 32 -4h34q16 1 25 3l17 5q8 4 15 7zM211 25q3 17 11 36l4 8q-8 -3 -20 -8q-16 -7 -22 -9q9 -12 19 -21
zM94 254l6.5 8.5t6.5 7l7 6t5 3.5q30 27 45 38q-9 8 -27 15q-28 11 -51 22q0 -17 1 -35q2 -31 7 -59v-6zM88 408q2 0 4 1q29 10 52 14q8 1 15 2l-7 21q-13 41 -21 58q-4 11 -8 19q-1 -2 -2 -3q-13 -24 -20 -48q-7 -25 -10 -45q-1 -8 -3 -19zM148 558q14 -3 18 -5
q31 -15 46 -21q7 -3 13 -5l11 26q16 44 25 63v1q-17 -4 -32 -10q-26 -9 -47 -21q-20 -12 -33 -27zM304 626q5 -5 11 -13l19 -32l29 29q12 12 24 21h-2q-22 1 -46 0q-16 -1 -35 -5zM458 616q0 -11 -3 -24q0 -2 -1 -7q11 2 26 3q16 2 28 2q-12 6 -26 14q-12 7 -24 12zM573 521
q-8 -12 -20 -26q-2 -2 -3 -4q15 -8 42 -21q1 0 2 -1l-4 12q-8 18 -14 33q-2 4 -3 7zM610 409q-3 -4 -6 -6q-20 -19 -35 -30q15 -9 26 -17q13 -10 23 -17q-1 2 -1 6q-2 10 -2 21q-1 9 -2 17q-1 9 -3 21v5zM623 299q-4 -5 -8 -7q-15 -11 -36 -18q9 -13 19 -26q7 -7 12 -13
l4 21q6 23 8 33q1 5 1 10zM598 181q-18 -8 -43 -13q-12 -3 -23 -5q26 -22 35 -31q5 -6 10 -10v1q5 15 13 33q6 15 8 25zM562 83l-12 -3q-12 0 -26 -1l22 -10q7 -3 13 -6q0 6 1 11t2 9zM608 -98q2 -6 0 -12q-3 -7 -10 -10t-14 0l-13 5q-7 3 -10 10t0 13l-9 4q-9 5 -24 12
q-16 7 -31 18q-15 10 -25 20q-1 1 -2 1q-4 -1 -8 -3q-8 -4 -17 -7q-9 -4 -21 -7t-33 -4h-36q-18 1 -38 5q-19 3 -38 9l-35 10q-18 6 -34 16q-16 9 -30.5 22.5t-27.5 30.5q-12 16 -22 31q-11 15 -21 34q-11 20 -20 44l-17 51q-9 29 -14 59t-7 63t-0.5 64t5 52.5t10.5 48.5
q8 29 24 56q15 26 32 45t42 34q24 14 53 24q29 11 62 17.5t58 8.5q26 1 50 0q25 -2 44 -7q18 -5 35 -9q18 -6 35 -16q14 -9 26 -14q12 -7 24 -13q16 -9 28 -28q9 -15 15 -24q8 -11 15 -28q7 -15 14 -34q8 -19 12 -35q5 -16 7 -27q3 -12 4 -24t2 -20q2 -9 3 -20
q0 -9 1.5 -17.5t3.5 -21.5q2 -11 3 -22q0 -12 -2 -25l-7 -34q-6 -23 -10 -40.5t-6 -30.5q-3 -15 -11 -35q-7 -17 -12 -31l-10 -25q-3 -8 -5 -19q-1 -1 -1 -2l22 -18q12 -10 20.5 -16l23.5 -16q6 -4 11.5 -9t9 -15.5t-6.5 -18.5l-16 -18q-10 -9 -32 -32z" />
    <glyph glyph-name="R" unicode="R" horiz-adv-x="616" 
d="M192 304l-12 18l-17 22q-4 5 -3 12.5t7 12.5q2 2 5 3v1q0 3 -1 8q-5 -3 -11 -5q-15 -7 -33 -18q-9 -6 -14 -11q1 -2 3 -3q18 -11 46 -25q17 -8 30 -15zM205 405l12 -7q9 -6 28.5 -11t44.5 -4q27 1 48 4q20 2 33 6q11 4 17 9q4 3 5 5q1 6 1 13t-1 12q-2 6 -8 15.5
t-12 16.5q-8 9 -15 16q-4 5 -12 10q-10 5 -19 9q-8 4 -22 9t-29 12q-12 6 -35 9q-21 2 -34 0q1 -2 0 -4v-18q-1 -17 -1 -38v-44q2 -7 -1 -15v-5zM211 361v-2q1 -8 -4 -14l1 -2q11 -13 18 -27q6 14 10 28q1 2 4 7q-2 1 -4 1q-14 4 -25 9zM360 270q-12 7 -16 29q0 1 -1 3
q-2 -6 -5 -12q-11 -23 -12 -24q3 0 5 -1q16 -1 26 -4l1 1q0 4 2 8zM410 276q19 -1 40 -1q-4 7 -5 14q-15 -8 -32 -12q-2 -1 -3 -1zM290 347q3 -10 7 -28l4 -22l4 8q1 1 5.5 12.5t9 19t9.5 13.5q-17 -2 -37 -3h-2zM362 354q6 -4 8 -12q6 -17 9 -36q10 2 25 6q24 6 47 23
q2 1 4 3q-12 5 -34 12q-18 6 -23 16q-7 -4 -16 -7t-20 -5zM430 408q14 9 32 22q19 14 25 24q-6 1 -13 1q-14 1 -33 0l-4 1t-10 3.5t-11 5.5q8 -12 11 -22t3 -23v-12zM408 479q0 6 11 13q6 4 24 21l-41 -2q-5 -1 -10.5 -0.5t-14.5 3t-13 9.5t0 18q2 7 2 16q1 12 4 32q1 4 1 8
q-15 -6 -36 -20q-23 -14 -37 -26q0 -1 -1 -1q11 -5 21 -9q14 -5 24 -9t21 -11q13 -7 22 -17q6 -7 14 -15q5 -5 9 -10zM248 564q-1 6 -3 15q-1 11 -3 23q-11 -1 -30 -4q-23 -4 -59 -12q-21 -4 -37 -12q21 -5 47 -12q8 -3 16 -8q8 7 20 10q19 4 47 0h2zM171 505l-17 -7
q-25 -10 -43 -21q3 -2 5 -3q18 -8 43 -18q6 -2 11 -4v17q0 20 1 36zM414 -3q-1 1 -1 2l-6 14q-3 9 2 16q0 9 -2 19q-3 13 -5 27q-1 12 -3 25q-3 15 -5 30q-2 14 -4.5 27t-5.5 23q-2 8 -6 15t-15 18q-10 10 -15.5 12.5t-18.5 4.5q-17 1 -35 1q-18 1 -42 -1q-23 -2 -38 -6
q-6 -1 -9 -3q-2 -7 -4 -21q-2 -20 -3 -46t-1 -48v-44q0 -22 -6 -49l-1 -4.5t-1.5 -6t-1.5 -6t-2.5 -7t-4 -6t-5.5 -5t-7 -2.5t-9 0h-18q-14 0 -31 1q-19 2 -33 9q-22 9 -24 30q-2 12 -1 34t4 52t6 64q3 35 3 71v12l-1 1q-23 13 1 31q0 14 -1 29q-2 36 -6 78q-4 41 -5 48
q0 7 -2 46q-1 38 -1 73t1 51q0 12 7 22.5t20 11.5q11 1 41 5t65.5 7.5t72.5 5.5q38 2 68 1q31 -2 59 -6q29 -6 53 -17q22 -11 37 -22q14 -10 23 -21q10 -11 19 -18q12 -11 20 -23t13 -22q4 -9 8 -19q4 -11 6 -25q2 -13 2.5 -27t0.5 -24q-1 -11 -3 -21q-3 -12 -12 -27
q-6 -12 -11 -21q-5 -12 -14 -23l-19 -21q-12 -15 -22 -23q-2 -2 -4 -5q9 -6 18 -15q12 -11 19 -22q8 -11 13 -22q4 -10 7.5 -22.5t5.5 -23.5t4 -25l4 -27q2 -14 3 -28q1 -11 3 -23q2 -14 2 -23q0 -6 4 -23q4 -23 -1 -38q-8 -20 -32 -24q-13 -2 -34 -4q-22 -2 -39 -1h-15
l-1 1l-8 -8q-5 -5 -12.5 -4.5t-13 6t-5 13t5.5 12.5zM446 27l2 2q28 26 43 45q-31 -3 -33 20q0 11 9 22q12 15 15 29q-22 3 -44 9q-7 2 -13 8q3 -13 5 -27l4 -28q3 -15 4 -29q1 -11 4 -23q3 -13 4 -25v-3zM418 192q4 9 16 18q16 15 22 29h-3q-28 0 -54 2l-14 1l4 -4
q14 -14 21 -25q5 -10 8 -21zM271 267l-9 42q-4 -13 -9 -24q-6 -15 -12 -20q4 1 8 1q12 1 22 1zM187 253h-27q-17 0 -41 1q19 -15 39 -35q4 -4 8 -9q2 17 7 28q5 10 14 15zM162 162q0 -1 -1 -1q-15 -5 -46 -13q7 -6 14 -11q20 -15 32 -26q0 21 1 45v6zM161 54q-1 0 -3 -1
q-19 -5 -46 -8q-5 -1 -24 -3q0 -15 1 -22q0 -1 2 -2q9 -4 22 -5q15 -1 28 -1h13q1 4 2 9q4 18 5 33zM90 79l18 2q16 1 28 4q-12 10 -29 23l-13 11l-2 -21t-2 -19zM99 181q3 1 4 1q19 5 32 9l-2 2q-17 17 -32 29zM101 290h20q10 0 20 -1q-25 13 -41 23q0 -11 1 -22zM95 379
q5 4 13 9q20 13 38 20l16 8l-16 7q-26 10 -45 19l-12 5v-8q1 -6 5 -48q0 -6 1 -12zM87 504q21 14 53 27q-27 7 -46 10q-5 1 -8 2q0 -19 1 -39zM86 597q8 6 16 10q-9 -1 -15 -2q0 -4 -1 -8zM273 623q3 -5 4 -12q1 -10 4 -28q15 12 35 25q12 8 23 14q-7 0 -15 1q-23 1 -51 0z
M407 609q2 -10 -1 -26q-3 -18 -4 -28q0 -4 -1 -8l45 2q26 2 35 0q12 -2 16 -8.5t0.5 -14.5t-8.5 -15.5t-10 -12.5l-5 -5l-1 -0.5t-1 -1.5h5q15 -1 26 -3q15 -2 19.5 -14.5t1.5 -24.5q-6 -22 -41 -48l-33 -23l19 -7q14 -6 22 -13q5 6 7 9q6 6 9 13l13 25q6 10 7 17
q2 7 2.5 15.5t0.5 19.5q-1 12 -3 23q-1 11 -4 19t-7 16q-3 7 -10 17q-5 8 -14 15l-21 21q-7 9 -18 17q-12 9 -32 18q-6 4 -14 6zM491 233v-1q-7 -24 -31 -46q13 -3 26 -5q17 -2 25 -13q-1 8 -2 14q-2 10 -5 20t-6 19zM516 134q-3 -10 -8 -21q7 0 11 -2l-2 20q0 1 -0.5 2z
M524 58q-15 -21 -44 -49q6 0 13 1q20 2 33 4q2 0 3 1q2 5 -1 17q-4 19 -4 26z" />
    <glyph glyph-name="S" unicode="S" horiz-adv-x="633" 
d="M88 171q14 -7 9 -22l-4 -11q-4 -10 -7 -13v-3q0 -3 4 -15q3 7 7 15l21 45l3 8q-19 -2 -33 -4zM144 138q-4 -9 -10 -21q8 6 14 10q-2 5 -4 11zM167 96q-10 -6 -24 -17l-22 -18q12 -13 25 -20q20 -12 43 -22q23 -9 51 -14q1 -1 2 -1q-4 12 -9 23l-13 29q-13 6 -25 14
q-17 11 -28 25v1zM265 44q1 -1 1 -3q3 -6 6 -14q3 8 8 16h-7q-4 1 -8 1zM323 48q-14 -25 -25 -49q27 0 48 5q23 6 46 16q13 5 24 10q-7 3 -10 4q-13 11 -29 21q-5 3 -9 6q-2 -1 -3 -1q-20 -8 -42 -12zM434 97q1 -5 3 -11q9 -24 11 -36q0 -2 1 -3q13 8 23 15q13 10 19 20
q7 10 13 29l4 10q-23 -3 -45 -9q-12 -3 -21 -6q-3 -3 -6 -7zM448 145l6 2q29 7 62 12q-7 4 -14 7q-16 7 -37 14q-22 9 -31 16q2 -5 4 -11l9 -33q1 -4 1 -7zM423 217q0 5 2.5 10.5t7 11.5t8 9.5t10 9.5t8 7t7.5 7q-18 1 -58 -3q-21 -2 -38 -3q9 -4 16 -10q18 -13 32 -33
q3 -3 5 -6zM301 293q0 5 3 11q6 13 19 34l6 10q-14 0 -36 -1q-28 -1 -59 -5q-30 -3 -50 -7q-3 -1 -8 -1q9 -7 18 -12q19 -10 47 -15q32 -5 59 -13zM151 359q1 7 11 16q15 14 40 34q21 16 32 27l-2 4q-6 2 -12 3q-24 7 -50 13q-27 6 -57 15q-8 3 -15 5q-1 -3 -1 -5
q0 -18 4 -28q4 -12 14 -28q11 -17 21 -35zM109 520q6 1 13 2l75 13q37 7 54 12q-5 8 -13 18q-15 20 -29 45q0 1 -1 2.5t-2 3.5q-7 -3 -13 -5q-14 -7 -28 -16q-12 -9 -22 -21q-12 -13 -19 -23q-6 -9 -15 -31zM278 638q2 -1 5 -2q34 -14 62 -33q6 -4 10 -5v1q11 22 30 55
q-23 0 -47 -4q-29 -4 -53 -10q-3 -1 -7 -2zM436 649q0 -9 -2 -23q-2 -24 -3 -50q11 3 30 9q29 10 53 10q-3 4 -7 8q-14 16 -31 28q-17 11 -37 18h-3zM542 533q-11 -16 -42 -43l-29 -26q-3 -3 -6 -4q3 -7 6 -13q2 -4 7 -3q17 1 40 1q14 0 20 2q3 3 6 10q4 10 4 21q0 14 -2 29
q-1 12 -4 26zM449 492l28 25q28 25 36 37q2 3 4 5q-20 0 -46 -8q-33 -10 -44 -14q-14 -4 -22 4.5t-9.5 18t-0.5 18.5q0 10 1 21q-5 -8 -8 -16q-7 -14 -19 -19q-20 -8 -44.5 9.5t-55.5 29.5q-9 4 -18 7q8 -13 16 -23q13 -18 21 -28q2 -2 3 -5q20 4 38 4q29 -1 57 -12
q28 -12 45 -30q10 -11 18 -24zM209 501q-2 -1 -5 -1q-18 -4 -35 -7q5 -1 9 -2q15 -3 30 -7q-1 8 1 17zM261 412q-13 -14 -37 -32q-2 -1 -4 -3q6 1 11 1q31 4 61 5q8 0 16 1q-17 8 -34 19q-7 4 -13 9zM369 356q-1 -14 -16 -38q-5 -9 -10 -16q25 -1 62 3q32 3 52 3q-3 2 -5 4
q-17 11 -38.5 22.5t-44.5 21.5zM505 261q-7 -8 -21 -22q-12 -12 -19 -20q6 -2 12 -5q23 -8 40 -15q2 -1 3 -2v3q0 16 -3.5 30.5t-10.5 29.5q-1 0 -1 1zM53 138l-1 3l-2 11q-1 7 3 12q-1 2 -1 4l-2 8q-2 15 8.5 22t21.5 9q17 2 41 4q10 2 24.5 0t21.5 -14q6 -10 8 -31
q2 -15 7 -26q0 -1 1 -2q7 1 14 -1q11 -4 23 -16q12 -10 25 -35q0 -1 1 -1q13 -5 29 -6q13 0 25 1q12 20 24 24.5t34 -1.5q5 -1 11 -3q10 4 20 9q2 1 3 2q0 17 21 25q-1 4 -1 8l-9 30q-4 14 -14.5 28.5t-23.5 24.5q-14 10 -32 17q-19 8 -44 15q-24 8 -54 13q-34 6 -58 18.5
t-42 32.5q-18 19 -30 39l-20 34q-12 19 -18 34q-6 16 -6 42l2 14q-13 8 0 24q3 5 7 8q2 4 4 10q11 30 20 43l21 27q14 15 30 27q16 10 33 18t45 17t53.5 15t56.5 11q31 4 60 4t56 -7q26 -8 47 -22.5t38 -33.5q18 -20 27 -40q10 -19 15 -40q5 -19 6 -37q2 -16 2 -32
q0 -18 -7 -34q-7 -18 -19 -26q-12 -9 -40 -9q-22 0 -37 -1q-29 -3 -41 22q-8 14 -17 33q-7 16 -19 29q-11 12 -32 21q-21 8 -44 9q-23 0 -51 -11q-27 -11 -32 -16q-2 -3 -1 -7q1 -5 9 -18q10 -4 16 -9q8 -7 8 -16q8 -6 16 -11q23 -15 43 -24l46 -21q25 -10 48.5 -22.5
t41.5 -24.5q19 -13 37 -29q18 -17 28 -37q10 -18 14.5 -36.5t4.5 -39.5q0 -9 -1 -21q23 -15 13 -35q-6 -12 -21 -16q-4 -16 -9 -29q-8 -23 -17 -37t-27 -28q-16 -13 -40 -25q-22 -11 -48 -22t-51 -18q-26 -6 -59 -6q-32 0 -63.5 6t-56.5 17q-26 10 -48 24q-23 13 -43 36
q-13 5 -13 16q-11 16 -16 31q-6 20 -6 29v7q0 5 3 9z" />
    <glyph glyph-name="T" unicode="T" horiz-adv-x="735" 
d="M253 629q0 8 5.5 13t13.5 5h9q2 1 5 3l6 2h-2q-32 0 -68 -6t-62 -11h-1q7 -8 11 -17q12 -30 18 -48l3 -6l28 29q20 21 34 33v3zM415 528l-1 -16q-1 -28 -3 -65v-4q1 -1 2 -1q15 -11 23 -21q13 -23 -16 -42q-6 -3 -13 -8v-6q-3 -44 -2 -88q0 -21 1 -41q4 -4 8 -7
q23 -20 -6 -46q3 -34 7 -53q5 -25 8 -58q3 -34 2 -62q-1 -29 -10 -52q-13 -33 -39 -31q-15 0 -39 7l-37 10q-25 6 -34 29q-6 17 -8 58q-2 39 -3.5 76.5t-2.5 83.5q0 46 2 87q2 39 3 69q1 29 4 54q3 23 4 46t1 37q-1 16 -2 22v8q-10 2 -30 5q-16 3 -35 6q-21 -11 -32 3
q-30 2 -52 2q-27 -1 -39 -1t-19 8.5t-6.5 18t0.5 17.5q3 22 4.5 34t1.5 19q1 5 3.5 9.5t4.5 7.5t8 5.5t8 3.5t9.5 3l7.5 2q28 8 55 13q27 6 64 12q38 6 72 6.5t74 -3.5q16 -2 30 -3q3 0 7 -1q16 -1 30 -3q29 -2 51 -4q21 -2 49.5 -3.5t52.5 -1.5q25 0 45 -1q21 -2 37 -6
q11 -3 17.5 -15.5t-4.5 -26.5q-6 -5 -11 -13q-2 -3 -4 -8q0 -9 -8 -15q-1 -2 -2 -5q-9 -20 -12 -31q-9 -29 -53 -18q-25 6 -55 5q-32 -1 -64 -4q-33 -3 -45 -3h-9zM345 602q-4 -5 -8 -11q-14 -17 -26 -39q-7 -9 -17 -16q6 -7 6 -15v-7q6 8 16 20l36 51q4 7 6 12zM374 629
q6 -2 11 -5q3 -2 5 -4v0.5v1.5q-1 10 -2 18q-6 -4 -14 -11zM392 583q-3 -7 -10 -17q-18 -28 -38 -54q-9 -12 -16 -20q27 -12 48 -26q1 27 2 48l2 26q1 14 14 17v5q-1 8 -2 21zM334 642l10 8v1q-22 1 -41 2q4 -2 7 -8q13 -1 24 -3zM372 391l2 34q-7 5 -16 10q-20 13 -42 23
q-9 4 -14 7q0 -9 -1 -20q-1 -23 -4 -48q-3 -24 -4 -52q0 -11 -1 -15q6 9 15 16l50 35q9 5 15 10zM370 346q-23 -15 -41 -29q-4 -3 -6 -6q10 -11 26 -25q10 -9 20 -17v7q-1 35 1 70zM371 200q0 10 -1 20q-1 1 -4 3.5t-4 3.5l-36 31q-20 18 -32 32q-2 2 -3 4q-1 -9 -1 -18
q-2 -39 -2 -84q1 -21 1 -40q10 5 25 14zM374 160q-20 -13 -42 -25l-31 -18l18 -16l32 -27l27 -23q6 -4 11 -8l-2 25q-3 32 -8 55q-3 15 -5 37zM386 -12q-2 -1 -4.5 -3t-3.5 -3q-12 -9 -23 -16q13 -3 22 -3q2 2 4 8q3 8 5 17zM302 -18l15 5q15 6 40 24q3 3 7 6q-3 3 -7 6
q-14 10 -30 24l-31 27l-4 4l2 -45q2 -35 6 -47q1 -3 2 -4zM265 550q1 8 6 30l4 18q-12 -11 -30 -30l-12 -12q4 -1 7 -1q17 -3 25 -5zM152 565q-6 15 -16 38q0 1 -1 3q-6 -10 -13 -24l-8 -16q18 0 38 -1zM91 599q6 12 11 21q-6 -2 -10 -3q0 -6 -1 -14v-4zM424 643q1 -9 2 -20
q0 -16 1 -29l20 20q14 14 25 24q-20 2 -45 5h-3zM559 634q4 -10 6 -19l2 -8q6 2 12 6q25 12 36 20h-32q-11 0 -24 1zM620 593l-25 -13q-19 -9 -25 -11q14 -1 27 -4q6 -2 11 -2q4 12 12 30zM545 571q-6 4 -8.5 12.5l-6.5 22.5q-3 11 -9 24q-5 -3 -11 -8q-16 -11 -37 -33
q-14 -13 -24 -24l16 2q33 3 67 4h6.5h6.5z" />
    <glyph glyph-name="U" unicode="U" horiz-adv-x="689" 
d="M114 643l7 3q23 6 41 7q17 1 26 0q4 -1 7 -2t6 -3t4.5 -4t3 -5.5t2.5 -5.5t2 -6t1.5 -5.5t1 -6t0.5 -5.5q4 -28 3 -55q-2 -26 -3 -49q-1 -22 1 -44q1 -17 3 -43q6 -8 8 -21q3 -16 -3 -33q1 -19 2 -36q1 -30 4 -61q1 -8 2 -15q15 -11 23 -23q12 -19 -2 -43q-5 -8 -12 -16
q2 -9 3 -16q5 -21 13 -38q3 -8 6 -14q7 -1 15 -3q24 -6 33 -9q17 -8 14 -25q11 3 25 9q18 8 34 21t32 29q14 14 23 32t15 38q5 22 10 54q4 33 7 65l4 63l4 64t4 60q1 27 1 51v45q0 19 -1 29q-1 21 15 30q11 7 35 6q14 0 28 -2q6 1 18 1q4 1 13.5 -2.5t15.5 -8.5
q12 -8 12 -21q0 -4 1 -13q7 -6 6 -16q0 -9 -5 -15q0 -15 1 -34q26 -9 10 -31q-3 -4 -8 -9q1 -17 1 -36q0 -42 -3 -84q-2 -29 -3 -55q1 -3 1 -6q0 -1 -1 -2v-11v-63q0 -24 -3 -50q2 -4 -1 -7v-2q-4 -30 -12 -57q-7 -28 -18 -48t-23 -38q-13 -18 -28.5 -33.5t-32.5 -27.5
t-37 -21q-20 -8 -48 -15q-31 -8 -62 -6q-30 2 -66 11t-62 17q-29 9 -54 33q-23 23 -41 50t-31 61q-12 33 -20 71l-14 75q-6 39 -10 74.5t-6.5 78t-1.5 78.5t4 68q4 33 8 51q5 24 18 33l6 4q6 4 13.5 3t11.5 -7q2 -3 3 -7zM109 605l5 -2q25 -9 43 -17q12 -6 18 -17
q8 -15 -1 -36q-11 -26 -41 -53l-18 -16l28 -7q24 -6 39 -12q-1 8 -1 14q-2 24 -1 49q1 23 3 49q1 23 -3 48q-1 7 -2 12h-15q-13 -1 -32 -6l-20 -6h-2zM186 403q-5 3 -12 6q-14 6 -40 13q-29 7 -46 12h-1v-13q2 -41 6 -76q3 -25 8 -53q0 3 1 6q5 10 19 20q24 16 47 35
q13 11 20 20l-2 23v7zM191 326v-1q-23 -18 -47 -35l44 -16q3 -1 7 -2q-3 27 -4 54zM199 231l-22 9q-29 9 -54 19q-14 6 -20 17q0 -2 1 -3q6 -38 13 -74q7 -35 19 -65q3 -8 6 -15q0 2 1 5q3 9 13 17q17 12 39 33q5 4 9 9q-1 9 -2 19q-1 14 -3 29zM212 140q-12 -11 -23 -19
q16 -5 31 -8q-5 13 -8 27zM241 72q-9 2 -18 3l-52 13q-11 3 -18 8l10 -16q16 -24 36 -44q19 -18 40 -25q5 -1 10 -3q-4 11 4 19q4 4 13 15q-1 0 -1 1q-12 9 -21 24q-2 2 -3 5zM415 74q16 -5 24 -24l2 -6q4 37 4 58l-3 -3q-13 -13 -27 -25zM472 140q10 -2 21 -15
q14 -15 28 -26q4 16 1 33q-5 21 -12 38q-9 18 -6 30q-6 2 -10 4q-2 -9 -5 -18q-6 -24 -17 -46zM500 241l7 6q16 13 40 41l27 31q-10 0 -20 -2q-25 -3 -38 -4q-4 -1 -8 0v-1.5v-0.5q-3 -32 -8 -67v-3zM513 380q12 17 27 34l22 28q-11 2 -17 7q-8 7 -7 15.5t4 13t6 7.5l33 31
l3 4q-20 0 -30 -1q-20 -3 -21.5 9.5t7.5 25.5l9 14q-2 -1 -3 -1q-24 -7 -18 13q4 16 19 38q2 2 5 4h-2q-9 -2 -15 4h-2h-13q1 -11 1 -29v-45q0 -25 -1.5 -52.5t-3.5 -60.5q-1 -30 -3 -59zM591 476l-2 -2h2v1v1zM589 418q-9 -12 -22 -27q-17 -20 -30 -40q0 1 2.5 1t5.5 0.5
t4 0.5q21 3 37 3q1 18 2 38q1 12 1 24zM585 277l-11 -13q-14 -16 -26 -28q18 -1 37 -3v21v23zM580 188q-7 -1 -17 -2q-12 -1 -20 -2q9 -20 14 -44q2 -13 2 -25q7 14 12 32q5 20 9 41zM525 60q-11 0 -22 8t-22 18q-1 -19 -4 -45q-1 -17 -2 -26q4 3 7 5q15 10 28 24q8 8 15 16
zM427 -5q-2 4 -5 9q-9 13 -17 34q-12 -5 -27 -12q-19 -8 -55 -20q-19 -6 -30 -10q2 0 5 -1q34 -8 60 -10t51 5q10 2 18 5zM86 487q10 8 23 20q24 22 32 40q1 3 1 6q-17 8 -40 16l-11 4q0 -5 -1 -11q-3 -31 -4 -65v-10z" />
    <glyph glyph-name="V" unicode="V" horiz-adv-x="722" 
d="M339 45l43 49l13 15q-12 -3 -30 -8q-24 -7 -37 -14q1 -6 3 -11q4 -17 8 -31zM136 542q8 15 19 47q5 15 7 23q-8 3 -17 8q-17 7 -39 14q-5 1 -10 3l7 -18l28 -66zM391 50l-27 -31l-12 -13v-1h-1l3 -3q8 -2 20 -2q3 -1 5 0q1 2 1 6q-1 16 6 34q2 5 5 10zM294 287
q-3 -7 -6 -12q-2 -4 -3 -8q7 1 16 1q-1 1 -1 2q-3 8 -6 17zM251 421q-8 -12 -14 -22q10 1 21 0q-4 12 -7 22zM193 588q-2 -5 -4 -11q-11 -32 -20 -49q7 -1 15 -2q18 -2 34 -5l-13 37q-6 16 -12 30zM197 405l25 38q8 11 13 20q1 2 2 3q-2 5 -3 8q-1 2 -2 6q-3 1 -5 2
q-21 5 -47 8q-13 2 -23 3q4 -8 7 -15l27 -60q3 -6 6 -13zM309 141q12 22 24 50q-4 7 -9 19q-5 10 -9 21q-2 0 -4 1q-19 1 -39 -3q9 -22 19 -43zM251 281q3 6 5 11q11 19 18 36q2 4 4 9q-3 9 -6 19q-1 3 -2 7h-14q-21 1 -38 -2q14 -30 26 -60q3 -10 7 -20zM319 -11q-3 1 -4 2
q-8 8 -5 20q-2 6 -3 12q-4 17 -11 44q-5 19 -11 37q-3 6 -5 13q-9 25 -22 54l-25 59q-2 5 -4 11l-19 47l-25 59l-10 21q-9 18 -16 35l-29 61l-16 38l-16 37l-28 66q-12 28 -17 44q-4 12 -2 20q3 8 8 11.5t11 3t9.5 -1.5t5.5 -2q4 -2 10 -4h10q11 0 31 2q21 3 30 5
q24 5 37 -26l16 -37.5t19 -48.5q11 -27 22 -62q5 -2 8 -3q8 -4 12 -13.5t2 -18.5q-1 -4 -6 -13q1 -4 2 -7q3 -7 5 -14q7 -21 13 -42q9 -1 16.5 -6.5t10.5 -14.5q3 -12 -3 -31q-2 -4 -4 -10q2 -5 3 -9l15 -45l7 -19q10 -3 19 -6q6 -3 11 -8q8 19 16 41l23 63l21.5 59.5
t19.5 57.5l17 49q7 22 16.5 46t17.5 39q7 15 12 27q8 20 32 28q18 6 38 6h28q13 -1 21 -4q7 -2 15 -5q14 -5 21 -19q2 -5 3 -10t0.5 -9.5t-2.5 -12t-3.5 -11.5l-5 -14t-5.5 -15q-18 -51 -39 -97l-36.5 -84.5l-27 -64.5t-24.5 -66q-15 -42 -33 -77l-35 -68q-8 -18 -15 -31
q-6 -12 -13 -24q-8 -14 -13 -27q-5 -10 -4 -18q1 -20 -10 -33q-12 -12 -34 -11q-14 0 -25 3q-18 3 -28 22zM412 254l-13 -33q-13 -29 -28 -38q-1 -1 -3 -2q-1 -1 -1 -3l2 1q13 5 42 13q20 6 35 12q-2 3 -5 6q-17 20 -29 44zM443 339l21 7q35 11 54 15q-1 2 -1 4
q-14 24 -37 59q-1 2 -4 6l-10 -30l-22 -60zM501 506l8 4q30 17 61 40q9 7 14 12q-12 8 -33 18q-9 4 -17 8l-16 -36q-9 -23 -16 -44q0 -1 -1 -2zM549 620l17 -7q32 -15 47 -28q6 -5 8 -11q1 1 1 3q12 33 14 46q-7 2 -13 4q-5 1 -13 2h-26q-14 0 -27 -4q-6 -2 -8 -5zM606 533
q-6 -6 -14 -12q-33 -25 -66 -43q-17 -9 -28 -14q4 -8 12 -20q21 -32 34 -55q2 4 3 9l38 85q11 24 21 50zM517 324l-43 -13q-28 -8 -42 -13q2 -6 5 -14q13 -28 31 -51q6 -6 9 -12q10 21 18 44q12 35 22 59zM451 167q-13 -4 -31 -9q-27 -8 -38 -13l-13 -4q-10 -4 -18 3
q-3 -6 -5 -11l8 2q28 8 41 12q16 4 25 4q10 0 18 -9q6 13 13 25z" />
    <glyph glyph-name="W" unicode="W" horiz-adv-x="909" 
d="M367.5 662q4.5 6 12 7t13.5 -3l4 -3q6 17 20.5 25.5t31.5 4.5q23 -6 56 -17q35 -12 45 -17q13 -8 15.5 -25t-0.5 -30q-3 -31 4 -77q6 -47 17 -95t23 -88q6 -19 10 -33q15 40 28 93q4 19 9 38l-2 4q-11 20 14 41l8 28q16 54 21 65l13 40q9 30 10 43q2 14 12.5 20t21 5.5
t21.5 -3.5l53 -14q18 -5 26 -19.5t4 -33.5q-5 -27 -23 -81q-19 -52 -34 -103.5t-26.5 -101l-23.5 -98t-26 -93.5q-2 -4 -3 -8q5 -11 -4 -26q-4 -7 -9 -14q-6 -19 -12 -36q-14 -38 -17 -60q-4 -22 -5 -28q-1 -13 -10.5 -18.5t-18 -4t-13.5 1.5q-24 2 -32 3q-6 1 -11 4.5
t-7.5 7t-4.5 10t-3 10.5t-2 11.5t-2 8.5q-7 40 -23 89q-17 51 -32.5 105t-25.5 96q-3 12 -5 22q-14 -43 -30 -86q-18 -48 -31.5 -90t-24.5 -81l-17 -56q-5 -14 -5 -20q-2 -26 -42 -25q-25 1 -46 1q-22 1 -30 1q-5 0 -9 1t-7 4.5t-5.5 5.5t-4.5 7.5t-3 7t-3 8l-2 6.5l-26 79
t-31 117l-29 130q-15 65 -28 116q-14 51 -31 99q-17 49 -23 71l-2 8q-4 4 -5 10q-1 5 1 9q2 13 14 16q8 2 15 -3l32 5q47 6 66 9q13 1 23 -6q13 -9 14 -29q0 -18 8 -62l18 -99q4 -16 7 -32q11 -8 6 -24q5 -22 11 -44l24 -80q11 57 29 118l33.5 113l25.5 85q2 5 3 9q0 3 2 6
l2 8q-2 1 -3 2l-9 7q-6 4 -7.5 11.5t3 13.5zM672 138q-7 9 -24 44l-1 -4l-16 -29q-6 -11 -14 -24q11 2 25 5q18 5 30 8zM633 218q-8 33 16 44q6 2 13 2h14q-11 11 -21 25q-2 2 -4 5v-2q-15 -42 -37 -37q-1 -2 -2 -5q-1 -1 -1 -2q-10 -24 -17 -39l35 9h4zM472 534q-5 4 -10 9
l-54 39l-22 -73q-3 -10 -7 -21q15 5 33 14q29 14 60 32zM340 145v2v7v27q-1 11 -4 30l-11 -9q-18 -17 -43 -46q-18 -23 -26 -38q16 0 44 2q22 2 37 3q1 12 3 22zM375 188l2 3q4 6 11.5 8t13.5 -2q1 -1 3 -2q7 23 16 47q2 6 4 11l-14 1l-41 9q-3 0 -6 1q1 -8 3 -16
q7 -38 8 -60zM500 389l35 -14q15 -5 -7 -26q-8 -8 -10 -7h-3q3 -11 6 -26l18 33q11 20 17 32l-42 6zM433 430q9 7 33 29q31 28 44 43l2 2q-3 3 -8 7q-41 -24 -76 -41l-30 -14l22 -17zM330 245q-2 10 -3 16.5t-1.5 18.5t5.5 18t19 5q7 -1 27 -5l10 -2l-29 26q-15 14 -20 23
l-13 -60l-7 -37q7 1 12 -3zM105 619l7 -3l42 -14q16 -5 29 -10q-4 23 -4 37q-19 -3 -62 -9zM196 513q-7 -12 -18 -29l-21 -32q25 -5 48 -6q2 -1 5 -1q-2 9 -4 17zM227 372q-13 -19 -28 -38l-1 -1h2q24 4 37 5l-6 21q-2 7 -4 13zM261 260l-14 -28q-2 -4 -5 -9q11 3 22 7
q3 1 6 1zM346 375q9 7 26 7q28 0 68 -1l-42 30q-19 14 -33 29q-6 -22 -13 -43zM428 643q11 -7 25 -15q44 -26 70 -44q3 -2 5 -4q0 14 1 27q1 14 0 22q-10 4 -35 13l-54 16q-3 1 -5 0t-5 -8q-1 -3 -2 -7zM540 481l-3 -3q-14 -16 -46 -46q-3 -2 -7 -5q17 -1 35 -4l34 -5
q-1 2 -2 6q-6 29 -11 57zM574 337q-2 -3 -3 -6l-20 -35q11 3 20 5q8 1 13 2q-4 13 -9 31q-1 1 -1 3zM669 345q6 4 15 6q34 10 45 18q-9 10 -30 29l-14 12q-1 -7 -3 -14q-6 -27 -13 -51zM699 464q-1 -6 -3 -13q10 -11 27 -27l31 -27q6 23 13 46q10 37 23 75l-55 -32
q-21 -12 -36 -22zM714 516q2 0 3 1q49 27 64 38q-3 6 -9 15q-20 26 -27 33l-2 2q-9 -29 -13 -39q-3 -8 -16 -50zM753 641q6 -1 10 -5l8 -8q9 -8 30 -36q6 -8 9 -14q10 30 13 47q1 8 0.5 9t-4.5 2l-53 14q-6 2 -11 3q0 -5 -2 -12zM737 332q-14 -7 -42 -15l-13 -5l1 -1
q17 -22 34 -37q1 0 2.5 -1.5l2.5 -2.5zM712 228q-3 -1 -7 0h-37q2 -8 8 -20q10 -22 19 -39q9 29 17 59zM650 30q0 -1 -0.5 -1.5l-0.5 -0.5q-17 -18 -23 -26q-2 -3 -2 -5v-8v-4q6 -1 12 -1q2 -1 5 -1q1 8 3 20t6 27zM602 30q7 9 20 23l39 40q3 3 6 7q-8 -2 -17 -5
q-39 -9 -55 -9l-8 2q9 -31 15 -58zM575 125q2 4 5 9q12 18 20 32l4 8l-28 -8q-5 -3 -14 0q7 -21 13 -41zM552 202q2 6 6 13l20 47q0 2 1 4l-2 -1q-19 -3 -39 -10l-1 -1l13 -47q1 -2 2 -5zM456 345q-40 0 -70 1l42 -39l12 -12l14 42q0 2 2 8zM360 53q-10 -14 -23 -30l-25 -29
q12 -1 24 -1h6q2 9 6 20zM266 -5q1 4 4 7l7 6q6 6 32 38q19 24 31 41q-16 -1 -38 -3q-38 -2 -56 -2q-6 1 -12 3l24 -74q4 -10 7 -16h1zM221 128q8 20 34 50q6 8 12 15q-23 -7 -38 -13q-11 -4 -21 2q6 -28 13 -54zM200 217q2 6 15 32q19 36 25 53q-13 -1 -32 -4
q-18 -4 -25 -4zM169 354l2 2l39 53q-4 0 -8 1q-23 2 -48 6q8 -29 15 -62zM136 484l12 19q23 36 31 50q-14 8 -36 15t-39 13q4 -13 10 -29q12 -33 22 -68z" />
    <glyph glyph-name="X" unicode="X" horiz-adv-x="692" 
d="M412 619q6 12 19 11h1q7 15 16 23q11 10 39 14q25 2 42 1q15 -1 25 -2t15 0q9 1 19 0q21 -2 28 -20q5 -15 -11 -44l-27 -49l-31 -54l-32 -57q-16 -32 -31 -58t-20 -34q-6 -10 -21 -29q-3 -3 -6 -7q18 -11 4 -29q3 -4 7 -11q12 -19 18 -31q4 -9 9 -18l14 -20q1 -1 2 -3
q19 3 26 3q12 0 18.5 -10.5t3.5 -19.5q-2 -7 -8 -20l10 -12q16 -18 37 -39l29 -29q9 -9 17 -22q6 -10 11 -15q6 -9 7 -15.5t-5 -13t-10 -10t-9 -5.5q-19 -10 -34 -14l-27 -6t-26 -5q-12 -3 -19 -5q-19 -5 -31 11q-6 7 -21 31t-25 42l-22 38q-13 20 -23 38l-18 30t-12 21
l-4 6l-32 -41l-33 -44q-2 -2 -4 -5q1 -10 -12 -16l-14 -20q-11 -14 -19 -29q18 -19 -18 -34q-5 -12 -9 -20q-10 -18 -32 -16q-10 2 -22 3q-11 1 -19 2t-18 1q-9 0 -24 -1q-17 -1 -28 0q-17 1 -21 17.5t1 23.5q5 19 11 32q5 13 12.5 27.5t21.5 36.5q13 21 27 46l27.5 46
l26.5 41l24.5 36l19.5 31q10 17 22 28q0 1 -1 2q-1 2 -1 3q-10 17 -29 42q-20 27 -37 57q-17 29 -32 59q-15 29 -26 56q-11 25 -18 39t-12 26q-9 7 -7 19v3l-4 1q-4 2 -7 6q-15 7 -9 22q2 7 8.5 10.5t13.5 0.5l10 -3q9 -3 21 -6q12 -4 24 -7t19 -4q8 -1 16 -3q9 -1 17 -2
q13 -3 31 -19q16 -14 27 -32l22.5 -36.5l24.5 -41.5q12 -19 21 -32l16 -24l2 -2l4 8l18 33q9 18 22 39q13 20 22 38l14 24q-6 8 -2 17zM374 218q5 -5 7 -10q6 -8 10 -15q4 -8 12 -21q8 -12 18 -30l22 -38q4 -5 7 -11q1 2 7 10q15 20 30 47l-4 6q-4 3 -6 7q-18 -4 -26 -6
q-12 -3 -24 6t-7 24q4 10 9 24q1 2 1 4q-10 1 -30 2q-15 1 -26 1zM337 238q-3 9 9 16q5 3 18 14q12 10 30 23q-1 3 -1 5q-4 2 -9 5q-4 -3 -17 -9l-55 -27l-22 -11l42 -15q3 0 5 -1zM329 347q-6 7 -9.5 13t-5 12t2.5 9t15 3q6 -1 33.5 1t62.5 11q-12 8 -30 19l-5 3t-8 5
t-7.5 5.5t-7.5 7.5t-4 8q-8 -14 -16 -22q-11 -9 -25 -6q0 -19 -10 -35q-11 -16 -22 -30q8 -1 18 -2zM172 613q7 -3 14 -7q7 -3 12 -6q0 1 -1 2q-9 8 -13 9zM244 535q-4 -5 -9 -12q-9 -9 -16 -17q5 -1 9 -1q21 -2 36 -4zM302 442q-4 -6 -9 -12q4 1 7 1q4 1 8 1zM381 472
q2 1 6 2q17 3 53 21q36 19 63 38q6 5 11 8l-19 16q-20 15 -46 26l-3 2l-14 -24q-10 -19 -23 -40q-12 -20 -21 -37q-4 -6 -7 -12zM465 616q29 -13 52 -31q18 -14 26 -21q2 4 4 7l27 49q3 5 5 10h-6q-8 -1 -21 0q-11 1 -27 2q-13 1 -34 -1q-14 -2 -19 -5q-3 -3 -7 -10z
M499 487q-20 -12 -43 -24q-22 -11 -39 -18q31 -18 44 -28q11 19 22 42zM426 358q-26 -6 -49 -8q17 -13 27 -19q4 5 11 13q6 8 11 14zM414 261l-11 -8q10 -1 17 -1q-2 1 -2 3zM512 122l-12 -21q10 3 20 5q2 1 5 1l-11 13zM570 61q-3 -17 -8 -30l5 -5q3 -6 2 -13l6 2
q10 2 25 10q-3 4 -6 9l-12 15zM513 2q-2 4 -1 9t2.5 7.5t4 5.5l2.5 3q9 15 14 42q0 2 1 4q-5 -1 -8 -2l-44 -11q-8 -2 -13 -3q8 -14 19 -31.5t17 -25.5q2 1 6 2zM308 178q-18 0 -37 -1q-28 0 -50 1l13 -15l33 -39l29 38q6 9 12 16zM227 70q-11 1 -27 2q-8 0 -16 1l24 -21
q5 -3 5 -4q7 12 14 22zM92 11h31q29 1 69 8l-2 2q-3 2 -4 3q-20 16 -40 36q-14 13 -17 22q-1 -2 -2 -3q-13 -21 -20 -34.5t-12 -24.5q-1 -4 -3 -9zM145 108q4 2 11 2q17 0 47 -2q17 -1 32 -2l-28 33l-26 30l-26 -43zM211 214q24 -1 59 -1q13 1 26 1l-28 9l-2.5 1t-3.5 1.5
t-4 1.5t-5 2t-4.5 2.5t-4 3l-3.5 3.5t-3 4t-2 4.5t0 5.5q-2 -2 -3 -4zM249 273l2 2l45 22q13 6 28 14l-18 2q-15 3 -27 4q-2 -10 -10 -17t-16 -20q-2 -4 -4 -7zM260 369q8 8 17 21q-6 -2 -12 -3q-9 0 -19 2zM227 416q0 1 1 1q7 6 23 21q13 12 22 26q-17 2 -49 5q-16 2 -33 8
l16 -29q10 -17 20 -32zM173 510q2 3 5 5q11 10 29 32q2 3 5 5l-10 6q-11 6 -31 16q-14 7 -33 15q6 -13 13 -30q9 -23 22 -49z" />
    <glyph glyph-name="Y" unicode="Y" horiz-adv-x="694" 
d="M645 644q1 -13 -11 -19q-2 -5 -6 -14q-10 -24 -27.5 -56.5l-34.5 -61.5q-17 -30 -40 -76l-44 -88.5l-36 -71.5q-17 -32 -24 -40q-3 -3 -4 -6q-2 -6 -5 -35l-10 -76q-6 -41 -10 -62q-3 -20 -3 -28t1 -14q1 -11 -7 -18.5t-17.5 -8.5t-42.5 1h-28q-7 -1 -11.5 0t-8 4.5
t-6 6.5t-4 8.5t-2 8.5t-1 8.5l-0.5 5.5q-5 30 -8.5 61.5t-4.5 54.5t-3 40q-2 18 -4 32q-1 16 6 40q3 11 -7 22q-18 19 -37 44l-37 54q-20 30 -38 68q-17 36 -36 72t-30 59l-11 22q-7 13 6 23q-3 3 -4 6q-3 7 0 14t10 10l6 2q10 4 27 5q15 1 29 -1q14 -1 22 -3q15 -2 29 -24
q11 -15 23 -34q11 -19 25 -41q14 -23 27 -48q12 -24 25 -46l23 -38q8 -13 15 -22q12 9 23 26q13 20 26.5 44t27.5 53l26 58q10 24 23 46q-3 16 12 23q7 12 10 22q10 25 36 28q15 1 41.5 -0.5t49.5 -3.5q33 -4 42 -21q11 -4 12 -15zM399 274l-33 31l-24 24q0 -3 -1 -6
q-9 -28 -25 -57l-1 -2l8 2q26 5 47 6q18 1 29 2zM147 596q-3 4 -6 6q-7 1 -17 2q-12 2 -25 1q-11 -1 -14 -2l-3 -1q0 -1 1 -2h15q23 -1 49 -4zM184 538l-8 -21q4 1 7 1q7 1 12 1zM229 458l-19 -32l-4 -6h16h29l-4 6zM362 381q17 -2 62 -15q6 -2 11 -3q-2 7 -5 14
q-11 29 -29 62l-2 2q-1 -3 -3 -5q-14 -25 -27 -46q-3 -5 -7 -9zM430 502q22 2 60 9q16 3 26 6q-6 8 -12 15q-12 15 -39 42q-1 0 -2 1q-5 -12 -11 -24q-10 -24 -22 -49zM498 644l23 4h3q-13 1 -21 0q-3 0 -5 -4zM593 621q-28 -3 -66 -9q-26 -4 -43 -7q2 -2 6 -5
q29 -29 42 -45l16 -20l21 36q15 29 24 50zM518 480q-8 -2 -21 -4q-47 -8 -69 -11q1 -4 4 -9q20 -35 32 -66q2 -6 3 -11l27 54zM440 325q-8 1 -26 6t-31 9q4 -4 8 -9l35 -33zM379 195q-20 -20 -36 -32q0 -1 -5 -4q3 0 4 -1q22 -4 31 -12q2 15 4 34q1 8 2 15zM366 99
q-1 -1 -3 -2q-27 -19 -50 -30q17 -10 27 -15q11 -6 18 -8q3 18 8 55zM354 7l-1 1l-7 2q-8 3 -22 9l-28 16q1 -9 2 -17q1 -7 3 -12h24q20 -1 29 -1v2zM289 95q1 0 2 1q21 10 46 27h-2q-36 8 -50 23q0 -8 1 -16q1 -15 3 -35zM284 162q3 4 10 8q7 5 27 21q18 15 48 45
q-18 -2 -39 -6q-22 -4 -34 -9q-4 -2 -15 0q-2 -11 -2 -18q2 -13 4 -31q0 -5 1 -10zM278 272q3 5 7 11q13 25 21 49q-4 -1 -8 -1q-11 -2 -24 -10q-16 -9 -22 -14q-1 0 -2 -1q9 -11 18 -20q6 -7 10 -14zM226 339q2 3 6.5 9l7.5 10q10 15 15 26h-33h-27q1 -2 3 -4
q14 -22 28 -41zM170 428q3 7 9 17q15 24 22 38q-6 0 -13 -1q-16 -2 -28 -5q-7 -1 -13 0l16 -34q3 -7 7 -15zM131 507q1 2 4 7q7 11 15 37q1 5 1 7q-2 1 -5 2q-24 3 -44 4l24 -47q3 -5 5 -10z" />
    <glyph glyph-name="Z" unicode="Z" horiz-adv-x="714" 
d="M55.5 547q-5.5 5 -5.5 12.5t5 13.5l11 12q5 24 13 56q0 1 1 6.5t1.5 7.5t2.5 7t3.5 8t4 6.5t5.5 5.5t7.5 3t9.5 1q11 -1 31 -11q13 -6 40 -7q16 7 26 7t17 -7q8 0 16 1q31 2 50 1t40 -2t52 -3t64 -2t57 1q25 1 38.5 0.5t23.5 -1.5q15 -3 25 -14q11 -13 9 -33l-2 -21
q0 -11 -2 -20q-3 -11 -16 -31q-12 -20 -24 -36l-25 -30q-11 -12 -35 -45l-49 -70q-10 -17 -20 -31l2 -2q7 -9 2 -22t-18 -14q-3 -1 -17 -3l-25 -30q-12 -13 -26 -38q-4 -7 -7 -13q6 -12 -17 -32q0 -2 -1 -3q-11 -23 -16 -32l-5 -10q-2 -8 -7 -17v-3h26q24 -1 40 -1
q17 -1 28 -2q12 0 27 -1t30 -1h31l35 -2h33q16 0 27 -1h22q14 1 30 0q14 -1 22 -1q14 0 18 -15t-5 -22q-4 -4 -9 -13q-6 -9 -15 -38q14 1 19 -12q2 -7 -1.5 -14t-10.5 -9l-14 -5q-3 0 -5 -1q-1 -3 -1 -5q-3 -12 -13 -21t-25 -3l-20 7q-7 2 -20 5q-14 -6 -22 5l-60 9l-14 2
q-30 -24 -43 2q-1 1 -2 3l-27 2l-95 8q-45 3 -77 3h-22q-1 -1 -6 -4.5l-8 -5.5q-6 -4 -13.5 -3t-11.5 8q-1 1 -2 3q-24 -1 -35 4q-16 8 -20 30q-2 15 0 31q1 15 3 22q2 12 17 27l24 25q12 14 35 46l45 65l2 4q-6 13 3 24q6 7 18 12q3 1 7 3l14 18q20 27 38 47q16 19 29 37
q4 6 9 12q-9 23 12 30q4 1 14 4l27 36q12 17 19 25q4 5 6 11h1q-6 2 -14 3q-28 5 -67 7q-39 3 -74 3q-37 0 -69 5q-32 4 -56 10q-23 5 -31 7l-7 2l-4 2q-6 -3 -12 -2l-6 2q-8 0 -13.5 5zM578 -12v-1h-1q2 -1 3 -1zM577 41q0 1 1 3l6 21q0 2 1 4h-15q-11 1 -25 1h-19
q5 -3 9 -11q4 -9 10 -39q1 -7 2 -13l3 3zM113 629v1l18 12q-1 1 -2 1q-6 3 -11 5q-2 -6 -4 -15q-1 -3 -1 -4zM206 631q-7 0 -14 1q-6 -2 -11 -5q-27 -11 -45 -25q-16 -13 -31 -28l3 -1q7 -2 29 -7q23 -5 53 -10q12 -2 26 -3q-3 10 -6 42q-2 24 -4 36zM242 632q2 -12 4 -34
q2 -15 3 -25l32 19l60 37q2 1 5 2q-13 1 -14 1q-21 1 -39 2t-47 -1q-2 0 -4 -1zM428 627q-1 -6 -7 -26q-7 -23 -13 -39q17 7 39 15q32 13 65 29q29 14 48 21q-7 1 -16 2q-12 0 -35 -1q-25 -1 -59 -1h-22zM564 586q-19 -11 -42 -29q-32 -25 -54 -39q-6 -4 -11 -7l3 -2
q13 -5 25 -17q4 -4 7 -8l15 18q12 13 23 28q11 14 23 32q9 15 11 20v4zM444 418q-21 -6 -45 -12q-12 -4 -22 -6q-1 -1 -1 -2q5 -5 10 -11q8 -11 20 -26q7 10 14 22zM380 325l4 6l-0.5 0.5l-0.5 0.5l-26 32q-1 2 -3 4l-4 -4q-13 -19 -31 -40q-7 -8 -14 -17q33 12 64 16
q6 1 11 2zM344 282q-19 -5 -40 -13q-24 -9 -41 -16q-2 -2 -3 -4l12 -6q18 -9 32 -14q3 -1 5 -2l8 14q14 25 27 41zM264 135q-8 -6 -17 -11q-20 -14 -36 -22q21 -1 37 0h11q0 1 1 3v1q-4 15 4 28v1zM279 77q0 -5 -2 -9t-5.5 -7.5l-6 -6t-6.5 -5.5l-4 -3l-23 -19q11 0 24 -1
q2 3 3 4l18 15q20 17 46 28l8 4h-11q-22 1 -32 -1q-3 0 -9 1zM400 74v-1q14 -16 25 -48l4 -12q3 -1 6 -1q3 3 7 6q31 29 47 42q8 7 17 11q-14 0 -30 1h-30q-16 0 -31 1q-8 0 -15 1zM616 69h1h-1zM512 1q-1 6 -3 12q-1 8 -3 15l-24 -22q16 -3 30 -5zM390 16q-9 24 -17 34
q-2 2 -4 3q-11 -4 -32 -13q-17 -7 -30 -17l72 -6q5 0 11 -1zM171 28l4 3q22 15 46 34l-29 2q-32 2 -51 4q-5 3 -10 7q-5 -6 -7 -9q-1 -6 -2.5 -17t0.5 -22q0 -2 1 -3q7 -1 22 0q12 0 26 1zM173 125q5 2 9 3q16 6 46 26l61 42q-15 6 -33 15l-16 9l-46 -66zM413 447
q25 7 47 12q2 1 5 2l-5 5q-6 6 -9 8q-7 2 -14 6q-3 -6 -7 -11q-6 -7 -17 -22zM361 547q1 2 5 8q8 16 21 58l-28 -16l-59 -35l-16 -11q22 0 46 -2q17 -1 31 -2z" />
    <glyph glyph-name="a" unicode="a" 
d="M349 248q4 -7 6 -10l6 -6q6 -8 3 -17h1q8 2 14 -2q15 -4 15 -18v-7q0 -8 -2 -20q-2 -7 -7 -17h3q10 -2 29 -1q15 1 34 1l-21 20l-34 30.5t-31 29.5q-9 9 -16 17zM357 176q-13 -2 -36 -4q-29 -3 -51 -4q-13 -1 -20 -2q-2 -3 -3 -8q-5 -18 -6 -28q-1 -7 0 -12q4 -3 18 -6
q15 -3 24 -3q9 1 18 4q9 4 20 14q13 11 24 28q10 14 12 21zM101 331q5 2 9 2l19 -2q18 -1 31 -1q5 0 13 11q-11 -7 -22 -2l-17 7t-23 12l-4 2q-1 -2 -1 -4q-4 -12 -5 -22v-3zM112 297q-4 -2 -8 -3h-8q-9 -1 -17.5 4t-11.5 14q-3 10 -2 26q2 13 6 28q3 9 7 19q-6 11 3 21
q5 6 12 6q9 14 21 27q15 18 27 30q13 11 26 18q12 6 30 13q19 7 40.5 9.5t42.5 2.5t42 -3q21 -4 37 -8q3 -1 6 -1h1h1q15 3 22 -7q2 -1 4 -1q21 -7 33 -17q10 -9 22.5 -22.5t22.5 -29.5l16 -24q2 -4 4 -9q5 -1 8 -2q15 -5 14 -19.5t-10 -19.5q-1 0 -1 -1l2 -16q2 -20 3 -41
q1 -20 1 -33q1 -10 1 -21q1 -1 2 -3q9 -9 8 -18q-1 -14 -11 -18v-14q0 -22 -2 -39v-4q0 -4 -1 -7q-1 -11 -4 -31q-2 -20 -2 -38q1 -18 3 -28q1 -8 9 -22q3 -5 4.5 -11t2 -13.5t-4 -13.5t-14.5 -8q-11 -3 -34 -7q-25 -4 -50 -2q-32 2 -46 24l-9 15q-3 -3 -8 -7
q-17 -16 -27 -20q-9 -3 -20 -5q-11 -3 -20 -3q-8 -1 -20 -1h-54q-13 0 -31 1q-18 0 -37 4q-20 4 -35 12q-17 9 -28 24q-11 14 -17 27t-10 34q-4 20 -3 36q1 15 6 31l10 28t12 28l15 25q9 13 20.5 24t28.5 23q18 12 42 20q24 9 46 13.5t49 7.5t50 2h23v8q1 8 -1 15
q-1 7 -6 16q-5 8 -13 15q-10 7 -22 12t-24 7q-12 3 -23 3t-18 -2q-4 -2 -8 -6q-6 -5 -12 -16q-8 -14 -22 -34q-19 -27 -43 -27q-14 0 -34 2zM333 209l-5 5q-7 8 -20 33q-1 -3 -3 -6q-8 -18 -21 -37q15 2 34 3q8 1 15 2zM217 184l-14 7l9 -23q4 12 5 16zM204 123
q-5 -3 -18 -9h9.5h9.5q-1 4 -1 9zM251 77q-1 -6 -3 -12q-3 -8 -4 -17q11 14 22 26q-7 1 -15 3zM322 83q1 -3 2 -8q0 -11 2 -18l22 -8q15 -6 34 -11t43 -10q12 -2 23 -2q-9 8 -18 18q-11 13 -30 32q-19 20 -30 35q-3 3 -4 11q-10 -12 -21 -22q-12 -11 -23 -17zM124 393l6 -4
q10 -7 18 -10q5 -2 9 -4q6 9 12 31q6 26 13 46v3q-8 -5 -16 -13q-11 -9 -25 -26q-10 -12 -17 -23zM241 474q4 -6 9 -12q11 -13 21 -23l3 -3q2 3 5 6q10 13 24 27q2 3 5 5q-14 2 -28 2q-19 0 -38 -2h-1zM390 455q-4 -21 -7 -33q-1 -7 -1 -12q2 -1 3 -1q19 -2 41 -6
q8 -1 17 -3q-1 2 -2 3q-9 14 -19.5 25.5t-18.5 19.5q-4 3 -13 7zM468 333q-4 -1 -8 -3q-23 -9 -38 -14q11 -12 25 -24q13 -10 25 -21q-1 8 -1 19q-1 20 -2 38q-1 3 -1 5zM472 202q-13 3 -30 8l-3 1q8 -6 15 -14q10 -8 18 -16v3v18zM467 116h-2q-27 -1 -47 -2h-4q6 -6 12 -13
q19 -19 31 -33q3 -3 6 -7v3q0 21 3 44q0 5 1 8zM328 18q-10 4 -15 5q-16 6 -22 25q-11 -12 -22 -26q-13 -18 -19 -23h15q10 0 17 1q7 0 16 2q8 1 15 4q4 2 15 12zM213 -1q-7 10 -7 30q0 25 8 47l-1 1q-19 3 -48 -2q-33 -5 -57 -8q-12 -1 -18 -2q2 -12 6 -19q4 -9 12 -20
q7 -9 17 -14q11 -6 25 -9q16 -3 32 -3q16 -1 29 -1h2zM89 117q3 0 14 4q26 8 51 18q17 7 26 12q-6 14 -15 38q-10 23 -13 31q-1 1 -1 2q-7 -5 -12 -10q-9 -9 -16 -19q-7 -11 -13 -23q-6 -11 -10 -22l-10 -27q0 -2 -1 -4zM186 242h1q12 -8 30 -18q16 -8 26 -12q4 2 8 8
q13 20 22 37l4 8q-22 -3 -39 -7q-20 -4 -42 -12zM381 278l22 -12q20 -11 41 -18q-10 9 -20 17q-19 16 -33 31q-2 2 -3 4q-1 -7 -3 -13q-1 -5 -4 -9zM386 336q5 6 13 9l46 18q-12 3 -25 5q-21 3 -40 6q-11 1 -18 4q8 -8 14 -18q7 -13 10 -24zM349 389q-4 6 -4 14q0 10 3 25
q2 13 7 33q-5 -1 -10 -3q-6 -3 -16 -14q-13 -13 -22 -24q-4 -6 -8 -10q13 -3 26 -8q13 -6 24 -13zM246 413q-11 11 -22 25q-4 5 -7 8q0 -2 -1 -4q-6 -20 -12 -45q-2 -8 -4 -15q5 9 11 15q11 10 24 14q5 2 11 2z" />
    <glyph glyph-name="b" unicode="b" horiz-adv-x="579" 
d="M222 135q5 -3 8 -7l6 -9q3 -5 9 -8q10 -5 27 -7q17 -3 31 -2q15 2 24 7q11 5 19 11t12 13q5 8 9 16q3 9 10 32q6 21 7 37t0 30t-4 25q-2 13 -5 25q-3 11 -11 26q-7 16 -15 28q-7 11 -14 16q-8 6 -19 10q-12 5 -28 7q-14 3 -27 1q-12 -2 -19 -5q-6 -4 -10 -9
q-5 -8 -12 -26t-11 -47t-6 -55q-1 -26 1 -45q1 -11 5 -25q4 -8 5 -16v-2q1 -1 1 -2zM62 706q-4 9 -6 13l-4 7q-3 6 -1 13.5t8.5 11t13.5 1.5t11 -9l4 -7l11 -26q0 -2 1 -5l39 -5q17 -2 27 -3q20 -3 28 -21q5 -13 1 -38q-2 -19 -3.5 -37t-1.5 -46q-1 -27 -3 -49q12 -9 6 -24
q5 2 12 6q19 9 40 16q5 9 13 12.5t18 -1.5l4 -2q4 1 8 1q20 2 41 0q10 -1 19 -3q7 1 14 -3q4 -2 6 -4q16 -7 28 -18t26 -31l13 -20q15 -2 19 -18q1 -8 1 -15q4 -9 9 -18q8 -19 16 -35q10 -18 15 -33q6 -15 10.5 -29l9.5 -29q4 -15 9 -32q5 -20 5 -41t-5 -47t-11 -41
q-5 -13 -14 -28q-8 -15 -20 -29q-12 -15 -28 -25l-29 -17t-33 -14q-16 -6 -39 -12t-39.5 -7.5t-35.5 -0.5q-22 2 -37 12q-13 8 -23 19q-2 2 -4 5q-4 -8 -6 -13q-7 -16 -20 -23q-12 -7 -38 -4q-21 2 -43 5q-23 4 -31 6q-23 6 -17 41q4 20 9 50.5t11 72.5q6 40 5 73l-2 73
q-1 39 -1 87.5t2 92.5q2 43 2 82q1 27 0 48q-7 6 -7 15q0 7 5 12q-1 23 -5 42q-2 7 -3 13h-3q-7 1 -11.5 7t-3.5 13.5t8 12.5zM166 41l6 9q13 20 23 30q9 8 16 12q-3 3 -6 7l-2 3q-6 2 -10 8q-2 -3 -7 -9q-25 -33 -43 -53q-1 -1 -3 -2l-1 -2h9q11 -2 18 -3zM253 71
q2 -3 4 -8.5t3 -7.5l14 -27q5 7 10 16q7 14 12 22q-15 -1 -30 2q-7 1 -13 3zM344 77q4 -5 6 -8q8 -16 20 -37q3 -3 5 -7q4 8 8 17q14 33 19 51v4q-3 10 -4 16t5 12.5t10.5 9.5t11.5 6.5t8 4.5l25 18h-3q-27 0 -40 -1h-6q-5 -18 -9 -27q-5 -12 -11 -22q-8 -12 -20 -22
q-11 -9 -25 -15zM420 236q16 17 26 32t15 25q-7 1 -16 1q-22 0 -32 17q-8 14 -1 46q4 18 5 30q-7 -8 -14.5 -9t-13 3.5t-8.5 8.5t-5 7q-8 15 -18 44q-2 4 -3 8q-3 -15 -6 -36q0 -1 -0.5 -4.5t-1.5 -5.5q5 -3 9 -6q13 -9 23 -25q10 -14 18 -33q9 -18 12 -32q4 -13 6 -26
q3 -14 5 -30v-15zM294 421q-3 5 -5 10q-7 15 -15 29q-1 -10 -1 -17v-20q10 0 21 -2zM218 408q-14 10 -24 16q-12 6 -19 10q-11 -2 -18 2q-4 -4 -7 -8q12 -2 16 -2q40 0 3 -58l-26 -40q2 -1 5 -1q18 -3 26 -18q5 29 12 49q8 23 16 35q7 9 16 15zM168 257l-9 -16
q-13 -19 -21 -33h3q16 -3 27 -7q-2 20 -1 45q1 5 1 11zM177 153q-1 3 -1 5q-2 1 -4 3q-11 6 -38 11q-9 2 -18 7q-1 -24 -4 -50q-6 -41 -12 -73v-2l16 18q17 19 42 51q15 19 19 30zM157 620q1 11 3 23q1 12 0 18q-10 2 -25 3q-11 2 -25 3q4 -20 6 -44l4 -1q27 0 37 -2z
M153 551q-6 -8 -14 -17q-4 -4 -7 -8q10 -2 20 -5q1 14 1 30zM149 482v0.5v1.5q-3 1 -4 1q-14 4 -28 7q-1 -16 -1 -33q-1 -8 -1 -16l31 35q2 2 3 4zM215 453q10 -6 22 -15v5q0 9 2 21l-18 -8q-3 -2 -6 -3zM305 479l14 -27v5q2 10 6 21q-10 1 -20 1zM445 339v-9h5q-1 1 -1 2
q-2 3 -4 7zM479 253q-2 -2 -3 -4q-11 -18 -29 -38q-5 -6 -10 -11h17q25 1 39 -1q-1 9 -4 17q-4 17 -9 31q0 3 -1 6zM489 142q-14 -9 -34 -24q-10 -7 -16 -12q1 -10 -3 -22q-4 -18 -16 -46q6 4 12 7q11 8 19 18q10 11 17 24t12 24q4 10 9 31zM343 8q-1 1 -3 6l-17 28
q-3 -7 -8 -15q-10 -19 -16 -27h8q14 1 34 7q1 0 2 1zM234 28q-3 5 -6 12q-4 8 -8 14l-1 -1q-3 -3 -9 -10q9 0 16 -7zM140 -3q-3 4 -3 11q-9 1 -20 0q-11 0 -23 9q-2 -6 -2 -11q-1 -1 -1 -2q8 -2 19 -3q15 -3 30 -4zM116 241l13 20q13 20 13 30q-15 2 -25 5q-1 1 -2 1v-15
q1 -21 1 -41zM114 349l25 38l3 6q-5 0 -9 1q-11 2 -19 7v-33v-19zM118 565q9 10 16 21h-15h-1v-21z" />
    <glyph glyph-name="c" unicode="c" horiz-adv-x="554" 
d="M390 308l9 3q24 7 36 8q5 1 10 5q3 3 4 6q2 7 2 14q0 9 -3 27q-3 13 -9 27q-1 -2 -4 -7q-8 -17 -22 -38q-12 -19 -17 -28l-4 -9q-2 -3 -4 -5q1 -1 2 -3zM407 276q0 -13 -10 -18q-7 -4 -14 -1.5t-10 9.5l-4 8q-4 3 -6 10q-3 5 -7 11q-9 13 -26 28q-16 14 -36 22t-30 9
q-9 1 -15 -1q-7 -2 -17 -7q-9 -5 -16.5 -12t-12.5 -18q-1 -1 -1 -2q-1 -7 -5 -15l-4 -12q-4 -19 -7 -39q-2 -18 -0.5 -33.5t6.5 -28.5q3 -7 7 -15l1 -1q8 -6 9 -17q7 -9 14 -17q10 -10 20 -16q10 -7 28 -14q17 -7 31 -8q13 -1 21 2q9 3 14 8t11 17q8 17 17 30q13 19 36 20
q14 1 39 1q28 1 37 -2q17 -4 23 -21q3 -10 4 -27q2 -19 -3 -35q-5 -17 -18 -32q-12 -13 -27 -26q-17 -14 -38 -22q-20 -8 -35 -12l-35 -9q-21 -4 -45 -7t-46 -4q-22 0 -48 4t-44 13q-18 8 -33 24q-14 14 -24 28q-11 15 -16 29q-5 13 -8.5 25t-7 27t-5.5 27t-4 30l-2 12
q-7 6 -11 12.5t-3.5 15t10.5 15.5q1 1 2 1q-1 10 0 21v38q0 21 5 40q4 18 13 37q9 20 19 33q11 13 30 30t40 34q23 19 49 30q25 11 50 15q26 4 51 1q26 -3 51 -14q25 -12 52 -34t42 -47q14 -24 18 -48q4 -22 4 -34t-3 -24q-4 -15 -18 -25q-12 -9 -27 -11q-8 -1 -30 -8h-2z
M364 341q5 10 19 32q12 18 20 33q-15 -3 -36 -8q-40 -11 -51 -15q-13 -5 -23 3t-13 19q-3 -10 -5 -16v-1q13 -2 32 -10q25 -9 47 -28q5 -4 10 -9zM213 377q-18 5 -34 8l-20 2q14 -23 22 -32q1 -2 2 -3l7 7q11 11 23 18zM151 256q-14 -11 -30 -20l-22 -13q1 -1 1 -2
q15 -7 30 -15q11 -6 22 -11q-1 7 -2 16q-2 19 1 42v3zM194 114q-7 -14 -15 -33q-3 -8 -6 -15q22 6 45 11q10 2 19 5q-7 3 -13 7q-14 8 -27 22zM307 62l12 -25q12 14 22 32q-2 -2 -5 -3q-13 -5 -29 -4zM386 120q14 -1 21 -12q5 -7 19 -20l1 -1q-2 11 -4 17q-5 13 -8 22l-2 8
q-1 2 -1 6q-5 -1 -10 -1t-7 -4q-5 -7 -9 -15zM448 141l1 -4l8 -21q3 -10 5 -25q3 5 5 10q3 10 2 22q-1 11 -3 17q-6 1 -18 1zM415 49q-6 5 -14 12.5t-14 14.5l-11 -18q-8 -15 -16 -28l14 4q13 4 31 11zM288 17q-8 19 -16 33q-1 2 -3 3h-1q-16 -5 -42 -11l-49 -12l4 -2
q13 -6 34 -10q22 -3 41 -3zM136 71q3 9 10 24q13 30 23 48q1 2 2 3q-7 4 -17 9q-21 9 -41 19q-4 2 -9 5q1 -10 2 -17q2 -11 5.5 -25l6.5 -25q3 -10 7 -22q4 -9 11 -19zM99 265l4 2q27 16 49 37q9 7 12 13q-4 7 -11 15q-10 12 -26 40q-3 5 -5 8q-4 -7 -8 -16q-8 -17 -11 -32
q-4 -14 -4 -31v-36zM164 423q10 -1 20 -3q23 -3 50 -12q5 -2 9 -2q4 13 11 40q6 23 11 36q-16 -3 -32 -10q-21 -9 -40 -25zM312 486q1 -13 2 -30q0 -16 1 -35l43 12q30 7 45 10q-2 1 -3 2q-23 19 -44 29q-20 9 -40 12h-4z" />
    <glyph glyph-name="d" unicode="d" horiz-adv-x="591" 
d="M408 413q1 -2 2 -3l4 -7q3 -6 1.5 -13.5t-8.5 -10.5q-2 -2 -4 -2l2 -1q7 -4 9 -11t-1 -14q-2 -3 -5 -6q2 -8 4 -20l2 -6q3 2 7 4l53 25q3 1 5 2q-9 9 -21 19zM367 354q-11 4 -26 6q-22 2 -50 -6q-28 -9 -52 -29t-31 -36t-8 -33q0 -17 4 -34t13 -37q10 -20 19 -34
q1 -2 2 -3q31 -3 32 -30l8 -2q11 -4 24 -1q14 4 27 15q14 13 26 36q13 25 20 49q6 23 6 53t-4 50q-4 19 -6 24l-3 7q-1 2 -1 5zM359 478q0 13 -1 30q0 33 3 69.5t10 69.5q7 41 38 57q25 13 44 19q10 4 25 0t18 -19q3 -13 5 -34t5 -47l4 -53q1 -25 3 -55q2 -32 2 -58v-60
q0 -18 1 -35q7 -12 1 -24v-4q2 -29 5 -51q2 -21 6 -49q2 -13 3 -26q5 -9 8 -18q7 -19 -8 -33q0 -18 1 -34q0 -26 2 -50q1 -20 2 -46q2 -28 0 -39q-1 -10 -8.5 -17.5t-17.5 -7.5q-7 0 -29 -3q-21 -2 -30 -5q-8 -4 -20 -1t-17 13l-13 19q-3 -5 -6 -9q-8 -12 -16 -20
q-10 -10 -27 -17q-15 -5 -40 -11q-26 -6 -58 -4q-33 1 -56 8q-24 6 -41.5 18.5t-29.5 28.5q-12 15 -22 38q-10 21 -18 46q-3 9 -6 17q-17 12 -9 27q0 2 -1 4q-7 24 -13 55q-6 32 -8 61q-1 30 5 59q6 25 17 48q-2 9 7 18q1 2 3 3q10 18 23 35q20 25 47 40q24 13 53 26
q29 12 58 18t55 6q21 1 41 -3zM180 100q-15 -4 -30 -9l-31 -9q1 -4 2 -7q7 -23 16 -42t18 -31t22 -21q6 -4 14 -8q-10 16 -12 26q-8 36 -4 68q2 21 5 33zM220 110l-3 -8q-3 -11 -6 -39q-2 -12 -1 -26q3 13 7 33l4 22q1 8 7 12q-3 3 -6 7q-1 0 -1 -0.5t-1 -0.5zM249 44
q-2 -10 -4 -17q-4 -14 -9 -29t-10 -26q-3 -5 -5 -8q15 -3 34 -3q28 -2 50 3t34 10q9 4 14 8q6 6 12 15q2 3 4 7q-21 12 -34 28q-6 7 -10 14q-3 -10 -6 -22q-6 -34 -9 -44q-12 -42 -45 18l-5 11q-7 19 -11 35zM381 387l-2 4q-2 4 -11 15q-4 6 -10 13q-2 3 -4 5q-6 -9 -12 -20
l-4 -8q4 0 8 -1q21 -2 35 -8zM271 385q-8 9 -25 33l-7 -14l-17 -47q23 18 49 28zM167 280h-7l6 -8q0 4 1 8zM184 170l-19 -19l-25 -25q31 10 59 16q-7 13 -14 28h-1zM276 79q4 -15 11 -37q5 23 10 36q-10 -1 -21 1zM337 92q4 -3 7 -10q6 -11 19 -28q12 -15 37 -25
q27 -10 41 -10q11 0 22 2l-17 19q-22 22 -53 46q-24 18 -25 33q-8 -9 -15 -16q-8 -6 -16 -11zM385 145q3 1 10 3q25 5 77 19q14 4 24 9v1v18q-9 11 -22 22q-29 24 -55 43q-1 0 -2 1q0 -31 -7 -56q-8 -28 -23 -56zM397 468q3 1 5 1q6 0 24 1q-21 9 -31 20v-21q1 -1 2 -1z
M394 529q6 8 13 13q16 12 33 30q-7 0 -14 -1l-29 -1q-2 -21 -3 -41zM401 606l24 1q38 2 46 0q0 6 -1 12q-3 27 -5 47q-1 13 -2 22q-17 -5 -37 -16q-16 -8 -20 -31q-3 -17 -5 -35zM475 556l-3 -3h-1q-21 -23 -42 -39l-3 -3q9 -6 27 -13q16 -6 25 -11q0 12 -1 25q-1 24 -2 44z
M479 441q-16 -5 -24 -6q-8 0 -17 -1l41 -35v42zM483 312l-46 -21q2 -1 3 -2q24 -17 49 -38q-2 15 -3 28q-2 15 -3 33zM495 137q-6 -2 -13 -5q-41 -11 -68 -17q35 -26 58 -50q19 -21 28 -30q-1 21 -2 36q-2 24 -2 51q-1 7 -1 15zM501 -1q-1 0 -1 -1q1 0 1 1zM101 139
q18 16 38 37l25 25q-2 7 -8 18q-17 29 -35 54q-12 17 -23 31q-5 -13 -8 -26q-5 -23 -4 -48q1 -26 7 -56q4 -20 8 -35zM116 344l18 -13q15 -9 27 -15q2 1 3 3q10 10 21 41q12 34 21 57v1q-19 -9 -37 -19q-20 -11 -36 -31q-9 -12 -17 -24zM274 440q1 -1 2 -3q16 -22 24 -31
q5 5 10 15q8 14 15 24h-6q-21 0 -45 -5z" />
    <glyph glyph-name="e" unicode="e" horiz-adv-x="599" 
d="M203 299q-2 1 -3 1q-7 4 -9 12l-23 23q0 -17 5 -28q5 -15 14 -26q4 -6 6 -13l2 9q3 12 12 19q-2 1 -4 3zM190 205q-13 9 -5 23q-2 5 -1 10l2 4q-6 -5 -15 -9l-46 -18q-15 -5 -27 -10v-2q10 -6 23 -13q24 -15 46 -24q13 -6 25 -10l-2 12q-2 21 0 35v2zM225 191
q-1 -9 1 -19q1 -15 10 -30q10 -16 24 -28t28 -19q12 -6 22 -5q13 2 36 10q25 9 58 18q34 10 50 13q23 4 40 -9q9 -8 22 -18q15 -10 25 -19q10 -12 8 -24t-12 -21q-14 -11 -37 -21q-21 -10 -47 -18l-49 -14q-25 -8 -51 -12.5t-53 -6t-47 -0.5q-23 0 -41 7q-16 7 -36 20
t-38.5 31.5t-33.5 41t-25 49t-14 56.5q0 5 -1 9q0 1 -1 1q-8 6 -11.5 15.5t3.5 22.5q3 3 7 6v4q0 29 6.5 59t16.5 55q10 27 30 51t56 51q35 26 67 38q31 11 67 15q36 5 61 -1q24 -5 43 -14.5t35 -25.5q16 -15 26.5 -31.5t17.5 -36.5t12 -46q5 -25 9 -53t4 -55
q1 -16 -7 -29.5t-25 -14.5q-17 -2 -48 -4q-32 -3 -66 -5q-35 -2 -70 -1q-36 0 -61 5q-6 1 -11 3zM262 342q-5 -11 -9 -19q19 -2 37 -1q23 0 42 2q16 1 26 1q-1 4 -3 9q-5 10 -11 15q-7 5 -16 8q-6 3 -21 0q-18 -4 -36 -11q-5 -2 -9 -4zM244 288q3 -2 5 -5l29 -33
q7 -8 13 -14l2 4q14 22 19 34q2 7 4 13q-12 -1 -25 -1q-23 -1 -47 2zM379 293q1 -1 2 -4q3 -5 6 -11v6v17q-3 -4 -8 -8zM394 323q8 4 16 4t12 -2l2 -1q-6 7 -12 10q-14 8 -22 11h-1q5 -11 5 -22zM376 367q2 13 10 22l17 17q-2 -1 -4 -1q-20 -2 -35 -8q-12 -4 -18 -8
q11 -5 20 -12q5 -4 10 -10zM310 393q-2 3 -4 5q-7 10 -18 29q-4 -19 -11 -41q12 4 23 6q5 1 10 1zM233 367q4 10 7 21q14 41 15 65q-2 -1 -5 -2q-26 -10 -58 -33q-23 -17 -38 -33q7 1 16 -5q10 -8 23 -20q7 -7 14 -13q5 4 12 11q7 5 14 9zM223 100q-4 -6 -11 -12
q-8 -9 -15 -16h5q27 1 50 2q-8 6 -16 13q-7 6 -13 13zM356 66l16 -18q5 6 11 14q8 10 13 17l-38 -13h-2zM445 92q5 -3 9 -8q6 -6 10 -11q5 7 8 12l4 5q-3 2 -5 4q-4 2 -11 1zM505 68l-2 -2q-3 -4 -6 -9q8 4 12 8q-2 2 -4 3zM449 38h-1q-7 6 -21 22q-6 -8 -15 -19l-14 -19
l45 14zM359 12q-7 4 -13 12q-8 10 -18 19q-3 4 -7 3q-13 -1 -44 -5q-32 -4 -75 -5q-12 0 -24 2q9 -7 18 -13q17 -11 30 -16q11 -5 28 -5q19 -1 45 0q24 1 48 6zM149 68q1 3 4 7q8 14 34 39l4 4q-18 6 -38 15q-23 10 -48 24q3 -14 8 -28q9 -22 21 -42q7 -10 15 -19zM98 244
q7 2 14 5l42 16q-9 14 -15 30q-8 21 -7 51q0 6 3 16q-11 -15 -17 -30q-8 -22 -14 -49q-4 -20 -6 -39zM307 464l11 -18q9 -15 15 -23l18 8q19 7 43 10q9 1 14 1q-7 6 -16 11q-14 7 -34 11q-18 4 -49 1q-1 -1 -2 -1zM445 400q-5 -8 -13 -17l-13 -12l10 -5q21 -11 37 -39
q0 -2 1 -4q-1 8 -2 15q-5 24 -11 41q-4 11 -9 21zM473 286q-4 -11 -22 -6q-8 1 -19 4q-4 1 -9 2v-2q0 -18 -3 -41q-2 -10 -8 -20l18 2l47 3q1 3 0 8q0 24 -4 50zM379 221q-6 7 -13.5 21l-16.5 30l-4 -10q-6 -16 -21 -41q-1 -1 -1 -2q20 0 41 1q8 0 15 1zM255 222l-4 4
l-25 28l-6 -24q9 -3 23 -6q6 -2 12 -2z" />
    <glyph glyph-name="f" unicode="f" horiz-adv-x="487" 
d="M200 1l5 -2q15 -7 36 -8q23 -1 41 0l-1.5 5.5t-2.5 11.5q-6 17 -9 41q-3 -2 -7 -4q-20 -10 -43 -24l-19 -12v-8zM196 -37q-5 -8 -15 -8q-7 0 -12.5 5.5t-5.5 12.5v10q-3 8 1 15q0 11 1 27q2 28 2 47t-2 41l-2 21q-10 11 -9 24q1 6 5 12q-4 25 -6 46q-3 24 -4 55
q-2 31 -3 61q-1 21 -4 33q-16 0 -44 7q-12 3 -17.5 4.5t-14 8t-9.5 16.5q-2 9 -5 31q0 1 -0.5 4t-1 4.5t-0.5 5.5v6.5t1 6t2.5 6.5t3.5 5t6 3.5t8 2.5q7 1 30 2q13 1 27 4q3 2 7 3l18 6q5 3 6 5q2 13 4 30q2 18 6 40t12 47q8 26 17 41q11 18 38 26q21 7 49 12q27 5 56 8
q30 4 48 2q20 -1 31 -7q19 -9 17 -28q0 -7 -2 -24q-2 -19 -10 -49q-1 -4 -1.5 -7t-3.5 -10.5t-6 -11.5t-8 -8t-11 -3.5t-13 6.5q-5 4 -10 5q-7 3 -18 4q-9 1 -12 -1q-6 -3 -25 -15q-9 -5 -13 -9q-1 -10 -3 -33q-1 -13 -1 -23h31q31 -1 48 -10q21 -12 24 -34q2 -15 -1 -44
v-3.5t-0.5 -5t-1 -5.5t-1 -6t-2 -5.5t-3 -5.5l-3.5 -4.5t-4.5 -4t-6 -2t-8.5 -0.5q-7 1 -13 1q-7 0 -16 1h-14q-6 0 -14 -1q-7 -2 -13 -6q-2 -1 -2 -2q0 -11 -3 -31q-1 -19 -1 -38q1 -14 1 -28l6 -2q14 -7 11.5 -20.5t-10.5 -18.5q-2 -1 -6 -4v-27q0 -29 1 -57q1 -27 4 -58
q3 -30 9 -48q7 -23 7 -35q0 -26 -35 -29q-19 -1 -45 0q-24 1 -43 8zM203 53q22 14 43 24q-12 12 -33 23q-6 3 -11 6q1 -17 1 -34v-19zM197 155v-3q14 -10 33 -20q20 -11 33 -22v14q-1 28 -1 58v2.5v2.5q-17 -10 -34 -17zM192 192q10 6 22 11q21 9 41 22q3 2 5 3
q-29 9 -48 17q-16 6 -27 13q2 -21 4 -38q1 -13 3 -28zM184 301q10 8 27 15l31 14l-53 26q-4 2 -9 4q1 -9 2 -27q1 -13 2 -32zM155 399l15 10q12 0 37 3q26 2 50 6q10 1 18 2q-31 -3 -59 -1q-31 2 -53 10t-34 15q-1 0 -2 1q-12 -2 -24 -3q-9 -1 -16 -1q0 -2 1 -3q2 -17 3 -27
q6 -2 15 -4q24 -6 36 -6q7 0 13 -2zM197 511q5 3 9 6l37 22q5 3 11 6q-7 5 -15 10q-15 12 -23 17q-4 3 -8 5q-2 -9 -4 -17q-4 -21 -6 -38q0 -5 -1 -11zM219 615l17 7q33 5 53 9q18 3 36 10q20 7 32 9q12 3 19 4l6 2q10 2 17 -6q1 9 2 14q-6 2 -15 2q-14 2 -41 -2
q-28 -3 -54 -7q-25 -5 -44 -11q-14 -5 -18.5 -11.5t-9.5 -19.5zM395 623q-3 -2 -6 -3l-6 -1q-7 -1 -17 -4q-11 -2 -29 -8q-20 -7 -41 -12q-16 -3 -40 -7q3 -2 4 -3l19 -14q6 5 19 13q21 13 30 17q11 5 29 4q15 -2 26 -5q2 -1 6 -2q1 2 1 4q3 11 5 21zM265 510l-4 -2
q-16 -9 -35 -22q-21 -13 -46 -23q-1 0 -2 -1q17 -6 40 -7q26 -2 54 1h4q-12 8 -12 22q0 10 1 32zM327 452q18 -8 30 -21q1 -1 3.5 -7t4 -15t-4.5 -14h5q1 4 2 9q2 24 0 35q0 4 -6 7q-9 5 -31 6h-3zM285 385q-10 -1 -23 -3l-35 -4q17 -8 34 -17l4 -2q4 15 17 24q2 1 3 2z
M260 299q-13 -7 -36 -16q-2 -1 -5 -2q4 -2 7 -3q14 -6 35 -12q-1 8 -1 15v18z" />
    <glyph glyph-name="g" unicode="g" horiz-adv-x="590" 
d="M363 -4q-5 -4 -10 -7q-14 -10 -35 -17q-20 -6 -39 -9.5t-37 -4.5h-34q-17 1 -28 4q-12 4 -27 13t-27 23.5t-22 36.5q-9 19 -17 41q-9 22 -16.5 45.5t-13 54t-7.5 53.5q-1 23 3 48q5 24 14 48t26 51t42 52q24 26 47 43q23 19 47 30q24 12 42.5 15.5t32.5 2.5q8 0 16 -1
q2 3 4 5q9 13 23.5 12t22.5 -14q9 -12 15 -32l19 -14q0 1 1 3q8 19 31 23q15 2 39 2h2q31 0 40 -17q4 -9 7 -30q2 -19 2 -42q1 -23 0 -51v-52q1 -13 1 -26q2 -1 3 -2q22 -15 0 -37q1 -19 2 -35q2 -22 3 -50t1 -48q0 -19 2 -35q1 -18 0 -35q0 -17 -2 -36q-1 -20 -4 -36
q-3 -17 -7 -28l-10 -30q-8 -23 -20 -50q-14 -31 -26 -40q-10 -6 -22 -10q-11 -3 -29 -4q-16 -2 -31 -2q-15 -1 -25 0h-20q-14 -1 -50 -5q-38 -4 -78 -2q-41 2 -58 7q-28 9 -28 31q0 11 5 45q0 1 1 10.5t2 13.5t3.5 10.5t7.5 10t11 5.5q8 1 23 2q14 1 36 -1l42 -2
q21 -2 46 -2q24 0 35 2q10 2 20 6q9 3 17 6q-2 7 -4 18q-4 17 -7 26zM205 153l-2 8l-2 12q-13 -5 -35 -15l-16 -8q13 -2 28 -4q10 -2 14 -3q4 8 13 10zM259 108q6 -1 13 -2q19 -3 34 1q5 13 18 12q4 0 7 -2q6 3 12 7q13 10 25 26q11 15 15 33q5 19 5 35q-1 17 -5 39t-9 41
q-6 18 -16 39q-9 18 -21 29q-12 10 -25.5 11.5t-26.5 -3.5q-12 -5 -23 -22q-12 -20 -17 -35q-5 -16 -7 -40q-3 -24 -3 -56q-1 -31 3 -53q5 -22 12 -37l8 -17q1 -2 1 -6zM482 434q4 0 7 1v5q-3 -3 -7 -6zM378 374q-3 5 -5 13l-9 38q-4 19 -10 41l-16 9q-9 -17 -20 -40
l-10 -21q4 0 8 -1q24 -3 44 -20q9 -8 18 -19zM109 118q5 -15 11 -29q8 -21 17 -39q7 -17 16 -28q9 -10 19.5 -16.5t16.5 -8.5q8 -2 21 -3h31q15 1 32 4t34 9q16 5 25 11q10 7 16 13l7 6q5 4 12.5 4t12.5 -5.5t4 -14.5q5 -2 9 -5l-29 48q-6 11 -10 24q-7 -4 -14 -7l-1 -8
l-3 -39q-2 -13 -9 -18t-16.5 -2t-16.5 6.5t-10 6.5l-33 28q-8 5 -14 10q-2 -2 -3 -5q-14 -17 -28 -37v-2.5t-2 -5.5t-5 -6t-8.5 -3t-12.5 3q-14 6 -14.5 16t5.5 17l6 7q13 27 20 43q3 6 5 11q-1 1 -1 2q-10 2 -27 5q-35 6 -58 8h-2h-3zM97 162l5 3q20 13 49 26l31 13
q-15 16 -49 44q-27 24 -41 38q-2 -7 -3 -15q-4 -21 -3 -40q2 -21 7 -49q2 -11 4 -20zM111 336l2 -2h1q24 -9 42 -15q11 -4 18 -8q4 9 7 21q11 43 15 71q3 23 6 39q-20 -16 -42 -39t-37 -46q-7 -11 -12 -21zM244 469q2 -2 2 -4q4 -6 17 -29l8 -13q7 11 15 28q9 20 16 33
q-9 0 -24 -3q-14 -3 -34 -12zM399 436v-3q3 -11 5 -22q12 12 29 27q20 19 32 29q-14 0 -23 -2q-4 0 -4 -2q-4 -9 -6 -15q-7 -25 -33 -12zM491 373q-12 -13 -24 -28q-14 -17 -22 -28l40 -14l6 -2q0 5 -1 9v54q1 4 1 9zM495 229l-29 -10q-5 -2 -8 -4q2 -3 5 -6l35 -31l-2 31
q0 10 -1 20zM500 116h-1q-22 3 -47 6q-1 0 -4 1h-1q18 -26 40 -53l16 -18q0 11 -1 23q-2 17 -2 38v1v2zM499 -4l-1 1l-40 28l-48 33l24 -42q20 -34 34 -63l14 -26q6 20 9 28t6 22q1 10 2 19zM471 -103q-11 -4 -14 -1q-5 5 -13 9q-6 2 -13 2q-10 -1 -29 -5t-34 -9
q-3 -1 -7 -3q1 -2 3 -4l19 -34q4 -5 5 -9q13 0 27 1.5t22 3.5q6 2 12 5q5 5 13 24q5 10 9 20zM331 -158l-2 1q-33 22 -55 33q-12 5 -21 10q1 -13 4.5 -27.5t-0.5 -22.5q16 0 31 2q28 3 43 4zM196 -163q-10 6 -20 10l-11 5q0 -6 -1 -9q2 -1 3 -1q8 -3 29 -5zM170 -112h2
l18 -8q14 -6 29 -14q-3 16 -4 29v3h-1q-19 2 -31 1q-6 0 -11 -1q-1 -4 -2 -10zM314 -106l8 -4q-1 2 -1 4h-7zM414 -59q8 1 15 2h4q-13 26 -30 55l-6 10l3 -9q4 -11 8 -29q4 -19 5 -26q1 -2 1 -3zM290 68q5 -4 12 -9q0 5 1 10q-6 0 -13 -1zM385 114q11 -5 33 -19q4 -2 8 -5
q-6 8 -11 16q-10 15 -14 29l-4 -6q-6 -8 -12 -15zM415 162h3h3l36 -4q2 0 5.5 -0.5t5.5 -1.5l-29 27q-11 10 -16 22q-1 -15 -5 -30q-1 -7 -3 -13zM423 229q2 5 7 10q8 8 24 14q19 6 32 11q-6 3 -13 5q-32 12 -46 16q-9 3 -15 10q4 -15 7 -32q3 -18 4 -34zM405 318q1 6 4 11
q9 14 30 39q10 11 19 22q-13 -7 -28 -19l-26 -20q-5 -4 -11 -4q7 -15 12 -29zM248 392q-5 7 -14 23q-1 -8 -3 -17q-2 -18 -7 -40q4 6 8 13q8 12 16 21zM203 285q-13 -23 -34 -11q-7 4 -21 9q4 -4 9 -7q27 -23 42 -38q1 24 3 43q0 2 1 4z" />
    <glyph glyph-name="h" unicode="h" 
d="M403 97q7 17 25 21l24 8q2 1 5 2q-11 8 -27 18q-23 15 -38 23q-2 1 -5 4v-4q0 -17 1 -34l2 -35t1 -35q1 -18 1 -31v-25v-16q13 8 35 25q21 15 31 26q-13 5 -28 13q-33 17 -27 40zM87 0l25 1q31 1 50 3q8 1 12 3q1 6 -1 15q0 3 -1 7q-6 -3 -15 -6q-21 -8 -48 -13l-23 -4z
M63 -20q-11 4 -12 15l-1 7v30q1 20 1 58q0 39 1 73v40t2 46q1 40 0.5 83.5t-1.5 94.5t1 93l4 83q1 40 -3 64l-1 4.5t-1 6t-0.5 6t-0.5 6.5t0.5 6t2.5 6.5l4 5t5.5 4.5t7.5 3l43 9q35 7 62 9q40 2 47 -23q3 -12 4.5 -30.5t-1.5 -53.5q-3 -33 -5 -60q-3 -26 -9 -66
q-2 -15 -4 -25l23 11q32 15 62 20t55 4q23 -2 40 -5l8 -2q1 0 2 1q24 10 29 -17q16 -11 24 -28q7 -14 13 -30q7 -17 10 -35q4 -16 7 -32q0 -3 1 -6q19 -9 6 -26l6 -29q2 -14 6 -28q4 -15 8 -33t7 -38q4 -21 3 -47q0 -25 -5 -57q-4 -31 -12 -75q0 -2 -1.5 -11.5t-2.5 -14
t-3.5 -12.5t-6 -11.5t-9.5 -6t-14 -1.5q-6 1 -15 0q-12 -2 -22 -2q-7 -1 -17 -4q-11 -4 -19 -8l-3 -1q-5 -2 -10 -1q-24 0 -24 22v18q1 7 1 19v25q0 13 -1 29q0 17 -1 35l-2 35t-1 36q0 17 -1 35q-1 17 -3 36l-4 42q-3 19 -9 36q-5 14 -17 22q-13 9 -31 11q-19 2 -39 -2
q-16 -4 -22 -13q-9 -12 -13 -27q-5 -17 -7 -42q-2 -27 -3 -55q-1 -27 -1 -53v-50q1 -23 3 -41q2 -19 5 -41q4 -30 -6 -43q-10 -12 -37 -16q-20 -2 -53 -3l-32 -1q-6 0 -11.5 4.5t-6.5 11.5zM185 388q4 15 12 32q-9 -5 -21 -2q-9 2 -26 5q4 -3 7 -6q15 -13 28 -29zM87 43
l16 2q23 5 42 12q5 2 11 4q-9 5 -20 12q-24 14 -40 25q-6 4 -9 8v-16v-47zM87 139q6 6 14 11q20 11 40 19l2 1q-16 8 -33 18l-22 12v-38q-1 -11 -1 -23zM90 251q17 5 38 12q14 5 25 10q-10 10 -23 19q-17 12 -33 22q-3 3 -7 5q1 -36 0 -68zM90 363l4 1l36 -2q17 -1 31 -1
q-13 16 -27 29q-19 16 -38 29q-1 1 -3.5 2.5t-3.5 2.5q1 -37 1 -61zM89 465q1 1 3 1q10 2 45 -4q5 -1 11 -2q-3 2 -5 4l-37 33q-10 9 -16 15q-1 -22 -1 -47zM92 562h2q13 2 37 3q-23 19 -24 19l-14 10q0 -16 -1 -32zM93 649h1q20 4 43 7q11 1 21 3q-2 1 -3 2q-23 13 -38 18
l-16 5q-7 -2 -12 -2q0 -4 1 -8q2 -12 3 -25zM166 696q4 -2 7 -4q15 -9 19 -11q-1 9 -2 15q-5 1 -11 1q-6 -1 -13 -1zM191 629q-5 -2 -11 -3q-17 -3 -39 -6q-10 -1 -19 -2q3 -2 5 -4q18 -12 40 -31q10 -8 18 -23q0 5 1 10q2 26 5 59zM182 536q-5 -3 -13 -4q-11 -2 -36 -3h-8
q0 -1 1 -1l4 -4l37 -33q3 -3 7 -6l3 21q3 16 5 30zM292 469q7 -12 15 -30q7 -15 11 -25q6 7 12 17q12 22 31 42q-7 0 -15 1q-20 1 -46 -3zM420 444l-10 -22q-10 -21 -17 -38q-1 -2 -2 -5q8 0 20 -1q19 -3 32 -6q-2 8 -3 15q-3 15 -8 29zM457 305q-18 -10 -30 -18
q22 -10 39 -21q-4 14 -7 29zM480 203q-13 -5 -26 -9q-13 -3 -24 -6l19 -11q22 -14 34 -24v3q1 23 -2 40q-1 4 -1 7zM478 98q-6 -3 -14 -6t-15 -5q16 -8 26 -11q2 12 3 22zM386 213q1 0 3 1q10 3 55 15l8 2q-1 1 -4 3q-17 12 -40 22q-37 16 -24 41q3 6 10 11q14 11 44 28
q-13 4 -31 6q-23 2 -30 1q-9 -1 -18 5q5 -8 9 -17q8 -21 11 -45l4 -42q2 -16 3 -31zM350 359q-2 5 0 11q1 8 9 27q7 18 17 39q-8 -11 -15 -23q-15 -25 -28 -34q-3 -2 -6 -3l10 -6q7 -5 13 -11zM293 386q-1 1 -1 2q-7 11 -18 36q-9 21 -17 32q-8 -9 -19 -32q-14 -27 -18 -47
q9 4 19 7q26 6 51 3q1 0 3 -1zM179 324q-6 1 -14.5 1h-18.5l2 -1.5t3 -1.5q12 -9 22 -19q2 8 4 15zM167 240q-11 -5 -27 -11q-10 -3 -19 -6q4 -2 6 -4q22 -12 38 -20q0 7 1 15q0 13 1 26zM165 140q-5 -2 -11 -4q-14 -6 -29 -14l29 -18q6 -4 12 -7q-1 6 -1 11v32z" />
    <glyph glyph-name="i" unicode="i" horiz-adv-x="281" 
d="M62 579q-14 5 -11 20l4 26q5 27 11 45v2q9 30 30 28q7 0 18 -1q12 -1 27 -2q13 -1 30 -2q29 -1 36 -20q3 -10 4 -29t-5 -44q-8 -34 -33 -38q-14 -2 -34 -4q-23 -3 -42 -2l-18 1q-7 1 -12 7t-5 13zM113 -50q-6 -6 -13 -6q-9 0 -15 9l-7 1q-8 1 -12.5 7t-3.5 13t7 11.5
t13 4.5q0 7 1 16q0 28 -0.5 56.5t-2.5 63.5t-8 72q-7 38 -10 71q-4 35 -1 79t11 83q0 1 1.5 9l2 10.5t2.5 9t4.5 9.5t5.5 7t7.5 5.5t9.5 2.5q9 0 35 3q29 3 46 -2q12 -4 19 -13q6 -8 7 -20q1 -15 3 -36q1 -16 4 -38q4 -8 2 -17v-1q4 -36 6 -73t3 -80t1 -84q-1 -40 0 -72
q2 -34 -1 -55q-2 -14 -11.5 -24.5t-23.5 -12.5q-17 -2 -45 -6q-20 -3 -37 -3zM100 659q18 -2 31 -3q14 -1 25 -2q13 -1 16.5 -7.5t-0.5 -14.5t-8.5 -14.5t-6.5 -7.5q-17 -9 -35 -16q6 0 12 1l33 5q2 3 4 11q5 20 4 34q0 8 -1 14h-5q-17 1 -32 2l-25 2q-6 0 -11 1q0 -2 -1 -4
v-1zM91 621q3 1 4 2h-4v-2zM119 4l35 23q15 11 21 18l-16 12q-11 8 -26 16q-9 5 -15 9q0 -10 1 -19v-58v-1zM115 138l39 32q23 18 35 29q-8 4 -20 8q-24 8 -54 13q-6 1 -11 3q1 -10 3 -19q6 -34 8 -66zM96 288q7 7 17 18q29 31 60 51q5 4 9 8q-12 8 -32 16q-29 12 -44 17
l-4 1q-3 -25 -5 -53q-2 -32 -1 -58zM109 435l8 -3q17 -5 47 -17q8 -4 16 -7q-1 2 -1 5q-2 21 -3 36v1l-1 1q-9 3 -32 0q-18 -2 -29 -3zM188 324q-25 -18 -49 -43q-14 -14 -22 -24q2 -1 4 -1q34 -6 60 -15l12 -5q-1 26 -2 49q-1 20 -3 39zM195 157q-8 -7 -17 -14
q-27 -21 -39 -32q6 -3 11 -6q18 -10 30 -19q9 -6 15 -11q-1 23 0 49v33zM195 13q-4 -4 -21 -15q-5 -4 -10 -7q15 2 26 4h1q2 0 3 6t1 12z" />
    <glyph glyph-name="j" unicode="j" horiz-adv-x="364" 
d="M147 482q4 7 12 9l21 4q23 4 39 4t28 -1q23 -3 31 -30q5 -18 6 -34q2 -15 2 -31q0 -14 0.5 -22.5t1.5 -16.5q2 -11 0 -25q-2 -7 -1 -12q1 -9 2 -22q1 -14 1 -27v-3q2 -1 5 -3q7 -5 12.5 -12.5t7 -17.5t-7.5 -19q-7 -8 -20 -17q-2 -9 -3 -15q-1 -7 -2 -18t-1 -21
q0 -12 -1 -27v-13q3 -5 5 -9q11 -16 -5 -33v-6q1 -15 0 -33q-1 -16 0 -28q1 -13 2 -31q3 -19 4 -31q1 -13 2 -24q1 -13 0 -25t-4 -34q-4 -23 -15 -50q-12 -27 -22 -38q-13 -13 -34 -16q-18 -2 -47 2q-28 4 -45 8q-18 5 -33 12q-19 10 -30 41q-10 29 -7 53q4 35 29 38
q13 1 45 0q16 -1 25 -1v1q0 6 -1 14q-2 20 -1 42q0 21 2 43t5 41q3 17 4 37l2 42v43q-1 24 -1.5 47t-3.5 53q-2 29 -5 54q-3 24 -7 44q-5 23 -7 41q-1 12 -3 21h-2q-6 3 -9 10.5t1 13.5q1 3 3 6v2q0 7 4.5 13t11.5 7h4zM145 624q-3 17 -7 37q-7 39 17 44q7 1 35 4
q29 3 56 -2q31 -6 41 -21q7 -11 11 -31t2 -44q-2 -16 -11.5 -27t-25.5 -11t-33 -3q-16 -3 -32 -10l-17 -7q-7 -3 -14 0t-9 9l-2 6q-11 2 -14 13l-5 24q-3 13 8 19zM183 620q10 4 29 15q-20 1 -30 -1l-2 -1q0 -2 1 -3zM173 669h2q16 3 44 2q23 -2 35 -4q-6 3 -15 4
q-22 4 -46 2q-12 -1 -20 -2v-2zM264 630q-11 -13 -22 -19q-4 -2 -7 -4q14 2 28 2l1 5q1 8 0 16zM165 455l5 -2l46 -22q23 -11 32 -18l2 -2q0 10 -1 20q-2 12 -6 27q0 2 -1 4q-11 1 -23 1q-13 0 -32 -4zM252 365q-8 -12 -42 -41q-6 -5 -10 -9q29 -7 51 -18q1 0 3 -1
q-1 4 -1 7q0 11 -2 18q-1 11 1 25q2 7 1 13q-1 3 -1 6zM254 255l-18 10q-20 9 -45 15q1 -3 1 -7q3 -31 3 -55q1 -12 1 -24q21 15 50 30q3 2 7 4q1 12 1 22v5zM247 184l-33 -21l25 -14q3 -2 6 -3v6q0 12 1 25q0 4 1 7zM243 101q-5 7 -22 17q-13 8 -24 14v-6l-2 -43
q-1 -10 -2 -19q6 2 14 6q23 10 36 18v6.5v6.5zM244 48l-22 -11q-19 -8 -30 -14q13 -13 30 -36l25 -33q1 -1 2 -3q-1 8 -2 17q-2 20 -3 33q-1 14 0 31v16zM251 -119q-15 -1 -21 1q-27 6 -41 10q4 -16 10 -37q8 -29 11 -39q1 -9 3 -16q2 -5 2 -9q3 1 5 4q6 6 16 27q9 23 12 42
q2 9 3 17zM178 -209l-19 11l-34 36q-9 8 -16 13q-9 7 -16 14l-6 6q0 -3 -1 -5q-2 -16 6 -37q6 -17 12 -21q12 -5 26 -9q15 -4 41 -7q3 -1 7 -1zM141 -129q5 -4 9 -8l13 -13q-3 11 -6 20q-5 1 -16 1zM184 -68q6 -2 14 -5q9 -3 28 -8l-8 14q-5 7 -24 32l-10 12v-14
q-1 -16 0 -31zM184 350l2 2q29 24 37 35l-23 12l-27 13q2 -16 6 -36q3 -13 5 -26z" />
    <glyph glyph-name="k" unicode="k" horiz-adv-x="610" 
d="M96 695v-2q1 -8 1 -15l1 -2q14 -24 24 -38q9 -13 17 -19q9 -8 21 -20v5q1 33 1 63q1 9 0 15q-8 2 -23 4q-27 3 -42 9zM91 735q3 0 5 -1l13 -5q10 -5 33 -8q28 -3 37 -7q5 -1 8.5 -4t5 -6.5t3 -6.5t2 -8.5t0.5 -8t-0.5 -8t-0.5 -6.5q0 -30 -1 -63t-4 -74q-3 -35 -2 -68
q5 -4 8 -7q7 -8 5.5 -20.5t-11.5 -17.5q1 -15 1 -29q2 -28 4 -47l2 -10q6 -3 9 -5q10 -4 13 -11q2 11 9 30q7 24 20 45q12 21 30 42q17 21 29 33q13 13 32 23q17 9 26 13q13 7 30 7q16 0 39 -8t43 -21q16 -11 19 -26q2 -14 -9 -29q-13 -17 -43 -48t-55 -53l-36 -32
q-8 -6 -10 -10q-1 -3 -2 -5q1 -2 4 -5l25.5 -32.5l33.5 -44.5q16 -23 30 -41q14 -20 24 -33l23 -29q14 -16 25 -33l25 -33l21 -27q14 -17 -0.5 -27.5t-27.5 -11.5q-22 0 -51.5 -2t-50.5 -4q-22 -1 -29 -1q-4 0 -7 1t-5.5 2t-5 4t-4 4.5t-3.5 5t-2.5 4.5t-2 5t-1.5 5
q-9 19 -23 45t-29 47.5t-33 42.5q-19 21 -33 39l-12 14q-2 -15 -4 -32q-4 -29 -8 -52q-4 -21 -6 -43q-2 -20 -1 -36t3 -33q2 -16 4 -22q2 -16 -7.5 -20.5t-19.5 -1.5l-11 3q-15 8 -31 14q-17 6 -32 8q-16 3 -24 4q-21 4 -23 38l-5 46t-6 57q-4 30 -5 55t-1 48q0 24 2 59
q1 32 4 61q1 27 1 58q0 32 -3 63q-3 34 -2 72q0 38 2 71q1 32 1 58v22l-10 16q-3 7 -1 14t8 11q0 6 -1 9l-1 8q-1 7 3 13t12 8q13 2 19 -11zM278 303q6 -6 15 -16l15 -18q-1 2 -1 5q0 5 2 11h-1q-11 5 -30 18zM263 316q-2 1 -4 3v-2q2 -1 4 -1zM211 244l4 11q4 12 7 22
q-10 -3 -21 -3h-3q-3 -4 -7.5 -7.5l-8 -6t-4.5 -3.5q-9 -7 -17 -14q8 0 15 1h31h4zM157 539q-3 -3 -6 -7l-28 -32q15 -9 31 -17q0 24 2 49q1 4 1 7zM157 394h-1q-22 -15 -38 -28l27 -11q8 -3 15 -7q-1 16 -2 37q-1 4 -1 9zM155 436v5q-4 2 -7 4q-23 12 -43 24q-5 2 -10 7
q1 -15 2 -28q3 -25 3 -50q15 12 36 25zM166 306q-14 7 -35 16q-18 8 -32 12q0 -7 -1 -13q-2 -27 -4 -61q0 -15 -1 -28q2 1 4 2.5l2 1.5q14 13 56 48l14 12q-1 3 -2 5q0 2 -1 5zM274 357l3 -4q5 -7 21 -19q6 -5 12 -9q4 22 5 46q0 25 2 47v1q-5 -5 -10 -11q-16 -19 -26 -37
q-4 -7 -7 -14zM342 445q2 0 4.5 -1t4.5 -2.5t3.5 -3t3 -3.5t2.5 -4t2 -3.5t1.5 -3t0.5 -2v-0.5q9 -15 14 -25l2 4q17 28 29 54l7 12q-12 4 -19 4q-8 0 -14 -3q-9 -4 -25 -13q-9 -5 -16 -10zM449 454l-7 -15q-9 -18 -19 -36q27 27 38 42v1q-1 1 -2 1q-5 4 -10 7zM372 354
q-9 1 -16 11q-2 4 -5 8v-3q-1 -20 -4 -39l20 18q3 2 5 5zM376 172q-2 -16 -18 -27l-4 -2q15 -3 29 -8q14 -4 26 -8q-2 3 -3 4l-29 41h-1zM456 66q-7 -11 -22 -29l-2 -3q6 0 13 1h35l-1 1zM509 -4l-16 2q-15 2 -46 1q-38 -2 -49 5q-5 3 -8 7q4 -8 7 -15q2 -5 4 -9q8 1 21 1
q21 2 51 4q21 1 38 2l-1 1zM386 18q-1 3 0.5 8t2.5 8t4 8t5 7.5l5 6l3 3.5q12 15 19 25q-5 2 -10 3q-17 6 -42 14q-21 7 -42 8q6 -7 10 -13q17 -24 32 -52zM300 148q1 2 7 6q15 11 31 21l-11 15l-16 20l-21.5 24.5l-24.5 29.5q-3 3 -6 7q-5 -12 -10 -28l-8 -24q-1 -2 -3 -4
q4 -2 9 -7q12 -12 27 -30q11 -14 26 -30zM197 161q-17 -22 -37 -42q-9 -8 -16 -15h11q22 2 33 1q3 17 6 38q1 11 3 18zM179 21q-8 -10 -18 -21q-8 -8 -13 -14q8 -2 17 -5q9 -4 17 -7q-1 15 -3 31v16zM110 -2q7 8 25 27q19 21 33 44h-11l-43 -4h-1q-5 -2 -10 -2q1 -7 2 -16
q3 -27 5 -48v-1zM98 110l37 35q27 27 46 58q2 2 3 5h-7q-19 -1 -37 -4t-25 -6l-4 -2t-8.5 -2.5t-9.5 3.5q0 -20 1 -40q1 -21 4 -47zM95 523l29 32q9 12 11 18q-11 12 -19 18q-9 8 -19 20q0 -12 -1 -26q-1 -29 -1 -62z" />
    <glyph glyph-name="l" unicode="l" horiz-adv-x="278" 
d="M122 12h16q24 1 37 2q4 7 8 23q3 18 5 32q-4 -2 -5 -3q-31 -18 -63 -43q1 -6 2 -11zM122 -24q-5 -7 -12 -8q-11 -1 -18 9l-12 2q-9 1 -13 9q-8 1 -13 7t-4 13.5t7 11.5l24 19v0l-8 50q-4 27 -7 63q-3 37 -2 67q0 29 2 66q1 37 1 73v78q0 41 2 85t6 82q4 39 8 70
q6 45 40 51q25 4 47 -2q32 -8 32 -33v-28q0 -16 1 -39q0 -1 1 -3q1 -5 0 -12q1 -15 1 -28l2 -36q2 -19 2 -40q1 -10 1 -22l4 -2q25 -18 -3 -51q0 -14 2 -29l4 -68q0 -5 1 -10q11 -13 6 -29l-4 -8q1 -10 1 -17q2 -30 5 -54q4 -27 1 -57q-2 -27 -2 -56q1 -32 -7 -70
q-3 -14 -5.5 -23t-10.5 -18t-20 -10q-14 -2 -42 -3h-18zM113 63q26 19 52 34q13 8 21 14q-3 3 -7 6q-15 10 -24 13q-13 4 -25.5 10t-27.5 14q2 -35 6 -60q3 -16 5 -31zM100 207q4 6 12 14l53 53q12 12 18 20v4l-23 7q-19 5 -45 8q-6 0 -12 2q-1 -16 -1 -31q-2 -37 -2 -66
v-11zM103 374q5 5 14 13q30 27 57 54v14v3v3q-4 2 -9 5q-15 8 -42 10q-8 1 -19 5q-1 -22 -1 -45v-62zM106 538l22 26q22 25 33 39q-2 0 -3 1l-39 8l-7 1q0 -6 -1 -14q-3 -29 -5 -61zM116 649l9 -2q26 -4 42 -9q-1 13 -1 23v25q-2 1 -5 1q-15 4 -32 1q-8 -1 -10 -19
q-1 -10 -3 -20zM170 557q-6 -8 -15 -17q-13 -16 -24 -28q25 -3 42 -10q0 20 -2 38q0 9 -1 17zM177 393l-36 -33q-7 -7 -13 -12q23 -3 42 -9q6 -1 11 -3q-2 30 -4 57zM187 244l-50 -49q-7 -7 -11 -13q10 -6 18 -9q11 -5 22 -8.5t25 -12.5v7q3 26 0 49q-3 17 -4 36z" />
    <glyph glyph-name="m" unicode="m" horiz-adv-x="901" 
d="M51 88q6 15 22 11q0 7 1 15q1 29 3 53q2 22 3 45q2 23 3 50t1 50t-1 45t-2 48.5t-1 48.5q0 15 7.5 27.5t22.5 13.5q13 1 21 3t30 7q24 6 45 5q28 -3 38 -24q4 -9 8 -17l25 14q19 10 37 18q19 9 41 13q21 4 38 3q19 -1 32 -6t25 -13q14 -9 23 -23l22 -31q6 5 13 10
q15 12 38 24t53 22q31 11 58 13t47 -3q18 -4 35 -13q19 -10 32 -25t23 -33t16 -38q5 -19 11 -50q5 -31 8 -57t1 -60q-1 -32 -1 -57v-22q8 -12 0 -30v-4q0 -28 -5 -68l12 -2q8 -1 12 -7t3 -13.5t-7 -11.5t-14 -3l-13 2q-8 -26 -28 -32q-18 -6 -45 -14q-30 -8 -46 -6
q-24 5 -28 27q-1 10 -2 24q0 14 -1 33q-1 21 0 46q1 24 1 54v102q0 21 -3 38q-2 15 -9 28q-8 12 -24 24q-13 8 -18 10q-5 -1 -14 -7q-10 -7 -20 -20q-11 -15 -21 -34q-10 -18 -14 -38q-5 -20 -7.5 -49t-0.5 -60q2 -32 0.5 -62t-9.5 -66q-10 -46 -37 -47q-13 -1 -37 -2
q-25 -1 -51 2q-17 2 -28.5 11.5t-11.5 26.5l2 32q2 15 3 34t5 48t8 55q4 24 5 53q0 29 -3 49q-2 18 -10 32t-21 25q-13 10 -30 12q-18 2 -31 -3q-12 -4 -21 -18q-11 -16 -19 -40q-7 -24 -10 -53q-3 -30 -4 -60t0 -56t1 -60t-2 -49q-4 -28 -27 -30q-8 -1 -27 -1q-22 -1 -49 9
l-25 8q-8 3 -11 12q-6 -10 -17 -9q-8 1 -12.5 7t-4.5 13l1 7q1 8 5 36v2l-7 2q-7 3 -10 10t-1 14zM100 22q8 10 20 6l25 -8q21 -8 36 -7q11 0 19 1q1 8 2 24q-7 -23 -29 -16l-28 9l-42 16q-2 -18 -3 -25zM506 287q7 -2 11 -3q4 12 10 24q11 21 23 37q-16 -3 -25 14
q-1 -3 -1 -4q-15 -47 -17 -59zM471 297l1 4q2 15 18 65q7 25 12 37h-3q-1 -5 -7 -18q-11 -25 -33 -56l-16 -23zM108 84q3 -1 7 -3l41 -16l12 -4q-1 21 -14 53q-14 36 -27 66l-11 23q-1 -19 -3 -40q-2 -22 -3 -50zM119 255q4 0 9 -2t8 -4l2 -1q19 -8 42 -14q6 -2 13 -3
q-10 18 -21 34q-14 23 -28 56q-13 31 -19 43q-7 13 -1 23q6 11 16 11t17 -5l7 -5q19 -12 39 -20q17 -7 31 -11q-1 7 -4 17q-8 28 -12 51q-4 22 -6 29q-2 9 1 13l-2 4t-8 3q-15 1 -34 -4q-22 -5 -30 -7q-9 -2 -22 -4q-1 -2 -1 -5q0 -22 1 -48t2 -47q1 -23 1 -47t-1 -52v-5z
M267 435q5 -8 13 -16q11 -13 20 -22q8 13 24 34q22 27 39 41q10 7 20 7q26 -2 22 -43q-1 -20 -4 -36q17 6 32 13q18 8 31 13l-21 29q-5 8 -13 13q-9 6 -17 9t-21 4q-14 0 -31 -2q-17 -3 -32 -10q-17 -8 -35 -18q-17 -9 -27 -16zM537 431q3 -4 7 -10.5t6 -10.5l2 -4
q1 -8 2 -15q7 6 14 13q36 34 55 54l3 3.5t4 4t5 3t6.5 2t8.5 0.5q5 -1 9 -3t6 -5t3 -6.5t1 -7t-0.5 -7.5t-1.5 -6t-1.5 -4.5l-0.5 -2.5q-3 -10 -4 -18q7 6 15 14q35 30 50 38q-1 1 -3 2q-13 7 -28 10q-14 4 -35 2q-22 -2 -49 -11q-28 -9 -48 -20q-15 -8 -26 -15zM772 400
q-9 -23 -22 -38q-13 -16 -26 -40q-1 -1 -1 -3q21 -4 43 -5q14 -2 25 -4l-6 35q-5 29 -10 46q-1 5 -3 9zM794 241l-41 -35q-6 -4 -10 -8l31 -13q11 -5 19 -8q0 26 1 59v5zM793 134v3l-33 15q-27 12 -43 18q-9 4 -13 14v-34q0 -31 -1 -55t0 -44q1 -19 1 -32q1 -10 2 -17
q9 -1 29 5q25 7 42 13q1 0 3 5q-14 2 -29 6q-2 0 -5.5 1t-11.5 4.5t-13.5 7.5t-9.5 9t-1.5 10.5t11.5 11.5q8 4 33 22q23 17 38 36q1 0 1 1zM791 81q-8 -7 -16 -13l-6 -4q10 -3 20 -4zM704 205v1q6 12 26 28l50 42q-8 1 -17 2q-26 2 -49 7q-7 1 -13 4q3 -17 3 -37v-47z
M689 332q1 4 4 8q15 26 29 44q12 15 20 41q1 3 2 7q-13 -7 -44 -34q-29 -26 -39 -33q16 -14 26 -29zM620 387v1q1 7 3 19q-9 -10 -22 -21q6 1 11 2q4 0 8 -1zM503 226l-49 -35q-13 -8 -24 -14q15 -11 29 -20q18 -11 25 -16q10 -8 10.5 -16t-6 -14t-11.5 -9.5t-8 -4.5
q-14 -6 -27 -10q28 -9 47 -14q7 -2 11 -4q1 7 1 14q2 28 0 59q-2 33 0 65q1 10 2 19zM492 19q-1 0 -14 -8q-8 -4 -14 -8q14 1 22 2q3 4 6 14zM400 16l4 1q19 4 57 26l-42 13q-5 2 -15 8q-2 -16 -3 -29q-1 -9 -1 -19zM409 113q6 3 14 5q9 3 19 7l-2 2q-13 8 -27 18l-4 -29v-3
zM421 214q6 3 13 8q22 14 49 34q-4 1 -6 2l-46 14q-7 2 -11 4q2 -20 2 -47q0 -8 -1 -15zM408 320q7 9 21 30q12 16 21 31l-4 -1q-20 -10 -42 -16q-16 -5 -31 3t-10 27q3 12 5 33l-15 -18q-14 -18 -20 -27q23 -5 41 -19q20 -15 30 -36q2 -3 4 -7zM271 375l-5 5q0 -1 0.5 -3.5
t1.5 -3.5q1 1 3 2zM226 321q-15 5 -36 13l-16 7l3 -6q13 -30 26 -51q4 -6 8 -13q2 14 6 26q4 13 9 24zM202 192q-12 3 -31 7q-8 2 -15 4q2 -4 4 -9l28 -66q10 -25 14 -45q-1 18 -1 33q-1 27 0 58q0 10 1 18z" />
    <glyph glyph-name="n" unicode="n" 
d="M89 2l10 1q27 1 47 4q12 2 20 3q1 7 2 17q3 30 4 68q0 26 3 48q-14 1 -52 4q6 -7 11 -14q17 -21 28 -45q10 -22 0 -37q-7 -10 -22 -13q-20 -2 -43 -3h-7v-1.5v-1.5q0 -18 -1 -30zM57 -27q-9 7 -7 18l2 11q2 10 2 30q0 23 -1 50q0 28 2 68t6 83q5 42 5 79q1 38 0 73
q-2 36 -3 59q-2 37 23 44q13 4 50 6q38 3 55 -1q24 -5 30 -23l16 10q14 7 34 15q20 7 45 12q24 4 46.5 2t42 -9.5t35 -19t26.5 -23.5l18 -21q8 -11 15 -29q9 -19 10 -34q2 -13 3 -27q2 -5 1 -11v-24q-1 -16 -1 -35q0 -20 -2 -42q-2 -21 -2.5 -47t0.5 -56t5 -60q4 -26 6 -46
v-1v-6q2 -15 -5 -28.5t-24 -12.5q-13 0 -36 2q-24 1 -46 1h-33q-12 0 -20.5 8.5t-9.5 20.5t0 36q1 22 1 38v35q1 19 3.5 38.5t8.5 41.5q5 20 8 45q3 24 0 40t-7 24q-5 9 -19 23t-28 19.5t-31 3.5t-31 -9q-12 -6 -17 -14q-6 -9 -11 -28.5t-6 -43.5q-1 -27 0 -48q1 -23 -4 -52
q-3 -27 -4 -64q-1 -39 -4 -71l-0.5 -9.5t-1.5 -13t-3.5 -10.5t-7.5 -10.5t-13 -3.5q-6 -1 -27 -4q-22 -4 -51 -5l-27 -1q-10 -1 -16 7zM90 71h6q18 0 33 2q-10 20 -23 37q-9 11 -16 21q-1 -28 -1 -48q0 -7 1 -12zM93 183q7 2 31 0q17 -1 30 -2q-13 17 -26 29l-30 27
q-1 -4 -1 -8zM101 279q5 1 9 2h34q13 -1 22 -1q-6 10 -17 18q-21 14 -40 30q-3 2 -6 5q0 -11 -1 -21q0 -16 -1 -33zM102 388q11 -1 34 -5l46 -11q-13 25 -17 40q-4 13 -1 21q7 19 28 12q-2 5 -4 11l-4 2q-13 2 -46 0q-27 -1 -39 -3v-9q1 -23 3 -58zM214 427q5 -5 11 -14
q4 -7 8 -13q3 5 5 10l19 40q-2 -1 -3 -2q-10 -5 -16 -11q-9 -11 -24 -10zM303 467q4 -5 10 -16l16 -37q28 35 34 41q12 14 13 15q-8 2 -17 3q-17 2 -37 -2q-10 -1 -19 -4zM417 453q-1 -13 -8 -43q-5 -22 -9 -37q19 0 46 -2q16 -1 28 -4v2q-1 10 -7.5 24t-11.5 21
q-7 9 -16 19q-8 10 -21 18q0 1 -1 2zM476 293l-34 -22l-6 -4q15 -9 30 -17q5 -3 9 -5q1 16 1 31v17zM472 185q-3 -2 -5.5 -3t-4.5 -2t-3 -1q-37 -19 -61 -35l29 -13q27 -12 42 -22q3 -2 5 -4l-2 24q-1 29 0 56zM477 75q-7 -9 -35 -18l-9 -3q21 -6 33 -7q8 -1 14 -2l-2 21
q-1 5 -1 9zM437 16q-13 3 -30 8q-12 3 -26 14q-1 -13 0 -22h27h29zM381 73h1q13 6 47 17q-7 4 -16 8q-18 7 -31 14v-29q0 -5 -1 -10zM391 182q22 13 52 29q5 2 10 5q-3 2 -4 2q-21 11 -39 23q-4 2 -7 6q-1 -4 -1 -8q-4 -28 -9 -50q-1 -3 -2 -7zM402 285q7 8 21 17
q27 16 45 30q-10 2 -25 3q-29 3 -46 1q-9 0 -16 3q6 -7 9 -14q8 -13 12 -36v-4zM363 358q-2 6 0 14q4 14 9 38q-9 -11 -16 -22q-6 -8 -13 -14q10 -7 20 -16zM301 389l-5 10q-4 10 -11 26q-6 -12 -14 -30q-1 -2 -3 -8l10 2q12 1 23 0zM194 331q-8 3 -20 6t-26 6l21 -15
q11 -8 18 -16q3 11 7 19zM180 243h-3q-15 1 -34 2l9 -9q15 -13 28 -30v3q-1 16 0 34z" />
    <glyph glyph-name="o" unicode="o" horiz-adv-x="598" 
d="M273 512q14 7 28 12q6 1 12 3q21 5 34 4t29 -8q14 -7 30 -18l28 -25q13 -13 29 -31q17 -20 29 -42t23 -53q5 -14 8 -26q6 -3 11 -5q32 -16 -3 -43q1 -15 1 -32q0 -26 -1 -53q-2 -27 -5 -49q-4 -23 -10 -39q-5 -16 -17 -38q-12 -23 -27 -40q-15 -18 -27 -24q-10 -5 -23 -9
l-27 -9t-32 -9q-16 -3 -34 -6q-19 -4 -35 -4q-15 0 -31 2t-33 6q-19 3 -38 10l-37 12q-19 8 -29 15q-10 8 -17 19l-10.5 19l-9.5 17q-4 8 -10 23q-7 15 -12 37q-5 21 -9 46t-6 47t-2 41q0 20 5 43q5 22 17 50t26 50q14 23 33 40.5t47 31.5q27 13 58 24q13 5 26 8q5 2 11 3z
M252 360q-11 -4 -20 -13t-18 -23q-8 -15 -12 -33q-4 -14 -3 -31q4 -9 1 -15l6 -41q4 -24 10 -49q5 -24 13 -39q7 -12 19 -19q10 -6 29 -1q20 5 34 20q15 16 25 41t14 62q5 38 2 62q-2 24 -9 41q-5 14 -18 23q-16 10 -31 14q-14 3 -21 2l-10 -2q-5 -1 -11 1zM422 440
q-7 8 -14 14q-11 12 -24 22q-13 9 -23 15q-10 4 -16 4q-2 1 -4 0q-5 -6 -12 -8l-27 -5q-8 -2 -17 -4l-10 -5q8 -10 16 -27q11 -22 17 -30q12 2 44 11q35 10 57 12q9 1 13 1zM450 407q-4 -6 -9 -11.5t-9 -8.5l-3 -3l-21 -19q10 -2 23 -6q26 -7 49 -15q-9 28 -19 46
q-5 9 -11 17zM493 299q0 1 -1 3q-7 2 -13 4q-27 10 -58 19q-29 8 -41 9h-3q8 -21 11 -49q1 -14 1 -30q5 0 16 6q15 7 40 17zM496 261l-38 -16q-24 -10 -37 -16l-2 -1q12 -12 24 -27l31 -36q10 -12 15 -19q1 3 1 5q3 20 5 46q1 26 1 51v13zM479 110h-23q-25 5 -50 11l-25 7
q1 -8 4 -18q6 -24 13 -45l10 -30q1 -3 1 -6q1 0 2 1q10 3 17 7q6 3 17 16q12 13 22 33q8 14 12 24zM372 17l-2 1q-12 13 -30 30q-5 5 -10 9q-3 -22 -6 -39q-1 -7 -3 -11h2q17 3 33 7q8 1 16 3zM270 6q-11 10 -24 25q-16 19 -30 32q-12 11 -18 17l-23 -14q-14 -8 -28 -15
l-6 -3l6 -6q6 -4 21 -10l35 -12q17 -6 33 -9q17 -3 32 -5h2zM120 87q1 4 3.5 8l4.5 7.5t3 3.5q21 39 38 62q2 3 3 5q-1 0 -2 1q-20 10 -49 19q-17 5 -30 8q1 -10 3 -21q4 -24 8 -44q4 -19 10 -31q4 -11 8 -18zM86 251h6h1q35 8 56 12q-23 20 -27 23q-18 14 -27 19l-2 2
q-2 -5 -3 -10q-4 -19 -4 -35v-11zM105 341l21 7q36 3 50 3q2 -1 5 -1q0 5 -1 10q-1 11 -2 20q-2 15 -4 26q-2 15 -4 25q-8 -6 -15 -12q-15 -14 -27 -33q-12 -20 -23 -45zM218 455q-8 -3 -15 -6l2 -10q2 -10 5 -28v-3q3 25 8 47zM245 396l10 4q10 4 18 -3h4q-7 11 -18 32
q-3 8 -7 13q-4 -20 -6 -44zM171 315q-8 0 -25 -2q10 -7 20 -16q0 1 1 2q2 9 4 16zM166 229q-4 -1 -10 -2q-7 -1 -15 -3q14 -4 27 -9zM185 128q-6 -9 -13 -22q4 3 7 5q5 3 11 5q-3 6 -5 12zM271 58q1 -2 3 -4l16 -18q2 13 4 28q-4 -2 -8 -3q-8 -2 -15 -3zM341 96q5 -5 14 -13
q-2 8 -5 17q-1 3 -1 6q-4 -6 -8 -10zM377 166h2q12 -4 36 -10l24 -6l-23 28q-15 18 -29 31q0 1 -1 2q-4 -25 -9 -45zM358 364q1 5 8 11q8 9 27 25q-14 -3 -32 -8q-21 -5 -32 -8l15 -9t14 -11z" />
    <glyph glyph-name="p" unicode="p" horiz-adv-x="572" 
d="M101 459q2 -14 3 -32v-1l16 -8q30 -13 46 -22q3 -2 6 -3l2 4l12 16q-19 1 -24 20q-3 13 -4 24q-9 1 -23 1q-18 1 -34 1zM59 492v2l-4 8q-2 7 0.5 14t9.5 9.5t14 -0.5t10 -9l3 -8q2 -5 4 -13q18 0 40 -1q29 0 37 -3q19 -6 21 -29q0 -4 1 -9q12 9 22 18q14 12 29 22t29 17
q16 8 33 11q17 2 38 -3q21 -4 38 -13q18 -9 32 -23q13 -13 23 -27q10 -13 17 -26q8 -13 14 -25t11 -24t8 -21q3 -8 6 -18l8 -21q3 -11 6 -25q3 -13 5 -27q2 -15 3 -29t-1 -36q-1 -13 -3 -26q4 -8 7 -16t2 -16q-3 -17 -19 -22q-1 -4 -3 -8q-5 -19 -13.5 -37.5t-23 -40
t-28.5 -37.5q-15 -16 -31 -26t-35 -14q-17 -4 -36 -3t-36 6q-16 5 -28 10l-23 10l-21 12q-3 -23 -5 -46q-2 -27 -5 -55q-4 -27 -4 -46q-1 -20 -1 -33t1 -19q2 -21 -24 -30q-5 -2 -10 -2q-14 -3 -35 -1q-24 2 -37 5q-22 5 -29 25q-4 13 -11 56.5t-6 81.5q0 38 3 72q3 33 3 80
t-1 95q-1 49 3 93q3 42 3 82q0 28 -1 52q-6 9 -2 18q1 0 1 1v1q-1 19 -3 33q-15 3 -15 17q0 11 9 17zM189 118q-8 5 -9 13l-3 15q-1 5 -1 11l-46 -44q-3 -4 -7 -8q14 -1 33 -2q26 -1 43 -2q-6 8 -10 17zM212 154q5 -4 7 -10l3 -11q2 -7 9 -13q6 -7 20 -12t21 -5t15 3
q9 2 20 8l23 13q10 7 21.5 18t18.5 23t12 27t7 32q1 17 1 34q0 15 -2 29.5t-5 22.5q-3 7 -7 13q-5 8 -12 14.5t-15 12.5t-15 9q-6 3 -13 4q-6 0 -17 -2q-13 -2 -32 -7q-17 -4 -42 -15q-10 -5 -15 -9q2 -12 3 -24q1 -13 0.5 -34.5t-2.5 -46.5q-2 -24 -4 -45q-2 -17 0 -29z
M154 361q-3 2 -5 3q-15 9 -44 21q1 -15 1 -32q0 -29 -2 -60l1 1q25 26 46 52q3 4 5 7q-2 4 -2 8zM221 50q-2 -1 -5 -3l-3 -2q-27 -17 -56 -47l-21 -23l20 -7q20 -8 28 -12q2 24 5 46v1q1 3 1.5 5.5t2 9.5t4 10.5t7 8.5t10 3.5t12.5 -4.5l17 -10q9 -6 19 -10.5l21 -9.5l6 -2
q-7 11 -14 24t-15 22l-10 -9q-6 -5 -13.5 -4t-12.5 6q-2 3 -3 7zM200 370v-3q7 4 15 8q27 12 47 17q-2 4 -4 10q-6 13 -13 26q-2 -2 -5 -4q-19 -23 -36 -47zM263 461q6 -3 10 -10q10 -17 18 -35q1 -2 2 -5l2 2q20 24 39 38q17 13 34 22q-13 7 -29 10q-16 4 -26 2
q-11 -2 -22 -7q-12 -6 -25 -15q-1 -1 -3 -2zM415 427q-9 -17 -22 -33l-1 -1q14 -6 33 -15l22 -9q-4 9 -9 19q-6 10 -13 23zM473 293q-5 -4 -7 -5q-19 -18 -24 -24v-1q2 -4 9 -9q15 -13 27 -26l3 -3v12q-1 13 -3 26q-1 13 -4 25q-1 3 -1 5zM476 171q-2 4 -5 8q-8 12 -19 24
t-25 24l-2 1q0 -2 -1 -5q-2 -20 -8 -39q-2 -7 -4 -13q14 -3 53 -10q5 -1 9 -2q0 2 1 4q0 4 1 8zM466 124q-1 0 -8 2q-22 4 -36 6q9 -31 13 -48q2 -10 3 -19q10 15 16 28q7 15 12 31zM414 31q-14 2 -21 7l-41 26q-4 3 -9 6q-1 -10 -2 -24q-3 -25 -4 -40q-1 -9 -3 -13h1
q14 -1 27 2q12 3 23 10q12 7 23 20zM178 -108q-15 -24 -26 -36q-4 -4 -5 -7q4 -8 20 -28l7 -8v1v1q0 13 1 34q0 19 3 43zM138 -200q-25 29 -27 45q-3 18 15 36q9 11 26 37q3 6 6 11q-7 2 -15 5q-19 8 -31 11q-10 4 -17 13v-28q-1 -35 5 -75q7 -40 10 -50q1 -1 3 -2
q9 -2 25 -3zM97 -15q5 8 35 38q24 25 48 43q-11 1 -26 1q-36 1 -54 6q0 -42 -2 -73q-1 -8 -1 -15zM100 134q2 2 5 4l56 55q5 4 8 9q-10 5 -24 11q-22 9 -41 18q-2 0 -4 1q-1 -26 0 -54v-44zM291 69q9 -10 14 -20q1 15 3 26l-10 -4q-4 -1 -7 -2zM359 103q5 -3 13 -9l15 -9
t12 -8q-3 16 -12 44q-1 5 -2 7q-4 -4 -8 -9q-9 -9 -18 -16zM423 297q4 4 19 17l12 12q-2 1 -3 1l-40 18q-3 2 -6 3v-1q8 -11 12 -22t6 -28zM353 393q1 11 12 24q8 10 15 21q-13 -6 -25 -15q-10 -9 -23 -23q9 -2 17 -6q2 0 4 -1zM180 325q-1 -1 -1 -2q-22 -27 -48 -54
q-4 -4 -7 -8l34 -15q13 -5 22 -9q2 20 3 38q0 20 -1 31q-1 9 -2 19z" />
    <glyph glyph-name="q" unicode="q" horiz-adv-x="602" 
d="M421 460q-6 -13 -20 -11l-13 2q-4 0 -8 1q0 -2 2 -11q5 -23 10 -41q5 -17 10 -28h1q12 0 29 3q21 3 44 0q8 -1 14 -2v8q0 19 -1.5 35.5t-5.5 32.5q-2 12 -4 18q-8 1 -27 -2q-21 -2 -31 -5zM390 487l4 2l12 4q14 4 42 8q30 4 41 1q17 -4 23 -20q3 -8 7 -26q3 -17 5 -35.5
t2 -39.5v-35q0 -15 -1 -34q-1 -18 -1 -37q0 -20 -1 -38q0 -8 -1 -17q10 -9 16 -16q24 -25 -22 -47v-4q1 -27 3 -54q2 -28 1 -56v-26q5 -10 0 -21v-5q0 -24 1 -49l2 -46q14 -10 21 -16q10 -12 7.5 -24t-11.5 -19q-5 -4 -13 -9q0 -1 1 -2q3 -12 0.5 -30t-18.5 -24l-26 -8
q-19 -6 -48 -11q-27 -5 -39 -7q-10 -3 -21 1t-13 18q-2 7 -4 24q-2 16 -4 36t-2 45q0 24 2 52.5t8 60.5q2 13 4 23q-9 -3 -18 -5q-19 -6 -40 -12q-23 -6 -43 -8q-19 -2 -36.5 -2t-34.5 2q-19 2 -35 10q-15 8 -30 20.5t-27 29t-22 42.5q-11 26 -18.5 55.5t-10.5 63.5
q-4 35 0 66q5 32 22 71t34 64t34 40q16 14 46 29q31 16 66 21q33 5 60.5 4t47.5 -5q15 -3 28 -5zM358 351l-5 5q-9 10 -15 12q-5 2 -13 1q-11 -2 -37 -13t-46.5 -27.5t-28.5 -27.5q-7 -10 -7 -21q-2 -13 3 -38q2 -7 3 -13q16 -11 7 -26q2 -7 5 -14q9 -27 19 -51
q9 -20 20 -31q10 -9 18.5 -10.5t25.5 4.5q20 8 35 19q14 10 21 22q6 12 8 29q2 20 1.5 51t-2.5 57t-5 45q-4 18 -6 24zM206 379q-6 15 -13 41l-3 12q-16 -9 -25 -17q-6 -5 -12 -12q15 -4 34 -14q11 -6 19 -10zM489 314q-10 -7 -26 -17q-10 -7 -13 -12l3 -3l34 -30q1 11 1 23
q0 20 1 39zM484 207q-3 2 -6 5l-48 42q-16 13 -16 30q-1 14 10 27q7 8 20 16l19 13q-14 1 -25 -1q-19 -3 -33 -3h-1q-1 -4 -4 -7q3 -20 5 -47q3 -28 3 -59q1 -33 -1 -55q-1 -8 -2 -14q4 1 8 3l68 24q1 12 2 22q1 2 1 4zM481 143l-56 -20q-6 -2 -13 -5l36 -33q17 -17 33 -30
q3 -2 4 -3q0 23 -2 44q-2 23 -2 47zM484 -26q-1 -1 -5.5 -2t-6.5 -2q-24 -7 -44 -14q16 -9 35 -21l23 -15q0 10 -1 20q-1 17 -1 34zM490 -154l-2 30l-45 28q-27 18 -46 27q-2 1 -5 3q-1 -7 -1 -14q-2 -27 -2 -50t2 -42t4 -35q0 -5 1 -11q2 4 6 7l21 14q21 15 53 35q8 5 14 8
zM492 -195q-1 -1 -3 -1h3v1zM399 -17q1 0 3 1q26 11 60 21l17 5l-20 17q-18 14 -36 32l-38 35q-4 3 -8 8q-6 -6 -14 -11q-19 -14 -43 -23q-6 -3 -11 -4q24 4 37 6q17 4 25 5h6q7 1 13 -3.5t7 -12.5q0 -6 -3 -11q16 -7 12 -28q-2 -12 -7 -37zM313 28q-2 0 -5 -1
q-29 -5 -56 -8l-34 -4h11q16 0 33 2q17 1 37 7zM158 35q0 4 1 7t3 5t3.5 3t3.5 2t3 1l33 23q7 5 11 9l-42 18l-48 20q-11 5 -19 15t-1 24q4 9 18 17l44 28q-7 2 -12 5q-14 7 -20 26q-4 13 -9 41t-9 68q-6 -10 -11 -22q-15 -35 -19 -61q-4 -27 -1 -58q4 -32 10.5 -59
t16.5 -50q9 -23 18.5 -35.5t20.5 -22.5q2 -2 5 -4zM223 448q0 -3 2 -9t2 -9q7 -25 13 -38q8 7 20 20q29 31 51 49q-24 0 -52 -4q-19 -2 -36 -9zM355 400q-4 15 -8 34l-2 8q-5 -3 -11 -8q-16 -14 -37 -36q13 5 23 7q18 2 32 -4q1 0 3 -1zM202 342q-12 5 -31 15q-10 5 -19 8
q1 -6 1 -13q5 -40 9 -67q5 -25 8 -36l2 -4q-4 23 -2 38q1 21 13 38q7 10 19 21zM190 178q-21 -14 -41 -25l39 -17q11 -5 21 -9q-10 23 -19 51zM251 71q-6 -9 -16 -18l12 2q18 2 37 5q-5 0 -9 1q-12 2 -24 10z" />
    <glyph glyph-name="r" unicode="r" horiz-adv-x="410" 
d="M93 8q23 -1 46 0q16 1 22 1q0 7 1 15q-5 -1 -11 -1q-15 1 -49 1h-4h-4q0 -10 -1 -16zM56 5l1 4q1 5 1 19q-8 6 -8 15.5t9 14.5v41q-1 33 -2 59q-2 27 -1 56q1 23 2 49q-17 15 3 26q2 25 5 52v1q-6 8 2 14q3 24 5 49q4 30 10 63q8 46 39 51q20 4 40 2q28 -2 38 -20
q4 -8 14 -18l2 -2q9 4 27 9q22 6 48 8q27 3 41 -2q19 -6 25 -22q4 -11 4 -25q0 -13 -3 -26q-2 -12 -6 -38q-4 -30 -12 -41q-11 -11 -22 -10t-20 9t-16 13q-6 4 -14 8q-6 3 -16 5q-9 1 -16 1q-4 -1 -10 -8q-4 -4 -7 -8q7 -31 -13 -31q-2 -9 -3 -19q-1 -14 -2 -37.5t-1 -56.5
v-77q0 -44 -1 -77q-1 -32 -2 -49q-3 -31 -24 -33q-7 0 -32 -2q-25 -1 -50 0l-24 2q-7 0 -12 5.5t-5 13t6 12.5zM95 60h8q22 0 37 -1q-8 21 -25 44q-11 15 -21 25q0 -13 1 -29v-39zM92 180q3 1 10 0q19 0 43 -2q-12 17 -26 31q-13 15 -26 26q-1 -12 -1 -22v-33zM98 300
q8 0 17 1q-8 7 -16 13q0 -7 -1 -14zM105 367l11 1l53 -5l-6 8q-19 25 -31 44q-11 17 -17 31q-4 -24 -6 -45zM147 486l3 -3q4 -10 16 -32l17 -28q8 5 20 16q3 3 6 5q-11 3 -21 14q-13 13 -20 26q-2 1 -8 1.5t-13 0.5zM290 462q0 -2 1 -3q3 -15 4 -29l8 8l20 22v1q-1 1 -2 1
q-7 2 -27 0h-4zM319 402q-11 -11 -18 -16q2 0 3 -1q4 -4 10 -8q2 6 3 14q1 6 2 11zM260 404q0 7 -1 21q0 6 -1 14q-12 -9 -31 -26.5t-33 -23.5l4 -4q1 1 1 2q16 16 31 18q12 2 28 -1h2zM170 327q-15 1 -34 3q9 -8 18 -17q3 -3 6 -9.5t5 -14.5t-2.5 -14.5t-16.5 -7.5
q-10 -2 -32 -3q16 -13 31 -30q10 -10 19 -21q0 32 1 55q1 24 3 39q0 11 2 20zM164 141q-7 1 -21 1q-7 1 -14 1q7 -8 15 -19q12 -16 19 -30q1 18 1 39v8z" />
    <glyph glyph-name="s" unicode="s" horiz-adv-x="556" 
d="M340 340l-3 3q-6 5 -16 10q-19 10 -41 10.5t-42 -8.5q-12 -6 -18 -10v-1q4 -8 12 -17q7 -9 17 -16t25 -12q16 -7 41 -14l49 -13q24 -6 48 -16t41 -20q21 -12 32 -30q4 -7 7 -14q5 -2 9 -7q8 -12 3 -22q4 -15 2 -30q-1 -17 -8 -38q-6 -22 -17 -44q-12 -24 -26 -37
q-13 -12 -31 -22q-19 -11 -46 -17q-25 -7 -60 -9.5t-58 -1.5q-23 2 -47 9q-23 7 -43 17q-19 9 -38 21q-20 12 -33 23q-16 14 -23 30l-5 12q-5 4 -6 9q-2 5 0 10q-2 5 -4 12q-10 30 -11 38q-1 13 9 20t19 5q6 -1 28 0q23 0 51 2q8 0 17.5 0.5t19 -4.5t12.5 -16q2 -8 5 -23
q4 -11 10 -21q8 -11 20 -22q6 -6 13 -11h1q10 -4 33 -17q18 -10 32 -17q2 1 5 3q9 6 21 23q6 9 10 17q-18 18 5 29h1v2q-2 6 -7.5 13t-18.5 16q-15 10 -32 17q-18 8 -39 15l-46 17l-46 17q-23 10 -45 25q-22 16 -38 39t-21 47q-6 24 -1 45t18 40.5t35 36.5q21 17 65 37
q44 21 87 26q3 1 6 1q15 9 28 2q21 0 38 -2q30 -5 50 -15q19 -11 36 -30q17 -18 29 -41t18 -48q6 -24 7 -41q0 -14 -9.5 -24t-24.5 -8q-13 2 -41 5q-30 4 -44 8l-13 4q-7 2 -10.5 9t-2.5 14zM356 375l18 8q9 5 18 9q-40 4 -65 3h-15q13 -4 26 -10q12 -6 18 -10zM276 399
q-7 5 -9.5 14.5t0.5 14.5q-11 -18 -17 -30q-1 -1 -1 -2q13 3 27 3zM186 358q-8 1 -12 1q-16 0 -30 1q9 -7 18 -13q14 -9 25 -17q-6 15 -1 28zM244 273q0 -9 -5 -15q30 -5 62 -11q37 -8 54 -13l1.5 -0.5t3 -0.5t4 -1t4.5 -2.5l4.5 -3.5t3.5 -5t1.5 -7t-0.5 -9q34 -3 60 -5h6
q-4 2 -8 5q-15 9 -36.5 18t-43.5 14q-23 6 -50 14q-27 7 -44 14q-9 4 -17 8zM471 138q-23 -13 -51 -31q-8 -5 -15 -10q11 -6 23 -14q14 -10 21 -16q9 20 14.5 38t6.5 31q1 1 1 2zM414 27q0 1 -1 1q-18 5 -36 7q-5 0 -7 -1v0q-6 -13 -7 -20q-1 -3 -3 -7q5 1 10 3q22 5 36 13z
M318 2q-1 1 -4 2l-4 2q-2 0 -4 1q-11 4 -29 14q-16 9 -30 16q-2 1 -5 3q-2 -1 -5 -2q-12 -7 -31 -17q-4 -3 -8 -5q12 -5 26 -9q19 -6 38 -7q20 -1 53 2h3zM149 43q1 7 3 13q6 18 12 32q-5 -1 -11 -1l-44 -8v-1q4 -8 13 -16q11 -9 27 -19zM97 113q14 3 51 9q21 3 27 3
q-1 7 -3 11h-13q-29 -2 -52 -2h-17q2 -8 5 -16q1 -3 2 -5zM199 78q-5 -11 -10 -26l22 12q-7 7 -12 14zM393 132q4 3 8 5q22 15 42 27h-7q-33 2 -75 6q15 -10 22 -21q7 -8 10 -17zM310 198q1 4 4 9l-21 4l-42 9q14 -5 26 -10q18 -6 33 -12zM179 247q-6 11 11 22q5 3 11 6
q-7 6 -16 12q-17 13 -42 30q-24 16 -41 29q0 -8 2 -17q4 -17 16 -35t29 -30q15 -10 30 -17zM123 396q19 0 52 -1q23 -1 33 1q4 7 10 19q9 18 28 48q1 1 1 2q-22 -6 -46 -17q-40 -19 -58 -33q-12 -10 -20 -19zM321 473q0 -10 -5 -23q-3 -9 -8 -19h19q27 1 67 -3q3 -1 10 -1.5
t10 -0.5q-4 6 -10 12q-13 14 -27 22q-13 8 -37 11q-8 1 -19 2zM441 374q-5 -3 -10 -5q-14 -5 -42 -18l-8 -4q12 -3 34 -6q20 -2 33 -4q-1 12 -5 28q-1 4 -2 9z" />
    <glyph glyph-name="t" unicode="t" horiz-adv-x="429" 
d="M128 501v32v28l2 23q1 21 23 31q17 8 39 7q19 -2 27 -4q6 -2 17 -5q9 -2 18 -3q22 -3 27 -34q3 -18 3 -32v-13q6 -6 1 -14q0 -7 1 -14q0 -3 1 -5q4 -2 14 -4q22 -3 32 -5t19 -6q6 -3 9.5 -6t6.5 -9t3.5 -7.5t2.5 -10.5q6 -21 5 -33q-1 -17 -18 -29q-13 -10 -42 -13
q-24 -3 -38 -4q-3 -11 -3 -27q-1 -16 0 -32q0 -17 2 -36l2 -35q0 -16 1 -32l2 -27q1 -14 2 -25q0 -10 2 -20v0q2 -5 2 -9q1 -8 1 -15q1 -10 2 -19q4 -1 10 -1q13 1 23 -1q17 -2 30 -26q11 -20 11 -35q0 -9 1 -19q0 -16 -14 -30q-13 -12 -27 -15l-3 -5q-3 -6 -10.5 -8.5
t-13.5 0.5t-8 9h-1q-15 0 -26 1q-13 0 -24 4q-11 3 -29 17q-16 12 -27 22t-18 19q-8 9 -12 19q-3 8 -7 16q-4 9 -9 23t-8 34q-3 17 -5 34t-1.5 34.5t5.5 37.5q3 16 3 30v68q0 16 1 31q2 12 0 21q-10 2 -20 3q-10 0 -21 1q-24 1 -34 33q-7 20 -9 31q-5 20 22 40q21 15 44 18
q6 0 11 1zM164 501l55 17q2 1 5 2q-3 2 -7 3q-28 16 -52 26l-1 1v-17v-32zM173 585l7 -3q25 -11 55 -27q6 -4 13 -7l-3 23q0 2 -1 4q-9 1 -17 3q-12 3 -18 5q-5 2 -20 3q-9 1 -16 -1zM251 493q-15 -8 -21 -9l-66 -21l23 -4q40 -4 70 -8q31 -5 41 -8q27 -8 11 -33q3 0 6 1
q19 2 25 6l3 3q0 7 -4 20q-1 7 -3 11q-5 1 -11 3q-9 1 -30 5q-30 4 -38 18q-4 7 -6 16zM242 357q-2 -1 -3 -2l-33 -21q23 -12 36 -22q-1 17 0 34v11zM245 245q-3 -2 -7.5 -3.5t-5.5 -1.5q-30 -14 -55 -32q-2 -2 -4 -3l18 -9l53 -28q3 -1 6 -3q0 6 -1 13q-1 14 -2 30
q-1 15 -1 32q0 2 -1 5zM259 86q-3 -2 -8 -6t-7 -5l-30 -25q21 -4 41 -4q25 -1 44 0h28q-1 2 -1 3q-3 6 -6 8q-6 1 -14 0q-14 -1 -26 4q-18 7 -21 25zM304 -1l6 11h-11q-20 -1 -45 0q-7 0 -15 1q10 -8 14 -9q7 -2 15 -2q10 -1 24 -1h12zM184 72l37 30q17 14 26 23l-20 12
l-52 27q-8 3 -13 6q0 -7 1 -14l4 -33q3 -16 7 -27q4 -12 8 -20zM170 247q22 14 48 26q6 2 10 4q-2 2 -4 3q-11 9 -37 23q-8 4 -17 12v-61v-7zM172 355q12 7 47 30q25 16 42 29q-5 0 -9 1q-30 5 -67 9q-43 4 -63 17q-11 8 -13 20q-7 -3 -15 -8q-5 -4 -7 -7q2 -9 7 -24
q2 -5 4 -8q10 -1 20 -1q11 -1 25 -3q10 -3 18 -10.5t10 -18.5q2 -12 1 -26z" />
    <glyph glyph-name="u" unicode="u" horiz-adv-x="593" 
d="M51 458q3 14 17 13q-4 5 -5 10q-1 9 6 16q2 12 14 15q10 2 18 -6l13 2q38 7 63 8q25 0 33 -1q11 -1 17 -9.5t5 -16.5t0 -14q-1 -22 -4 -55q-3 -32 -3 -69q0 -39 -1 -79q-1 -41 1 -69q1 -21 3 -40q16 -5 24 -10q22 -14 8 -48q10 -5 20 -6q14 -1 35 7q22 8 36 20
q14 11 21 26q7 14 9 39q2 28 0 64q-2 38 -4 68q-1 32 1 69q2 36 3.5 56.5t1.5 28.5q3 27 48 23q8 4 15 -1q32 -2 51 -5q34 -5 38 -59q2 -39 4 -93q1 -53 2.5 -100.5t2 -93.5t0 -94.5t-1.5 -60.5t-10.5 -19.5t-18 -9.5t-22.5 -4q-36 -4 -47 -3q-22 2 -30 30q-1 5 -2 9
q-8 -5 -20 -15q-22 -19 -55 -34q-34 -16 -60 -13q-24 3 -56 20q-31 16 -55 35q-26 21 -43 51q-17 29 -25 68q-8 36 -15 81t-7 89q-1 42 -2 48v54q1 30 0 53l-10 3q-8 2 -11.5 8.5t-1.5 13.5zM192 421v2q3 33 4 53v4h-18q-22 -1 -57 -7l-13 -3q0 -5 1 -10q14 -6 37 -17z
M189 361l-6 -6l-5 -5l-34 -40l-2 -1q5 -1 11 -1q27 -3 35 -5q1 25 1 48v10zM188 213l-21 -33q12 -2 24 -5q-2 13 -2 27q-1 5 -1 11zM197 136q-26 8 -44 9q-22 1 -29 14q5 -23 9 -44q7 -33 21 -57q12 -21 29 -37q0 6 3 14t16 32l14 27q-6 7 -10 14q-6 11 -9 28zM245 72
q-5 -11 -11 -22l34 14q-12 2 -23 8zM345 79q2 -2 3 -5q5 -10 11 -26q11 16 17 32q8 21 13 32v1q-7 -8 -14 -15q-13 -10 -30 -19zM398 125q10 8 23 9q8 1 19 0l-1 1q-18 8 -30 14q-2 -7 -5 -13t-6 -11zM418 217l16 11l29 19q-10 3 -23 5q-15 3 -23 4q1 -21 1 -39zM414 301
l6 5q6 4 11 8q-39 13 10 56q15 14 29 24q-10 1 -17 0q-23 -1 -38 17q-1 -10 -1 -21q-2 -36 -1 -65q1 -11 1 -24zM440 464v-1q-2 -1 -3 -6q-2 -6 4 -20q3 -7 9 -7q22 2 49 -5v8q-1 11 -3 17.5t-3 7.5l-2 1q-18 3 -51 5zM502 372q-15 -9 -36 -27q6 -2 11 -4q3 -2 7 -6
t7.5 -11.5t-3.5 -16.5q-5 -6 -15 -10q-7 -3 -19 -11q21 -4 36 -11q9 -4 15 -11l-2 77q-1 16 -1 31zM505 236q-3 -5 -8 -9q-15 -11 -43 -30q-16 -10 -26 -17l26 -13q32 -15 51 -28l2 -4v13q0 43 -2 88zM508 95q-4 -1 -9 0q-10 1 -37 3q-27 1 -39 0h-1q-5 -10 -13 -31
q-8 -24 -26 -47q12 9 21 14q6 5 20.5 3t17.5 -16q2 -8 7 -24q1 -2 1 -4q11 0 37 3q13 2 19 4q1 15 1 54q1 21 1 41zM364 4q-13 -5 -24 4q-8 6 -12 18q-5 16 -9 26l-25 -15q-26 -16 -59 -25q-2 0 -6 -1t-13.5 -2t-15.5 0q17 -13 37 -23q26 -14 44 -16q16 -2 41 9q24 12 42 25
zM122 173q1 8 8 17q10 14 32 48q11 19 15 29q-10 3 -28 5q-28 3 -37 5q0 -41 7 -83q1 -11 3 -21zM111 327q2 3 5 7l36 40q9 11 15 19l-37 18q-10 5 -20 9q1 -18 0 -41v-49q0 -1 1 -3z" />
    <glyph glyph-name="v" unicode="v" horiz-adv-x="584" 
d="M336 57q-6 -9 -12 -17q-2 -3 -5 -7q12 4 24 10q5 2 10 5q-8 4 -17 9zM81 524q12 10 23 -4l6 -7q6 -4 27 -12q26 -9 45 -11q32 -3 40 -29q5 -16 12 -51q7 -34 17 -61l8 -24q5 -4 8 -9q6 -10 4 -23q8 -21 14 -33q7 -15 11 -25q3 5 6 12q13 27 25 60q12 34 26 63
q13 27 23 53l20 47q9 21 11 29q9 25 45 12q18 -6 33 -10q17 -4 26 -7q20 -6 22 -38v-4q3 -7 0 -15q-1 -16 -7 -39q-8 -34 -17.5 -62t-22.5 -63q-13 -36 -28 -71l-27 -65l-25 -60q-3 -8 -7 -16q11 -15 -4 -29q-4 -4 -10 -8q-7 -16 -10 -27q-5 -14 -8 -21q-7 -18 -28 -18
q-9 0 -25 1q-14 1 -21 2q-6 1 -10.5 3t-8.5 7t-5.5 8l-5.5 11t-5 9q-14 28 -24 51q-11 23 -26 62q-15 38 -30.5 72.5l-34.5 74.5q-20 42 -36 83l-29 75l-20 51l-7 17q-2 7 0.5 14t9.5 9q6 2 11 1q1 9 9 15zM191 440q-2 7 -3 11l-7 3q-1 0 -3 1q-23 2 -53 12q-23 8 -34 16
q3 -9 8 -22l19 -3q22 -4 47 -9q16 -3 26 -9zM198 405q-4 -11 -14 -31q-10 -21 -17 -39h12q22 0 39 -1q-1 2 -1 3q-11 30 -18 66l-0.5 0.5t-0.5 1.5zM233 292q-1 3 -2 5q-20 2 -52 2h-15q5 -12 11 -24l22 -47q1 4 3 8q7 13 18 29q8 12 15 27zM250 248l-2 -4l-7 -9h16
q-2 4 -5 9zM301 190l-10 -24q-4 -8 -7 -15q7 4 19 6q25 4 53 7q-12 8 -23 13q-16 7 -21 15q-1 2 -2 3q-3 -2 -7 -4q-1 0 -2 -1zM335 231q13 5 44 14q23 6 38 12q-11 3 -24 7q-28 7 -39 12q-9 -24 -19 -44v-1zM374 330q4 2 8.5 5t5.5 3q30 19 48 29q-26 13 -34 15q-2 1 -4 1
q-6 -14 -13 -28q-6 -13 -11 -25zM418 430q16 6 41 12q10 3 18 5q-12 5 -20 7l-15 4q-6 2 -9 7q-2 -4 -4 -9zM493 414q-10 -3 -25 -6q-11 -3 -20 -6l6 -3q25 -12 29 -26l8 33zM475 349q-3 -3 -8 -6q-18 -9 -60 -36q-6 -3 -11 -7q3 -1 6 -1q29 -8 47 -14q1 0 3 -1v1l23 63v1z
M428 223q-16 -6 -39 -13q-16 -4 -27 -8q16 -9 31 -22q7 -6 11 -14l21 50q1 4 3 7zM390 132q-6 -3 -20 -3l-20 -2q16 -13 4 -38q8 -5 15 -8q2 5 4 11q9 19 17 40zM338 2q-9 -4 -19 -7q9 -1 16 -1q2 3 3 8zM280 38l15 22q6 10 12 19q-9 6 -15 12q-7 -1 -15 -2q-17 -2 -20 -3
l9 -21q6 -13 14 -27zM236 136q9 17 22 45l7 18q-10 0 -24 -1q-20 0 -34 8q2 -4 4 -7zM138 360q6 15 14 30q7 14 11 23q-2 0 -4 1q-25 4 -45 8z" />
    <glyph glyph-name="w" unicode="w" horiz-adv-x="833" 
d="M586 105l-10 -10q-14 -12 -21 -20q2 -1 4 -3q14 -11 36 -14q17 -2 23 -12q3 16 6 38q-4 3 -8 4q-19 8 -30 17zM288 110q-3 13 3 24q0 2 2 5l-29 -28q11 0 21 -1h3zM330 65q-7 -12 -22 -29q18 10 33 21q-6 4 -11 8zM436 296q-9 -9 -18 -8q-8 1 -35 11l34 -32l2 -2
q5 8 12 13q22 10 41 -16q12 -16 23 -45q4 -11 7 -23q5 8 13 15q7 6 12 12q-2 5 -3 10q-5 15 -10 32q-6 2 -13 3q-2 0 -8.5 1.5t-9 2t-8 1.5t-7.5 2.5t-6.5 3.5t-6.5 4t-4.5 5t-3.5 7q-6 1 -11 3zM102 441l22 1q35 3 59 -1q-2 9 -4 15q-12 -1 -34 -3l-46 -6zM71 423l-19 33
q-3 7 -1 14t8 11q9 5 18 0l14 1q14 2 50 6q37 4 46 4q8 0 13.5 -3t9 -11l5.5 -12.5t3.5 -15.5t2.5 -11q8 -42 19 -79q5 -17 10 -32q6 -2 12 -5q11 -6 16 -14q12 -20 -5 -49q3 -8 7 -15q1 -4 2 -7q1 3 1 4l17 69q9 39 19 64.5t23 52.5q13 25 14 31q5 16 25 21q12 2 36 1
q23 -2 40 -5q27 -6 35 -28q6 -14 10 -29q3 -13 7 -25q5 -13 9 -29q4 -15 9 -29q5 -15 10 -28q3 -8 6 -17q17 -8 25 -23q5 36 10 62l10 52l10 46q5 23 10 38q7 26 49 26q30 0 60 -6q27 -6 43 -9q15 -4 20.5 -16.5t1.5 -25.5q-6 -15 -28 -57l-42 -83q-20 -39 -29 -79
q-10 -41 -15 -76q-4 -23 -6 -41l7 -9q20 -28 5 -52q-7 -12 -24 -22q-1 -7 -2 -13q-3 -13 -4 -19q-4 -19 -26 -23q-14 -2 -51 5q-34 7 -47 11q-24 8 -23 40q0 17 -5 50t-13 73q-9 39 -18 64q-7 20 -15 32q-2 -7 -5 -14q0 -2 -1 -3v-1l-23 -71q-12 -35 -19 -64q-6 -29 -9 -49
q-4 -22 -7 -37q-6 -25 -29 -33q-17 -5 -46 -4q-26 2 -37 2q-13 0 -23 9q-18 -2 -21 18q-2 9 2 15q-11 27 -23 62q-13 37 -31 84q-17 48 -36 96l-33 91q-14 43 -20 57l-5 12q-8 5 -9 14v3zM400 212q-11 0 -33 1l27 -22zM375 136q-12 -1 -29 -6q-20 -5 -23 -11v-1q0 -2 4 -5
q13 -12 34 -26q0 -1 1 -1q0 2 1 5q5 21 12 45zM350 19q-14 -9 -31 -18q-5 -2 -10 -5q22 -1 32 3q5 1 6 6q1 6 3 14zM255 32l23 25l14 16q-4 1 -10 1q-20 2 -42 1q8 -24 15 -43zM223 123q21 18 42 39q-22 4 -45 10q-12 4 -20 11l8 -20zM192 205q1 3 1 6q3 6 8 13q12 14 31 41
l-6 18q-2 8 -5 16q-18 5 -43 10q-4 1 -12.5 2t-13.5 2q9 -27 20 -54zM131 373q4 3 13 11t13 13q6 5 10 10q-17 1 -40 -1h-8zM196 384l-14 -14l-22 -21l24.5 -4.5t24.5 -5.5q-2 6 -3 11zM248 226q-8 -12 -15 -20q15 -4 27 -6q-4 11 -12 26zM303 184q12 -16 -2 -36
q13 11 36 17q13 4 25 6l-37 31q-9 7 -11 13q-4 -16 -7 -24q-2 -4 -4 -7zM321 245q9 6 42 5l21 -2l-47 46q-1 2 -3 4zM348 350q10 -3 31 -11l-23 32q-2 -4 -3 -8q-3 -6 -5 -13zM374 412q5 -4 10.5 -9.5t9 -10.5l6.5 -9l3 -4l34 -36q1 41 -1 64q-2 25 -1 34v2q-9 1 -20 2
q-18 1 -26 0q-3 -10 -15 -33zM476 380q1 -12 1 -26q2 -32 3 -45q7 -3 20 -6q-3 11 -7 21q-5 15 -10 32q-3 13 -7 24zM542 185q-1 -2 -3 -3l-2 -2q4 -1 8 -3q-1 4 -3 8zM578 169q5 -2 9 -3q18 25 47 42q8 4 10 7v1q-10 15 -33 27q-6 3 -10 6q-4 -30 -9 -55q-6 -14 -14 -25z
M611 310q15 9 38 19l3 1q-7 6 -18 10q-12 5 -16 9q-2 -13 -5 -26q-1 -6 -2 -13zM626 386l1 1q15 6 60 14q18 4 28 8q-10 8 -31 18q-1 1 -9 3.5t-12 5t-8 8t-5 12.5q-5 0 -8 -2q-4 -13 -9 -34q-4 -16 -7 -34zM743 437h-4h-1l4 -4q1 2 1 4zM709 369q-6 -2 -16 -3
q-12 -3 -22 -5q9 -6 15 -12q5 -5 7 -12zM675 301q-5 -3 -12 -6q-24 -9 -37 -19q1 -1 2 -1q16 -9 28 -20q8 23 19 46zM635 165q-12 -10 -20 -21q-2 -3 -3 -5q-1 -5 -2 -8q7 -5 19 -9q1 11 3 23q2 10 3 20zM544 8q1 1 3 2q5 2 25 16q-20 6 -35 18q-3 2 -6 5q2 -20 2 -33v-5
q4 -1 11 -3zM524 95q8 9 28 27q8 7 14 13q-7 2 -17 4q-25 6 -36 14q0 -3 1 -5q6 -28 10 -53z" />
    <glyph glyph-name="x" unicode="x" horiz-adv-x="552" 
d="M75 456h-4q-8 0 -13 5.5t-5 13t5 12.5t13 5h35q35 0 53 2q29 2 46 -29l23 -43l25 -45q8 -15 15 -26q11 13 26 39q20 31 29 51q10 20 14 30q7 16 17 24q9 8 23.5 8.5t29.5 -2.5q34 -3 49 -5q16 -1 24.5 -13.5t8.5 -27.5q0 -28 -20 -60q-18 -29 -41 -55q-14 -17 -27 -36
q5 -16 -15 -26q-12 -22 -13 -27q-2 -9 -3 -15q-1 -1 0 -2q4 -6 18 -29l14 -23q19 -10 17 -29l-1 -1q13 -26 24 -43v0q12 -3 19 -12t5 -20q12 -15 19 -26q8 -11 13 -19q15 -22 -18 -43q-18 -12 -44 -22q-18 -6 -34 0.5t-25 23.5l-25 44.5l-24 41.5l-20 36l-6 -6
q-24 -29 -61 -63q-34 -32 -44 -45q-7 -9 -9 -14q-1 -7 -4.5 -12t-9.5 -8t-9.5 -4t-11.5 -2.5t-11 -1.5q-33 -7 -56 -5q-9 1 -16.5 3t-14 10t-5.5 19q2 12 9 30q2 6 4 13q-9 6 -7 17q1 7 6.5 11.5t12.5 4.5q3 10 8 22q8 22 15 36q7 15 21 34q13 19 37 41q22 20 35 29
q0 3 -2 6q-13 22 -32 60t-40 75q-22 38 -32 57l-10 18q-5 9 0 18zM343 151q1 -5 1 -11q-1 -6 -4 -11l15 -26v1q5 8 17 30q5 8 7 14q0 1 -1 2q-12 1 -32 1h-3zM300 181q1 2 2 3q4 7 21 31q3 3 5 6q-9 5 -26 13q-3 -6 -12 -13l-16 -12l-7 -4l-10 -2q16 -9 33 -17zM274 250
q-14 10 -23 18q-5 -8 -12 -17q0 -1 4.5 -1t11 0.5t13.5 -0.5h6zM269 299q9 0 24 1q30 2 63 6q-3 4 -7 8l-27 29q-7 7 -9 10q-13 -20 -23 -31q-8 -8 -18 -11q-1 -6 -3 -12zM170 453q-4 5 -9 5q-18 -2 -55 -2l10 -18q4 5 10 7l17 3q15 4 27 5zM200 398q-7 -27 -11 -39
q5 -3 12 -5q16 -6 29 -9l-9 14zM347 409q14 4 30 15q1 0 2 1l-12 8l-6 4l-5 -12zM382 466l5 -3q21 -15 28 -19q28 -20 -18 -51q-28 -18 -52 -21q2 -3 4 -5l26 -28l4 -4q10 15 22 29q21 24 37 50q15 23 15 41q0 3 -1 6q-16 1 -48 4q-13 1 -22 1zM341 268l-23 -2q12 -6 19 -9
q0 1 1 2q1 4 3 9zM353 194q-2 -3 -5 -7h9q-3 4 -4 7zM400 110l-1 -1h1v1zM425 71q-1 2 -3 4q-10 -1 -23.5 -2.5t-26.5 0.5q6 -10 11 -20l18 -31q0 2 1 5q4 8 16 30zM449 40v-1l-3 -6q5 1 7 1zM274 129q-38 8 -60 15q12 -34 16 -51q1 -6 2 -8q24 24 42 44zM205 59q-7 2 -14 6
q-11 6 -22 11q6 -30 9 -37q1 -3 1 -6q10 11 26 26zM163 13q-9 -3 -14 -2l-45 8h-5q-3 -9 -7 -18q-2 -7 -4 -13h1q18 -2 46 4q12 3 19 5q3 6 9 16zM111 54q16 -3 27 -4q-2 9 -4 21q-9 45 19 48q9 2 18 -3q8 -4 17 -9l-9 28q-5 17 -6 24q-16 -15 -25 -28q-12 -17 -18 -29
t-13 -32q-3 -9 -6 -16zM204 186q3 -1 7 -3q7 -3 20 -7q-4 3 -7 5q-1 0 -4 1.5t-6 3.5l-6 4zM208 268l2 3q15 22 22 36q-18 4 -43 13q-5 1 -9 3q4 -9 9 -19q11 -22 19 -36zM155 369q3 12 11 39q1 5 2 8q-8 -1 -17 -3l-17 -4h-2l16 -28q3 -6 7 -12z" />
    <glyph glyph-name="y" unicode="y" horiz-adv-x="575" 
d="M61 453q-11 5 -11 16q0 7 5 12.5t12 5.5l23 1q22 0 41 2q25 1 43 -9q17 -11 30 -35q11 -21 20 -52l14 -52l14 -44q6 -21 12 -37q2 -6 5 -12q6 5 14 6q1 0 2.5 0.5l1.5 0.5q3 8 6 18l21 63q9 24 16 47l13 40q6 17 15 38q12 29 30 33q11 3 45 1q33 -2 56 -6q17 -3 27 -15.5
t9 -28.5q-1 -24 -21 -78q-19 -52 -38 -98q-18 -43 -24 -67q-7 -24 -12 -56q-5 -34 -17 -72q-11 -37 -30 -79q-17 -41 -33 -74q-15 -33 -27 -57q-14 -25 -29 -40q-17 -17 -35 -24q-16 -6 -44 -14t-47 -12q-21 -4 -38 0q-20 4 -34 26q-11 19 -12 37q-1 14 -1 22q0 18 20 30
q14 8 36 11q14 2 22 8q10 8 24 30l28 47q11 19 12.5 28.5t-1.5 22.5q-3 16 -8 36q-6 19 -12 42q-5 22 -15 50l-19 58q-9 29 -22 55l-28 55q-13 28 -26 52q-14 25 -22 37l-10 13q-5 8 -1 18zM232 -127q-11 2 -21 5q1 -2 3 -4q7 -12 7 -23q0 -15 -12 -21.5t-25 -5.5
q-26 0 -42 -1l-16 -1q0 -1 1 -3q5 -8 11 -9q9 -2 24 1q17 3 43 10.5t41 13.5q11 4 22 15q8 8 14 18q-4 -2 -8 -2q-4 -3 -6 -5l-6 -7q-5 -5 -12.5 -5.5t-12.5 4.5q-10 8 -5 20zM280 -78q5 6 7 13q3 6 -7 15q-5 5 -10 12q-5 -2 -10 -3l1 -2.5t2 -4.5q8 -17 17 -30zM308 20
l22 11q9 4 15 8l-29 30l-4 6q-9 -16 -33 -42q-3 -3 -5 -6q17 -1 24 -3q6 -1 10 -4zM308 130q2 1 5 2q9 4 21 8l-13 11q-17 15 -32 31q-8 -8 -15 -10q-5 -17 -10 -30q11 -3 25 -5q12 -1 19 -7zM168 436q-6 10 -13 14q-8 5 -22 4q-17 -1 -38 -2l4 -6h3l27 -3q20 -3 39 -7z
M197 356l-12 -25l-2 -4q13 -4 25 -9l-4 14q-4 11 -7 24zM313 224q-2 -6 -4 -11q16 -18 35 -34q26 -22 33 -30q12 -15 1 -26.5t-22 -13.5q-11 -3 -20 -6q3 -5 7 -10q17 -19 28 -30l8 23q11 35 16 67q5 34 12 59.5t25 70.5q15 35 27 68q-4 -2 -8 -3q-42 -17 -79 -27
q-8 -3 -14 -5q5 -7 14 -16l4.5 -4.5l4.5 -4.5t3.5 -4t3.5 -4t3 -4t3 -5t2 -5t1 -5.5v-5.5q-1 -7 -4 -11.5t-6.5 -7.5t-10 -5t-10 -2.5t-11.5 -1.5t-10 -2q-17 -2 -32 -4zM327 262q6 1 13 2q8 1 14 3l-7 7q-7 8 -12 13q-4 -11 -8 -24v-1zM358 354q1 0 2.5 0.5t2.5 0.5
q34 10 75 26q6 2 11 4l-34 26l-30 23q-4 -12 -8 -22q-6 -17 -13 -39q-3 -10 -6 -19zM409 461l28 -22l43 -32q9 29 9 41q1 4 0.5 4.5t-6.5 1.5q-21 4 -52 6q-13 1 -22 1zM345 -2q-27 -13 -41 -21q15 -15 19 -29zM119 -143q2 1 3 1l17 1q16 1 41 1q-6 11 -8 14q-12 -6 -28 -9
q-15 -2 -23 -6zM212 -85l4 -1q15 -4 31 -7q-8 13 -16 28q-2 3 -3 6l-13 -21q-1 -3 -3 -5zM256 61q25 28 28 41q-21 3 -37 8q-2 0 -5 2l8 -30zM230 156q5 11 10 29q1 3 1 5q-16 6 -28 20q5 -17 11 -34q3 -11 6 -20zM202 242q1 10 6 21q5 8 7 13q-4 2 -9 4q-12 6 -24 9
q11 -22 20 -47zM153 348q11 22 21 45q1 3 2 4q-1 1 -3 1q-23 6 -48 9h-2l2 -4l28 -54v-1z" />
    <glyph glyph-name="z" unicode="z" horiz-adv-x="591" 
d="M148 200l52 54l42 46q14 17 26 30q-3 10 9 20q3 2 5 4l-14 7q-22 10 -45 13q-10 2 -20 2q-36 -33 -59 -9q-1 2 -2 3q-14 -2 -25 -3l-13 -1q-13 -2 -18 8q-9 -5 -18 1q-6 3 -8 10q-3 4 -3 9l-1 7q-1 8 -1 25v22q-2 14 8 20.5t20.5 5.5t16.5 0q27 -1 50 -3q22 -2 51 -2
t61 2q33 3 56 6l48.5 6t41.5 4l35 2q20 1 28 -1q12 -2 16.5 -12.5t2.5 -19.5q-2 -12 -14 -39q-12 -26 -28 -55q-16 -30 -33 -55q-17 -23 -37 -54l-42 -61l-41 -58q-20 -30 -39 -51q-3 -4 -7 -8h17q29 -1 61 1h1q2 1 5 1q7 1 14 0l47 4q35 2 62 6q27 3 40 4q13 2 20.5 2
t12.5 -3.5t7.5 -7.5t4 -11t1.5 -11.5t-0.5 -11.5t-0.5 -8q0 -36 -1 -44q0 -7 -3 -11.5t-6.5 -7t-10 -4.5t-10 -2.5t-11 -0.5h-8.5q-34 -3 -60 -1t-53 5l-54 4t-52 3.5t-60 2.5q-33 1 -58 3t-42.5 3t-23.5 1q-24 0 -26 37q0 17 2 37q-29 21 1 31q1 0 3 1q1 8 4 14q4 11 29 40
zM109 408q4 -2 7 -5q5 0 10 1q-4 9 -9 17zM151 434q6 -11 12 -25l16 2q5 1 10 1q13 13 22 21h-10q-28 0 -50 1zM265 435v-1l1 -6h15h64q27 1 41 0q15 -2 18.5 -9.5t-2.5 -16.5t-12 -16t-8 -8l-49 -32q-4 -3 -8 -5q22 -4 36 -6q18 -2 26 -5q15 22 29 49q16 28 27 53
q6 13 9 21h-7q-17 0 -34.5 -1.5t-40.5 -4t-47 -6.5q-24 -3 -58 -6zM337 256q-34 -18 -78 -38q-22 -9 -37 -16q6 -3 12 -5q24 -11 36 -17q5 -3 9 -7l28 39zM236 115q-15 -7 -37 -14q-39 -13 -72 -23q18 -4 35 -6q22 -2 36 -5q0 8 7 14t24 26q4 4 7 8zM246 39q3 -3 5 -7l4 2
q4 2 8 5h-17zM387 44q2 -4 4 -10l9 -21q3 2 7 5q22 16 37 31q-22 -2 -47 -4q-5 -1 -10 -1zM345 41h-10q-9 -4 -21 -12l-19 -13l32 -2q17 -1 35 -3q-2 4 -4 9q-7 17 -12 20q0 1 -1 1zM492 6q-5 3 -7 8l-7 18q-4 -3 -8 -7q-10 -11 -22 -21q18 0 40 1q2 1 4 1zM216 20
q-2 3 -5 5q-4 4 -12 6q-12 2 -41 5q-28 3 -59 11q-1 -9 -1 -18q0 -1 1 -3h14q18 -1 43 -3t57 -3h3zM115 112l73 23q32 11 49 21q-8 3 -18 8l-37 18v1l-6 -6l-48 -50zM248 253q44 19 76 37l20 11q-16 3 -37 6q-3 0 -9 3l-29 -33zM316 378l22 14h-50z" />
    <glyph glyph-name="quoteleft" unicode="&#x2018;" horiz-adv-x="226" 
d="M110 354q-25 0 -42.5 17.5t-17.5 42.5v12q0 13 1 36q2 19 2 37q1 22 3 34q1 4 1 9q0 8 -1 14q-1 13 0 24q1 8 1 14v8q0 25 17.5 42.5t42 17.5t42.5 -17.5t18 -42.5v-8q0 -11 -1 -22q-1 -3 0 -6q1 -12 1 -24q0 -14 -2 -27q-1 -5 -2 -20q0 -20 -2 -41q-1 -18 -1 -28v-12
q0 -25 -17.5 -42.5t-42.5 -17.5z" />
    <glyph glyph-name="quoteright" unicode="&#x2019;" horiz-adv-x="258" 
d="M170 674.5q23 -8.5 33 -31.5t1 -46l-5 -14q-4 -11 -6.5 -20.5t-4.5 -19.5q-2 -15 -5 -29q-2 -12 -4 -22l-4 -20q-2 -7 -3 -14q-1 -8 -2 -13v-7q-3 -24 -22.5 -40t-43.5 -13.5t-40 22t-14 43.5l1 7q1 8 2 18l4 23q2 8 4 18t5 23l4 22q2 17 6 32.5t11 32.5l5 14q9 23 32 33
t46 1.5z" />
    <glyph glyph-name="quotedblleft" unicode="&#x201c;" horiz-adv-x="378" 
d="M270 350.5q-24 -3.5 -44.5 11t-24.5 38.5l-2 13q-3 18 -2 46q1 24 3 48t5 49q2 24 3 38v15q1 25 19.5 41.5t43 15.5t41.5 -19.5t16 -42.5v-15q-1 -17 -4 -45q-2 -25 -4 -47q-2 -21 -3 -41q0 -17 1 -24l2 -13q4 -24 -11 -44.5t-39 -24zM105.5 347.5q-24.5 2.5 -40.5 21.5
t-13 44v7q1 6 2 38q1 33 1 55q-1 24 -2 45q0 15 -1 20l-1 8q-4 24 10.5 44.5t38.5 24.5t44.5 -10.5t24.5 -38.5l1 -8q2 -12 3 -36q1 -21 2 -46q0 -26 -1 -62t-2 -45l-1 -7q-2 -25 -21.5 -41t-44 -13.5z" />
    <glyph glyph-name="quotedblright" unicode="&#x201d;" horiz-adv-x="391" 
d="M281.5 688q24.5 0 42 -18t17.5 -42v-18q0 -20 -1 -40l-3 -34q-1 -21 -6 -45q-3 -16 -4 -22v-9q-2 -25 -21 -41.5t-43.5 -14.5t-41 21t-14.5 43l1 9q1 13 5 37q4 17 5 31l2 34q1 15 1 31v18q0 24 18 42t42.5 18zM114 664q24 5 44.5 -9t25.5 -38l4 -15q5 -24 2 -62
q-2 -34 -7 -57q-4 -24 -11 -43l-5 -16q-8 -23 -30.5 -34.5t-45.5 -3.5t-34.5 30.5t-3.5 45.5l5 16q4 12 7.5 28t5.5 42q1 21 -1 29l-3 16q-5 24 9 45t38 26z" />
  </font>
</defs>
</svg>
